<?xml version="1.0" encoding="UTF-8" standalone="no"?>
<svg
   xmlns:ooo="http://xml.openoffice.org/svg/export"
   xmlns:dc="http://purl.org/dc/elements/1.1/"
   xmlns:cc="http://creativecommons.org/ns#"
   xmlns:rdf="http://www.w3.org/1999/02/22-rdf-syntax-ns#"
   xmlns:svg="http://www.w3.org/2000/svg"
   xmlns="http://www.w3.org/2000/svg"
   xmlns:sodipodi="http://sodipodi.sourceforge.net/DTD/sodipodi-0.dtd"
   xmlns:inkscape="http://www.inkscape.org/namespaces/inkscape"
   version="1.2"
   width="30.48mm"
   height="23.11mm"
   viewBox="0 0 3048 2311"
   preserveAspectRatio="xMidYMid"
   fill-rule="evenodd"
   stroke-width="28.222"
   stroke-linejoin="round"
   xml:space="preserve"
   id="svg188"
   sodipodi:docname="hpc-carpentry.svg"
   inkscape:version="0.92.4 (5da689c313, 2019-01-14)"
   inkscape:export-filename="/Valhalla/repositories/carpentries/hpc-intro/fig/hpc-carpentry.png"
   inkscape:export-xdpi="96"
   inkscape:export-ydpi="96"><metadata
   id="metadata192"><rdf:RDF><cc:Work
       rdf:about=""><dc:format>image/svg+xml</dc:format><dc:type
         rdf:resource="http://purl.org/dc/dcmitype/StillImage" /></cc:Work></rdf:RDF></metadata><sodipodi:namedview
   pagecolor="#ffffff"
   bordercolor="#666666"
   borderopacity="1"
   objecttolerance="10"
   gridtolerance="10"
   guidetolerance="10"
   inkscape:pageopacity="0"
   inkscape:pageshadow="2"
   inkscape:window-width="1916"
   inkscape:window-height="1022"
   id="namedview190"
   showgrid="false"
   inkscape:zoom="4.6992677"
   inkscape:cx="125.38507"
   inkscape:cy="31.787368"
   inkscape:window-x="0"
   inkscape:window-y="28"
   inkscape:window-maximized="0"
   inkscape:current-layer="svg188" />
 <defs
   class="ClipPathGroup"
   id="defs124">
  <clipPath
   id="presentation_clip_path"
   clipPathUnits="userSpaceOnUse">
   <rect
   x="0"
   y="0"
   width="3048"
   height="2311"
   id="rect121" />
  </clipPath>
 <inkscape:path-effect
   is_visible="true"
   id="path-effect7350"
   effect="spiro" /><inkscape:path-effect
   is_visible="true"
   id="path-effect7254"
   effect="spiro" /><inkscape:path-effect
   effect="spiro"
   id="path-effect7258"
   is_visible="true" /><inkscape:path-effect
   is_visible="true"
   id="path-effect7262"
   effect="spiro" /><inkscape:path-effect
   effect="spiro"
   id="path-effect7266"
   is_visible="true" /><inkscape:path-effect
   is_visible="true"
   id="path-effect7270"
   effect="spiro" /><inkscape:path-effect
   effect="spiro"
   id="path-effect7274"
   is_visible="true" /><inkscape:path-effect
   is_visible="true"
   id="path-effect7278"
   effect="spiro" /><inkscape:path-effect
   effect="spiro"
   id="path-effect7282"
   is_visible="true" /><inkscape:path-effect
   is_visible="true"
   id="path-effect7369"
   effect="spiro" /><inkscape:path-effect
   effect="spiro"
   id="path-effect7371"
   is_visible="true" /><inkscape:path-effect
   is_visible="true"
   id="path-effect7373"
   effect="spiro" /><inkscape:path-effect
   effect="spiro"
   id="path-effect7375"
   is_visible="true" /><inkscape:path-effect
   is_visible="true"
   id="path-effect7377"
   effect="spiro" /><inkscape:path-effect
   effect="spiro"
   id="path-effect7379"
   is_visible="true" /><inkscape:path-effect
   is_visible="true"
   id="path-effect7381"
   effect="spiro" /><inkscape:path-effect
   effect="spiro"
   id="path-effect7383"
   is_visible="true" /><inkscape:path-effect
   is_visible="true"
   id="path-effect7385"
   effect="spiro" /><inkscape:path-effect
   effect="spiro"
   id="path-effect7387"
   is_visible="true" /><inkscape:path-effect
   is_visible="true"
   id="path-effect7389"
   effect="spiro" /><inkscape:path-effect
   effect="spiro"
   id="path-effect7391"
   is_visible="true" /><inkscape:path-effect
   is_visible="true"
   id="path-effect7393"
   effect="spiro" /><inkscape:path-effect
   effect="spiro"
   id="path-effect7395"
   is_visible="true" /><inkscape:path-effect
   is_visible="true"
   id="path-effect7397"
   effect="spiro" /><inkscape:path-effect
   effect="spiro"
   id="path-effect7399"
   is_visible="true" /><inkscape:path-effect
   is_visible="true"
   id="path-effect7401"
   effect="spiro" /><inkscape:path-effect
   effect="spiro"
   id="path-effect7403"
   is_visible="true" /><inkscape:path-effect
   is_visible="true"
   id="path-effect7405"
   effect="spiro" /><inkscape:path-effect
   effect="spiro"
   id="path-effect7407"
   is_visible="true" /><inkscape:path-effect
   is_visible="true"
   id="path-effect7409"
   effect="spiro" /><inkscape:path-effect
   effect="spiro"
   id="path-effect7411"
   is_visible="true" /><inkscape:path-effect
   is_visible="true"
   id="path-effect7413"
   effect="spiro" /><inkscape:path-effect
   effect="spiro"
   id="path-effect7415"
   is_visible="true" /></defs>
 <defs
   class="TextShapeIndex"
   id="defs128">
  <g
   ooo:slide="id1"
   ooo:id-list="id3 id4 id5"
   id="g126" />
 </defs>
 <defs
   class="EmbeddedBulletChars"
   id="defs157">
  <g
   id="bullet-char-template(57356)"
   transform="scale(0.00048828125,-0.00048828125)">
   <path
   d="M 580,1141 L 1163,571 580,0 -4,571 580,1141 Z"
   id="path130" />
  </g>
  <g
   id="bullet-char-template(57354)"
   transform="scale(0.00048828125,-0.00048828125)">
   <path
   d="M 8,1128 L 1137,1128 1137,0 8,0 8,1128 Z"
   id="path133" />
  </g>
  <g
   id="bullet-char-template(10146)"
   transform="scale(0.00048828125,-0.00048828125)">
   <path
   d="M 174,0 L 602,739 174,1481 1456,739 174,0 Z M 1358,739 L 309,1346 659,739 1358,739 Z"
   id="path136" />
  </g>
  <g
   id="bullet-char-template(10132)"
   transform="scale(0.00048828125,-0.00048828125)">
   <path
   d="M 2015,739 L 1276,0 717,0 1260,543 174,543 174,936 1260,936 717,1481 1274,1481 2015,739 Z"
   id="path139" />
  </g>
  <g
   id="bullet-char-template(10007)"
   transform="scale(0.00048828125,-0.00048828125)">
   <path
   d="M 0,-2 C -7,14 -16,27 -25,37 L 356,567 C 262,823 215,952 215,954 215,979 228,992 255,992 264,992 276,990 289,987 310,991 331,999 354,1012 L 381,999 492,748 772,1049 836,1024 860,1049 C 881,1039 901,1025 922,1006 886,937 835,863 770,784 769,783 710,716 594,584 L 774,223 C 774,196 753,168 711,139 L 727,119 C 717,90 699,76 672,76 641,76 570,178 457,381 L 164,-76 C 142,-110 111,-127 72,-127 30,-127 9,-110 8,-76 1,-67 -2,-52 -2,-32 -2,-23 -1,-13 0,-2 Z"
   id="path142" />
  </g>
  <g
   id="bullet-char-template(10004)"
   transform="scale(0.00048828125,-0.00048828125)">
   <path
   d="M 285,-33 C 182,-33 111,30 74,156 52,228 41,333 41,471 41,549 55,616 82,672 116,743 169,778 240,778 293,778 328,747 346,684 L 369,508 C 377,444 397,411 428,410 L 1163,1116 C 1174,1127 1196,1133 1229,1133 1271,1133 1292,1118 1292,1087 L 1292,965 C 1292,929 1282,901 1262,881 L 442,47 C 390,-6 338,-33 285,-33 Z"
   id="path145" />
  </g>
  <g
   id="bullet-char-template(9679)"
   transform="scale(0.00048828125,-0.00048828125)">
   <path
   d="M 813,0 C 632,0 489,54 383,161 276,268 223,411 223,592 223,773 276,916 383,1023 489,1130 632,1184 813,1184 992,1184 1136,1130 1245,1023 1353,916 1407,772 1407,592 1407,412 1353,268 1245,161 1136,54 992,0 813,0 Z"
   id="path148" />
  </g>
  <g
   id="bullet-char-template(8226)"
   transform="scale(0.00048828125,-0.00048828125)">
   <path
   d="M 346,457 C 273,457 209,483 155,535 101,586 74,649 74,723 74,796 101,859 155,911 209,963 273,989 346,989 419,989 480,963 531,910 582,859 608,796 608,723 608,648 583,586 532,535 482,483 420,457 346,457 Z"
   id="path151" />
  </g>
  <g
   id="bullet-char-template(8211)"
   transform="scale(0.00048828125,-0.00048828125)">
   <path
   d="M -4,459 L 1135,459 1135,606 -4,606 -4,459 Z"
   id="path154" />
  </g>
 </defs>
 <defs
   class="TextEmbeddedBitmaps"
   id="defs159" />
 <g
   id="g164">
  <g
   id="id2"
   class="Master_Slide">
   <g
   id="bg-id2"
   class="Background" />
   <g
   id="bo-id2"
   class="BackgroundObjects" />
  </g>
 </g>
 <g
   class="SlideGroup"
   id="g186"
   transform="translate(105.83333)">
  <g
   id="g184"
   style="fill:#2b3990;fill-opacity:1">
   <g
   id="id1"
   class="Slide"
   clip-path="url(#presentation_clip_path)"
   style="fill:#2b3990;fill-opacity:1">
    <g
   class="Page"
   id="g181"
   style="fill:#2b3990;fill-opacity:1">
     <g
   class="com.sun.star.drawing.ClosedBezierShape"
   id="g169"
   style="fill:#2b3990;fill-opacity:1">
      <g
   id="id3"
   style="fill:#2b3990;fill-opacity:1">
       <path
   d="m 2920,575 c -40,-43 -239,-38 -294,-39 -302,-2 -866,15 -1149,15 -11,0 -50,19 -44,35 -200,0 -306,1 -548,-2 C 754,583 442,599 434,368 430,252 536,150 661,26 581,2 501,55 420,100 381,139 354,165 321,198 199,376 151,556 180,737 290,716 372,867 295,938 l -69,1 c -33,0 -59,34 -58,74 l 2,160 c 1,41 28,68 60,68 h 348 c 32,-1 58,-34 57,-75 l -2,-160 c 0,-40 -27,-73 -60,-72 H 530 C 453,719 700,747 840,749 c 262,2 350,1 581,1 13,16 7,46 43,61 23,9 1413,6 1438,0 25,-6 18,-18 27,-27 12,-48 39,-156 -9,-209 z M 576,964 v 170 c 0,0 -5,-111 -50,-118 -46,-7 -20,-52 -20,-52 z M 2905,651 c 0,0 -41,-14 -74,-35 -71,-46 -1332,-5 -1332,-5 l 36,-30 c 0,0 1285,-22 1329,0 44,22 41,70 41,70 z"
   id="path166"
   inkscape:connector-curvature="0"
   style="fill:#2b3990;stroke:none;fill-opacity:1" />
      </g>
     </g>
     <g
   class="com.sun.star.drawing.ClosedBezierShape"
   id="g174"
   style="fill:#2b3990;fill-opacity:1">
      <g
   id="id4"
   style="fill:#2b3990;fill-opacity:1">
       
      </g>
     </g>
     <g
   class="com.sun.star.drawing.ClosedBezierShape"
   id="g179"
   style="fill:#2b3990;fill-opacity:1">
      <g
   id="id5"
   style="fill:#2b3990;fill-opacity:1">
       
      </g>
     </g>
    </g>
   </g>
  </g>
 </g>
<g
   transform="matrix(8.4666663,0,0,8.4666663,671.2609,46.19486)"
   id="layer1"
   inkscape:label="Ebene 1"><g
     id="g7284"
     transform="translate(-223.92062,-976.97751)"><path
       style="fill:none;fill-rule:evenodd;stroke:#9e9e9e;stroke-width:3;stroke-linecap:butt;stroke-linejoin:miter;stroke-miterlimit:4;stroke-dasharray:none;stroke-opacity:1"
       d="m 164.83025,1163.0785 -19.99998,10e-5"
       id="path7252"
       inkscape:path-effect="#path-effect7254"
       inkscape:original-d="m 164.83025,1163.0785 -19.99998,10e-5"
       inkscape:connector-curvature="0" /><path
       inkscape:connector-curvature="0"
       inkscape:original-d="M 164.83024,1212.3866 H 144.83026"
       inkscape:path-effect="#path-effect7258"
       id="path7256"
       d="M 164.83024,1212.3866 H 144.83026"
       style="fill:none;fill-rule:evenodd;stroke:#9e9e9e;stroke-width:3;stroke-linecap:butt;stroke-linejoin:miter;stroke-miterlimit:4;stroke-dasharray:none;stroke-opacity:1" /><path
       style="fill:none;fill-rule:evenodd;stroke:#9e9e9e;stroke-width:3;stroke-linecap:butt;stroke-linejoin:miter;stroke-miterlimit:4;stroke-dasharray:none;stroke-opacity:1"
       d="M 164.83024,1205.3426 H 144.83026"
       id="path7260"
       inkscape:path-effect="#path-effect7262"
       inkscape:original-d="M 164.83024,1205.3426 H 144.83026"
       inkscape:connector-curvature="0" /><path
       inkscape:connector-curvature="0"
       inkscape:original-d="m 164.83025,1198.2985 -19.99998,10e-5"
       inkscape:path-effect="#path-effect7266"
       id="path7264"
       d="m 164.83025,1198.2985 -19.99998,10e-5"
       style="fill:none;fill-rule:evenodd;stroke:#9e9e9e;stroke-width:3;stroke-linecap:butt;stroke-linejoin:miter;stroke-miterlimit:4;stroke-dasharray:none;stroke-opacity:1" /><path
       style="fill:none;fill-rule:evenodd;stroke:#9e9e9e;stroke-width:3;stroke-linecap:butt;stroke-linejoin:miter;stroke-miterlimit:4;stroke-dasharray:none;stroke-opacity:1"
       d="M 164.83023,1191.2546 H 144.83026"
       id="path7268"
       inkscape:path-effect="#path-effect7270"
       inkscape:original-d="M 164.83023,1191.2546 H 144.83026"
       inkscape:connector-curvature="0" /><path
       inkscape:connector-curvature="0"
       inkscape:original-d="M 164.83023,1184.2106 H 144.83026"
       inkscape:path-effect="#path-effect7274"
       id="path7272"
       d="M 164.83023,1184.2106 H 144.83026"
       style="fill:none;fill-rule:evenodd;stroke:#9e9e9e;stroke-width:3;stroke-linecap:butt;stroke-linejoin:miter;stroke-miterlimit:4;stroke-dasharray:none;stroke-opacity:1" /><path
       style="fill:none;fill-rule:evenodd;stroke:#9e9e9e;stroke-width:3;stroke-linecap:butt;stroke-linejoin:miter;stroke-miterlimit:4;stroke-dasharray:none;stroke-opacity:1"
       d="M 164.83024,1177.1666 H 144.83026"
       id="path7276"
       inkscape:path-effect="#path-effect7278"
       inkscape:original-d="M 164.83024,1177.1666 H 144.83026"
       inkscape:connector-curvature="0" /><path
       inkscape:connector-curvature="0"
       inkscape:original-d="M 164.83031,1170.1226 H 144.83026"
       inkscape:path-effect="#path-effect7282"
       id="path7280"
       d="M 164.83031,1170.1226 H 144.83026"
       style="fill:none;fill-rule:evenodd;stroke:#9e9e9e;stroke-width:3;stroke-linecap:butt;stroke-linejoin:miter;stroke-miterlimit:4;stroke-dasharray:none;stroke-opacity:1" /></g><g
     transform="translate(-125.73995,-976.97751)"
     id="g7294"><path
       inkscape:connector-curvature="0"
       inkscape:original-d="m 164.83025,1163.0785 -19.99998,10e-5"
       inkscape:path-effect="#path-effect7254"
       id="path7296"
       d="m 164.83025,1163.0785 -19.99998,10e-5"
       style="fill:none;fill-rule:evenodd;stroke:#9e9e9e;stroke-width:3;stroke-linecap:butt;stroke-linejoin:miter;stroke-miterlimit:4;stroke-dasharray:none;stroke-opacity:1" /><path
       style="fill:none;fill-rule:evenodd;stroke:#9e9e9e;stroke-width:3;stroke-linecap:butt;stroke-linejoin:miter;stroke-miterlimit:4;stroke-dasharray:none;stroke-opacity:1"
       d="M 164.83024,1212.3866 H 144.83026"
       id="path7298"
       inkscape:path-effect="#path-effect7258"
       inkscape:original-d="M 164.83024,1212.3866 H 144.83026"
       inkscape:connector-curvature="0" /><path
       inkscape:connector-curvature="0"
       inkscape:original-d="M 164.83024,1205.3426 H 144.83026"
       inkscape:path-effect="#path-effect7262"
       id="path7300"
       d="M 164.83024,1205.3426 H 144.83026"
       style="fill:none;fill-rule:evenodd;stroke:#9e9e9e;stroke-width:3;stroke-linecap:butt;stroke-linejoin:miter;stroke-miterlimit:4;stroke-dasharray:none;stroke-opacity:1" /><path
       style="fill:none;fill-rule:evenodd;stroke:#9e9e9e;stroke-width:3;stroke-linecap:butt;stroke-linejoin:miter;stroke-miterlimit:4;stroke-dasharray:none;stroke-opacity:1"
       d="m 164.83025,1198.2985 -19.99998,10e-5"
       id="path7302"
       inkscape:path-effect="#path-effect7266"
       inkscape:original-d="m 164.83025,1198.2985 -19.99998,10e-5"
       inkscape:connector-curvature="0" /><path
       inkscape:connector-curvature="0"
       inkscape:original-d="M 164.83023,1191.2546 H 144.83026"
       inkscape:path-effect="#path-effect7270"
       id="path7304"
       d="M 164.83023,1191.2546 H 144.83026"
       style="fill:none;fill-rule:evenodd;stroke:#9e9e9e;stroke-width:3;stroke-linecap:butt;stroke-linejoin:miter;stroke-miterlimit:4;stroke-dasharray:none;stroke-opacity:1" /><path
       style="fill:none;fill-rule:evenodd;stroke:#9e9e9e;stroke-width:3;stroke-linecap:butt;stroke-linejoin:miter;stroke-miterlimit:4;stroke-dasharray:none;stroke-opacity:1"
       d="M 164.83023,1184.2106 H 144.83026"
       id="path7306"
       inkscape:path-effect="#path-effect7274"
       inkscape:original-d="M 164.83023,1184.2106 H 144.83026"
       inkscape:connector-curvature="0" /><path
       inkscape:connector-curvature="0"
       inkscape:original-d="M 164.83024,1177.1666 H 144.83026"
       inkscape:path-effect="#path-effect7278"
       id="path7308"
       d="M 164.83024,1177.1666 H 144.83026"
       style="fill:none;fill-rule:evenodd;stroke:#9e9e9e;stroke-width:3;stroke-linecap:butt;stroke-linejoin:miter;stroke-miterlimit:4;stroke-dasharray:none;stroke-opacity:1" /><path
       style="fill:none;fill-rule:evenodd;stroke:#9e9e9e;stroke-width:3;stroke-linecap:butt;stroke-linejoin:miter;stroke-miterlimit:4;stroke-dasharray:none;stroke-opacity:1"
       d="M 164.83031,1170.1226 H 144.83026"
       id="path7310"
       inkscape:path-effect="#path-effect7282"
       inkscape:original-d="M 164.83031,1170.1226 H 144.83026"
       inkscape:connector-curvature="0" /></g><g
     id="g7312"
     transform="rotate(90,531.34189,635.12381)"><path
       style="fill:none;fill-rule:evenodd;stroke:#9e9e9e;stroke-width:3;stroke-linecap:butt;stroke-linejoin:miter;stroke-miterlimit:4;stroke-dasharray:none;stroke-opacity:1"
       d="m 164.83025,1163.0785 -19.99998,10e-5"
       id="path7314"
       inkscape:path-effect="#path-effect7254"
       inkscape:original-d="m 164.83025,1163.0785 -19.99998,10e-5"
       inkscape:connector-curvature="0" /><path
       inkscape:connector-curvature="0"
       inkscape:original-d="M 164.83024,1212.3866 H 144.83026"
       inkscape:path-effect="#path-effect7258"
       id="path7316"
       d="M 164.83024,1212.3866 H 144.83026"
       style="fill:none;fill-rule:evenodd;stroke:#9e9e9e;stroke-width:3;stroke-linecap:butt;stroke-linejoin:miter;stroke-miterlimit:4;stroke-dasharray:none;stroke-opacity:1" /><path
       style="fill:none;fill-rule:evenodd;stroke:#9e9e9e;stroke-width:3;stroke-linecap:butt;stroke-linejoin:miter;stroke-miterlimit:4;stroke-dasharray:none;stroke-opacity:1"
       d="M 164.83024,1205.3426 H 144.83026"
       id="path7318"
       inkscape:path-effect="#path-effect7262"
       inkscape:original-d="M 164.83024,1205.3426 H 144.83026"
       inkscape:connector-curvature="0" /><path
       inkscape:connector-curvature="0"
       inkscape:original-d="m 164.83025,1198.2985 -19.99998,10e-5"
       inkscape:path-effect="#path-effect7266"
       id="path7320"
       d="m 164.83025,1198.2985 -19.99998,10e-5"
       style="fill:none;fill-rule:evenodd;stroke:#9e9e9e;stroke-width:3;stroke-linecap:butt;stroke-linejoin:miter;stroke-miterlimit:4;stroke-dasharray:none;stroke-opacity:1" /><path
       style="fill:none;fill-rule:evenodd;stroke:#9e9e9e;stroke-width:3;stroke-linecap:butt;stroke-linejoin:miter;stroke-miterlimit:4;stroke-dasharray:none;stroke-opacity:1"
       d="M 164.83023,1191.2546 H 144.83026"
       id="path7322"
       inkscape:path-effect="#path-effect7270"
       inkscape:original-d="M 164.83023,1191.2546 H 144.83026"
       inkscape:connector-curvature="0" /><path
       inkscape:connector-curvature="0"
       inkscape:original-d="M 164.83023,1184.2106 H 144.83026"
       inkscape:path-effect="#path-effect7274"
       id="path7324"
       d="M 164.83023,1184.2106 H 144.83026"
       style="fill:none;fill-rule:evenodd;stroke:#9e9e9e;stroke-width:3;stroke-linecap:butt;stroke-linejoin:miter;stroke-miterlimit:4;stroke-dasharray:none;stroke-opacity:1" /><path
       style="fill:none;fill-rule:evenodd;stroke:#9e9e9e;stroke-width:3;stroke-linecap:butt;stroke-linejoin:miter;stroke-miterlimit:4;stroke-dasharray:none;stroke-opacity:1"
       d="M 164.83024,1177.1666 H 144.83026"
       id="path7326"
       inkscape:path-effect="#path-effect7278"
       inkscape:original-d="M 164.83024,1177.1666 H 144.83026"
       inkscape:connector-curvature="0" /><path
       inkscape:connector-curvature="0"
       inkscape:original-d="M 164.83031,1170.1226 H 144.83026"
       inkscape:path-effect="#path-effect7282"
       id="path7328"
       d="M 164.83031,1170.1226 H 144.83026"
       style="fill:none;fill-rule:evenodd;stroke:#9e9e9e;stroke-width:3;stroke-linecap:butt;stroke-linejoin:miter;stroke-miterlimit:4;stroke-dasharray:none;stroke-opacity:1" /></g><g
     transform="rotate(90,580.44903,586.01667)"
     id="g7330"><path
       inkscape:connector-curvature="0"
       inkscape:original-d="m 164.83025,1163.0785 -19.99998,10e-5"
       inkscape:path-effect="#path-effect7254"
       id="path7332"
       d="m 164.83025,1163.0785 -19.99998,10e-5"
       style="fill:none;fill-rule:evenodd;stroke:#9e9e9e;stroke-width:3;stroke-linecap:butt;stroke-linejoin:miter;stroke-miterlimit:4;stroke-dasharray:none;stroke-opacity:1" /><path
       style="fill:none;fill-rule:evenodd;stroke:#9e9e9e;stroke-width:3;stroke-linecap:butt;stroke-linejoin:miter;stroke-miterlimit:4;stroke-dasharray:none;stroke-opacity:1"
       d="M 164.83024,1212.3866 H 144.83026"
       id="path7334"
       inkscape:path-effect="#path-effect7258"
       inkscape:original-d="M 164.83024,1212.3866 H 144.83026"
       inkscape:connector-curvature="0" /><path
       inkscape:connector-curvature="0"
       inkscape:original-d="M 164.83024,1205.3426 H 144.83026"
       inkscape:path-effect="#path-effect7262"
       id="path7336"
       d="M 164.83024,1205.3426 H 144.83026"
       style="fill:none;fill-rule:evenodd;stroke:#9e9e9e;stroke-width:3;stroke-linecap:butt;stroke-linejoin:miter;stroke-miterlimit:4;stroke-dasharray:none;stroke-opacity:1" /><path
       style="fill:none;fill-rule:evenodd;stroke:#9e9e9e;stroke-width:3;stroke-linecap:butt;stroke-linejoin:miter;stroke-miterlimit:4;stroke-dasharray:none;stroke-opacity:1"
       d="m 164.83025,1198.2985 -19.99998,10e-5"
       id="path7338"
       inkscape:path-effect="#path-effect7266"
       inkscape:original-d="m 164.83025,1198.2985 -19.99998,10e-5"
       inkscape:connector-curvature="0" /><path
       inkscape:connector-curvature="0"
       inkscape:original-d="M 164.83023,1191.2546 H 144.83026"
       inkscape:path-effect="#path-effect7270"
       id="path7340"
       d="M 164.83023,1191.2546 H 144.83026"
       style="fill:none;fill-rule:evenodd;stroke:#9e9e9e;stroke-width:3;stroke-linecap:butt;stroke-linejoin:miter;stroke-miterlimit:4;stroke-dasharray:none;stroke-opacity:1" /><path
       style="fill:none;fill-rule:evenodd;stroke:#9e9e9e;stroke-width:3;stroke-linecap:butt;stroke-linejoin:miter;stroke-miterlimit:4;stroke-dasharray:none;stroke-opacity:1"
       d="M 164.83023,1184.2106 H 144.83026"
       id="path7342"
       inkscape:path-effect="#path-effect7274"
       inkscape:original-d="M 164.83023,1184.2106 H 144.83026"
       inkscape:connector-curvature="0" /><path
       inkscape:connector-curvature="0"
       inkscape:original-d="M 164.83024,1177.1666 H 144.83026"
       inkscape:path-effect="#path-effect7278"
       id="path7344"
       d="M 164.83024,1177.1666 H 144.83026"
       style="fill:none;fill-rule:evenodd;stroke:#9e9e9e;stroke-width:3;stroke-linecap:butt;stroke-linejoin:miter;stroke-miterlimit:4;stroke-dasharray:none;stroke-opacity:1" /><path
       style="fill:none;fill-rule:evenodd;stroke:#9e9e9e;stroke-width:3;stroke-linecap:butt;stroke-linejoin:miter;stroke-miterlimit:4;stroke-dasharray:none;stroke-opacity:1"
       d="M 164.83031,1170.1226 H 144.83026"
       id="path7346"
       inkscape:path-effect="#path-effect7282"
       inkscape:original-d="M 164.83031,1170.1226 H 144.83026"
       inkscape:connector-curvature="0" /></g><path
     inkscape:connector-curvature="0"
     inkscape:original-d="m -57.365933,168.36522 -3.74414,3.7441 v 78.6582 h 82.40039 v -82.4062 z"
     inkscape:path-effect="#path-effect7350"
     id="path7348"
     d="m -57.365933,168.36522 -3.74414,3.7441 v 78.6582 h 82.40039 v -82.4062 z"
     style="fill:#424242;fill-opacity:1;fill-rule:evenodd;stroke:none;stroke-width:1px;stroke-linecap:butt;stroke-linejoin:miter;stroke-opacity:1" /></g><path
   style="fill:#2b3990;fill-opacity:1;stroke-width:4.24661207"
   d="M 5.9140542,69.365913 V 56.832064 L 6.4846674,56.274875 7.0552805,55.717687 H 19.575705 32.096129 V 68.808724 81.899762 H 19.005092 5.9140542 Z m 3.2205716,-9.907174 c 0.7102429,-0.323609 0.7768938,-1.417202 0.1081856,-1.775084 -0.4530271,-0.242452 -0.7901,-0.194577 -1.1748374,0.166865 -0.6569218,0.617146 -0.3438522,1.456253 0.6603444,1.769893 0.016796,0.0052 0.1996341,-0.06751 0.4063074,-0.161674 z"
   id="path4161"
   inkscape:connector-curvature="0"
   transform="scale(26.458333)" /><path
   style="fill:#2b3990;fill-opacity:1;stroke-width:4.24661207"
   d="m 10.277733,52.783489 v -2.783727 h 0.37618 0.376179 v 2.783727 2.783726 h -0.376179 -0.37618 z"
   id="path4163"
   inkscape:connector-curvature="0"
   transform="scale(26.458333)" /><path
   style="fill:#2b3990;fill-opacity:1;stroke-width:4.24661207"
   d="M 0.19612977,61.285139 V 60.833724 H 2.9798562 5.7635825 v 0.451415 0.451415 H 2.9798562 0.19612977 Z"
   id="path4165"
   inkscape:connector-curvature="0"
   transform="scale(26.458333)" /><path
   style="fill:#2b3990;fill-opacity:1;stroke-width:4.24661207"
   d="M 0.19612977,63.542215 V 63.0908 H 2.9798562 5.7635825 v 0.451415 0.451415 H 2.9798562 0.19612977 Z"
   id="path4167"
   inkscape:connector-curvature="0"
   transform="scale(26.458333)" /><path
   style="fill:#2b3990;fill-opacity:1;stroke-width:4.24661207"
   d="M 0.19612977,65.79929 V 65.347875 H 2.9798562 5.7635825 v 0.451415 0.451415 H 2.9798562 0.19612977 Z"
   id="path4171"
   inkscape:connector-curvature="0"
   transform="scale(26.458333)" /><path
   style="fill:#2b3990;fill-opacity:1;stroke-width:4.24661207"
   d="M 0.19612977,68.056366 V 67.604951 H 2.9798562 5.7635825 v 0.451415 0.451415 H 2.9798562 0.19612977 Z"
   id="path4173"
   inkscape:connector-curvature="0"
   transform="scale(26.458333)" /><path
   style="fill:#2b3990;fill-opacity:1;stroke-width:4.24661207"
   d="M 0.19612977,70.313441 V 69.862026 H 2.9798562 5.7635825 v 0.451415 0.451415 H 2.9798562 0.19612977 Z"
   id="path4175"
   inkscape:connector-curvature="0"
   transform="scale(26.458333)" /><path
   style="fill:#2b3990;fill-opacity:1;stroke-width:3.00280833"
   d="M 0.11599994,72.580325 V 72.101527 H 2.9355882 5.7551765 v 0.478798 0.478798 H 2.9355882 0.11599994 Z"
   id="path4177"
   inkscape:connector-curvature="0"
   transform="scale(26.458333)" /><path
   style="fill:#2b3990;fill-opacity:1;stroke-width:3.00280833"
   d="M 0.11599994,74.814716 V 74.335918 H 2.9355882 5.7551765 v 0.478798 0.478798 H 2.9355882 0.11599994 Z"
   id="path4179"
   inkscape:connector-curvature="0"
   transform="scale(26.458333)" /><path
   style="fill:#2b3990;fill-opacity:1;stroke-width:3.00280833"
   d="M 0.11599994,77.102306 V 76.676708 H 2.9355882 5.7551765 v 0.425598 0.425598 H 2.9355882 0.11599994 Z"
   id="path4181"
   inkscape:connector-curvature="0"
   transform="scale(26.458333)" /><path
   style="fill:#2b3990;fill-opacity:1;stroke-width:3.00280833"
   d="m 10.223958,84.816274 v -2.819588 h 0.425598 0.425598 v 2.819588 2.819588 h -0.425598 -0.425598 z"
   id="path4183"
   inkscape:connector-curvature="0"
   transform="scale(26.458333)" /><path
   style="fill:#2b3990;fill-opacity:1;stroke-width:3.00280833"
   d="m 12.458349,84.816274 v -2.819588 h 0.478798 0.478798 v 2.819588 2.819588 h -0.478798 -0.478798 z"
   id="path4185"
   inkscape:connector-curvature="0"
   transform="scale(26.458333)" /><path
   style="fill:#2b3990;fill-opacity:1;stroke-width:3.00280833"
   d="m 14.799139,84.816274 v -2.819588 h 0.425598 0.425598 v 2.819588 2.819588 h -0.425598 -0.425598 z"
   id="path4187"
   inkscape:connector-curvature="0"
   transform="scale(26.458333)" /><path
   style="fill:#2b3990;fill-opacity:1;stroke-width:3.00280833"
   d="m 17.03353,84.816274 v -2.819588 h 0.425598 0.425598 v 2.819588 2.819588 H 17.459128 17.03353 Z"
   id="path4189"
   inkscape:connector-curvature="0"
   transform="scale(26.458333)" /><path
   style="fill:#2b3990;fill-opacity:1;stroke-width:3.00280833"
   d="m 19.26792,84.816274 v -2.819588 h 0.425598 0.425599 v 2.819588 2.819588 H 19.693518 19.26792 Z"
   id="path4191"
   inkscape:connector-curvature="0"
   transform="scale(26.458333)" /><path
   style="fill:#2b3990;fill-opacity:1;stroke-width:3.00280833"
   d="m 21.502311,84.816274 v -2.819588 h 0.425598 0.425598 v 2.819588 2.819588 h -0.425598 -0.425598 z"
   id="path4193"
   inkscape:connector-curvature="0"
   transform="scale(26.458333)" /><path
   style="fill:#2b3990;fill-opacity:1;stroke-width:3.00280833"
   d="m 23.736702,84.816274 v -2.819588 h 0.425598 0.425598 v 2.819588 2.819588 H 24.1623 23.736702 Z"
   id="path4195"
   inkscape:connector-curvature="0"
   transform="scale(26.458333)" /><path
   style="fill:#2b3990;fill-opacity:1;stroke-width:3.00280833"
   d="m 25.971092,84.816274 v -2.819588 h 0.478798 0.478798 v 2.819588 2.819588 H 26.44989 25.971092 Z"
   id="path4197"
   inkscape:connector-curvature="0"
   transform="scale(26.458333)" /><path
   style="fill:#2b3990;fill-opacity:1;stroke-width:3.00280833"
   d="m 32.248666,77.102306 v -0.425598 h 2.819588 2.819589 v 0.425598 0.425598 h -2.819589 -2.819588 z"
   id="path4199"
   inkscape:connector-curvature="0"
   transform="scale(26.458333)" /><path
   style="fill:#2b3990;fill-opacity:1;stroke-width:3.00280833"
   d="m 32.248666,74.812949 v -0.480564 l 2.792989,0.02837 2.792988,0.02837 0.03272,0.452198 0.03272,0.452198 h -2.825706 -2.825706 z"
   id="path4201"
   inkscape:connector-curvature="0"
   transform="scale(26.458333)" /><path
   style="fill:#2b3990;fill-opacity:1;stroke-width:3.00280833"
   d="m 32.248666,72.582092 v -0.480565 h 2.825706 2.825706 l -0.03272,0.452198 -0.03272,0.452198 -2.792988,0.02837 -2.792989,0.02837 z"
   id="path4203"
   inkscape:connector-curvature="0"
   transform="scale(26.458333)" /><path
   style="fill:#2b3990;fill-opacity:1;stroke-width:3.00280833"
   d="m 32.248666,70.292735 v -0.425599 h 2.819588 2.819589 v 0.425599 0.425598 h -2.819589 -2.819588 z"
   id="path4205"
   inkscape:connector-curvature="0"
   transform="scale(26.458333)" /><path
   style="fill:#2b3990;fill-opacity:1;stroke-width:3.00280833"
   d="m 32.248666,68.058344 v -0.425598 h 2.819588 2.819589 v 0.425598 0.425598 h -2.819589 -2.819588 z"
   id="path4207"
   inkscape:connector-curvature="0"
   transform="scale(26.458333)" /><path
   style="fill:#2b3990;fill-opacity:1;stroke-width:3.00280833"
   d="m 32.248666,65.823953 v -0.425598 h 2.819588 2.819589 v 0.425598 0.425598 h -2.819589 -2.819588 z"
   id="path4209"
   inkscape:connector-curvature="0"
   transform="scale(26.458333)" /><path
   style="fill:#2b3990;fill-opacity:1;stroke-width:3.00280833"
   d="m 32.248666,63.589563 v -0.425599 h 2.819588 2.819589 v 0.425599 0.425598 h -2.819589 -2.819588 z"
   id="path4211"
   inkscape:connector-curvature="0"
   transform="scale(26.458333)" /><path
   style="fill:#2b3990;fill-opacity:1;stroke-width:3.00280833"
   d="m 32.248666,61.303739 v -0.480565 h 2.825706 2.825706 l -0.03272,0.452198 -0.03272,0.452198 -2.792988,0.02837 -2.792989,0.02837 z"
   id="path4213"
   inkscape:connector-curvature="0"
   transform="scale(26.458333)" /><path
   style="fill:#2b3990;fill-opacity:1;stroke-width:3.00280833"
   d="M 25.971092,52.736808 V 49.86402 h 0.478798 0.478798 v 2.872788 2.872788 H 26.44989 25.971092 Z"
   id="path4215"
   inkscape:connector-curvature="0"
   transform="scale(26.458333)" /><path
   style="fill:#2b3990;fill-opacity:1;stroke-width:3.00280833"
   d="M 23.736702,52.736808 V 49.86402 h 0.425598 0.425598 v 2.872788 2.872788 H 24.1623 23.736702 Z"
   id="path4217"
   inkscape:connector-curvature="0"
   transform="scale(26.458333)" /><path
   style="fill:#2b3990;fill-opacity:1;stroke-width:3.00280833"
   d="M 21.502311,52.736808 V 49.86402 h 0.425598 0.425598 v 2.872788 2.872788 h -0.425598 -0.425598 z"
   id="path4219"
   inkscape:connector-curvature="0"
   transform="scale(26.458333)" /><path
   style="fill:#2b3990;fill-opacity:1;stroke-width:3.00280833"
   d="M 19.26792,52.736808 V 49.86402 h 0.425598 0.425599 v 2.872788 2.872788 H 19.693518 19.26792 Z"
   id="path4221"
   inkscape:connector-curvature="0"
   transform="scale(26.458333)" /><path
   style="fill:#2b3990;fill-opacity:1;stroke-width:3.00280833"
   d="M 17.03353,52.736808 V 49.86402 h 0.425598 0.425598 v 2.872788 2.872788 H 17.459128 17.03353 Z"
   id="path4223"
   inkscape:connector-curvature="0"
   transform="scale(26.458333)" /><path
   style="fill:#2b3990;fill-opacity:1;stroke-width:3.00280833"
   d="M 14.799139,52.736808 V 49.86402 h 0.425598 0.425598 v 2.872788 2.872788 h -0.425598 -0.425598 z"
   id="path4225"
   inkscape:connector-curvature="0"
   transform="scale(26.458333)" /><path
   style="fill:#2b3990;fill-opacity:1;stroke-width:3.00280833"
   d="m 12.458349,52.73069 v -2.878906 l 0.452198,0.03272 0.452198,0.03272 0.02834,2.846189 0.02834,2.846188 h -0.480536 -0.480535 z"
   id="path4227"
   inkscape:connector-curvature="0"
   transform="scale(26.458333)" /><path
   style="fill:#000000;fill-opacity:0;stroke-width:3.00280833"
   d="M 8.1907862,59.290121 C 7.5869355,58.782014 7.6620395,58.066229 8.3555518,57.719807 9.263803,57.266119 10.0878,58.397932 9.4100012,59.168161 c -0.3623774,0.411795 -0.820324,0.457604 -1.219215,0.12196 z"
   id="path5034"
   inkscape:connector-curvature="0"
   transform="scale(26.458333)" /><path
   style="fill:#ffffff;fill-opacity:0;stroke-width:3.00280833"
   d="M 8.1907862,59.290121 C 7.5869355,58.782014 7.6620395,58.066229 8.3555518,57.719807 9.263803,57.266119 10.0878,58.397932 9.4100012,59.168161 c -0.3623774,0.411795 -0.820324,0.457604 -1.219215,0.12196 z"
   id="path5036"
   inkscape:connector-curvature="0"
   transform="scale(26.458333)" /><path
   style="fill:#ffffff;fill-opacity:0;stroke-width:1.50140417"
   d="M 8.3146438,59.414873 C 8.1856872,59.346792 8.0092126,59.190337 7.9224779,59.067195 7.3793174,58.296041 8.3150613,57.239973 9.1595922,57.671004 c 0.2438006,0.124431 0.3557587,0.245282 0.4613497,0.497997 0.1437913,0.344141 0.071756,0.724245 -0.1947867,1.027821 -0.3078679,0.350642 -0.710682,0.429664 -1.1115114,0.218051 z"
   id="path5038"
   inkscape:connector-curvature="0"
   transform="scale(26.458333)" /><path
   style="fill:#ffffff;fill-opacity:1;stroke-width:1.50140417"
   d="M 8.3727761,59.454262 C 8.0353852,59.262152 7.9096849,59.131144 7.8084768,58.866134 7.5214579,58.114586 8.3802518,57.321612 9.1325816,57.643513 9.891389,57.968185 9.867699,59.089102 9.0942973,59.45498 8.7359948,59.624484 8.6716146,59.62442 8.3727761,59.454262 Z"
   id="path5040"
   inkscape:connector-curvature="0"
   transform="scale(26.458333)" /></svg>