<svg xmlns="http://www.w3.org/2000/svg" xmlns:xlink="http://www.w3.org/1999/xlink" xmlns:lucid="lucid" width="1186" height="691"><g transform="translate(940 -70)" lucid:page-tab-id="9abl7.LtRqVA"><path d="M-920 90h240v60h-240z" fill="none"/><use xlink:href="#a" transform="matrix(1,0,0,1,-920,90) translate(87.34567901234568 34.44444444444444)"/><use xlink:href="#b" transform="matrix(1,0,0,1,-920,90) translate(105.8641975308642 34.44444444444444)"/><path d="M-140 510h240v60h-240z" fill="none"/><use xlink:href="#c" transform="matrix(1,0,0,1,-140,510) translate(64.69135802469135 34.44444444444444)"/><path d="M-160 590H80v60h-240z" fill="none"/><use xlink:href="#d" transform="matrix(1,0,0,1,-160,590) translate(80.52469135802468 34.44444444444444)"/><path d="M-700 246a6 6 0 0 1 6-6h288a6 6 0 0 1 6 6v28a6 6 0 0 1-6 6h-288a6 6 0 0 1-6-6z" stroke="#3a414a" fill="#9391ff"/><path d="M-400 246a6 6 0 0 1 6-6h288a6 6 0 0 1 6 6v28a6 6 0 0 1-6 6h-288a6 6 0 0 1-6-6z" stroke="#3a414a" fill="#ff8f8f"/><path d="M-700 306a6 6 0 0 1 6-6h288a6 6 0 0 1 6 6v28a6 6 0 0 1-6 6h-288a6 6 0 0 1-6-6zM-700 106a6 6 0 0 1 6-6h588a6 6 0 0 1 6 6v28a6 6 0 0 1-6 6h-588a6 6 0 0 1-6-6z" stroke="#3a414a" fill="#9391ff"/><path d="M-100 106a6 6 0 0 1 6-6h288a6 6 0 0 1 6 6v28a6 6 0 0 1-6 6H-94a6 6 0 0 1-6-6z" stroke="#3a414a" fill="#ff8f8f"/><path d="M-700 446a6 6 0 0 1 6-6h148a6 6 0 0 1 6 6v28a6 6 0 0 1-6 6h-148a6 6 0 0 1-6-6z" stroke="#3a414a" fill="#9391ff"/><path d="M-540 446a6 6 0 0 1 6-6h288a6 6 0 0 1 6 6v28a6 6 0 0 1-6 6h-288a6 6 0 0 1-6-6z" stroke="#3a414a" fill="#ff8f8f"/><path d="M-700 506a6 6 0 0 1 6-6h148a6 6 0 0 1 6 6v28a6 6 0 0 1-6 6h-148a6 6 0 0 1-6-6zM-700 566a6 6 0 0 1 6-6h148a6 6 0 0 1 6 6v28a6 6 0 0 1-6 6h-148a6 6 0 0 1-6-6zM-700 626a6 6 0 0 1 6-6h148a6 6 0 0 1 6 6v28a6 6 0 0 1-6 6h-148a6 6 0 0 1-6-6z" stroke="#3a414a" fill="#9391ff"/><path d="M-281.74 722H-698v-4h416.26zm459 0h-395.52v-4h395.52z" stroke="#3a414a" stroke-width=".05" fill="#3a414a"/><path d="M-697.95 722H-700v-4h2.05z" stroke="#3a414a" stroke-width=".05" fill="#3a414a"/><path d="M193.53 720l-14.27 4.64v-9.28z" fill="#3a414a"/><path d="M200 720l-22.74 7.4v-14.8zm-18.74 1.88l5.8-1.88-5.8-1.88z" stroke="#3a414a" stroke-width=".05" fill="#3a414a"/><use xlink:href="#e" transform="matrix(1,0,0,1,-281.7375256304973,704.020266815414) translate(0 21.30631091278142)"/><path d="M-739.5 200h979M-739.5 200h-.5M239.5 200h.5M-743.6 400h979M-743.6 400h-.5M235.38 400h.5" stroke="#ced4db" fill="none"/><path d="M-920 260h240v60h-240z" fill="none"/><use xlink:href="#f" transform="matrix(1,0,0,1,-920,260) translate(87.34567901234568 34.44444444444444)"/><use xlink:href="#b" transform="matrix(1,0,0,1,-920,260) translate(105.8641975308642 34.44444444444444)"/><path d="M-920 520h240v60h-240z" fill="none"/><use xlink:href="#g" transform="matrix(1,0,0,1,-920,520) translate(87.34567901234568 34.44444444444444)"/><use xlink:href="#b" transform="matrix(1,0,0,1,-920,520) translate(105.8641975308642 34.44444444444444)"/><path d="M-140 526a6 6 0 0 1 6-6h28a6 6 0 0 1 6 6v28a6 6 0 0 1-6 6h-28a6 6 0 0 1-6-6z" stroke="#3a414a" fill="#9391ff"/><path d="M-140 606a6 6 0 0 1 6-6h28a6 6 0 0 1 6 6v28a6 6 0 0 1-6 6h-28a6 6 0 0 1-6-6z" stroke="#3a414a" fill="#ff8f8f"/><defs><path fill="#3a414a" d="M23 0v-37h61v-169l-59 37v-38l62-41h46v211h57V0H23" id="h"/><use transform="matrix(0.06172839506172839,0,0,0.06172839506172839,0,0)" xlink:href="#h" id="a"/><path fill="#3a414a" d="M67-125c0 53 21 87 73 88 37 1 54-22 65-47l45 17C233-25 199 4 140 4 58 4 20-42 15-125 8-235 124-281 211-232c18 10 29 29 36 50l-46 12c-8-25-30-41-62-41-52 0-71 34-72 86" id="i"/><path fill="#3a414a" d="M24-248c93 1 206-16 204 79-1 75-69 88-152 82V0H24v-248zm52 121c47 0 100 7 100-41 0-47-54-39-100-39v80" id="j"/><path fill="#3a414a" d="M238-95c0 69-44 99-111 99C63 4 22-25 22-93v-155h51v151c-1 38 19 59 55 60 90 1 49-130 58-211h52v153" id="k"/><g id="b"><use transform="matrix(0.06172839506172839,0,0,0.06172839506172839,0,0)" xlink:href="#i"/><use transform="matrix(0.06172839506172839,0,0,0.06172839506172839,15.987654320987653,0)" xlink:href="#j"/><use transform="matrix(0.06172839506172839,0,0,0.06172839506172839,30.80246913580247,0)" xlink:href="#k"/></g><path fill="#3a414a" d="M30-248c87 1 191-15 191 75 0 78-77 80-158 76V0H30v-248zm33 125c57 0 124 11 124-50 0-59-68-47-124-48v98" id="l"/><path fill="#3a414a" d="M205 0l-28-72H64L36 0H1l101-248h38L239 0h-34zm-38-99l-47-123c-12 45-31 82-46 123h93" id="m"/><path fill="#3a414a" d="M233-177c-1 41-23 64-60 70L243 0h-38l-65-103H63V0H30v-248c88 3 205-21 203 71zM63-129c60-2 137 13 137-47 0-61-80-42-137-45v92" id="n"/><path fill="#3a414a" d="M30 0v-248h33v221h125V0H30" id="o"/><path fill="#3a414a" d="M30 0v-248h187v28H63v79h144v27H63v87h162V0H30" id="p"/><g id="c"><use transform="matrix(0.06172839506172839,0,0,0.06172839506172839,0,0)" xlink:href="#l"/><use transform="matrix(0.06172839506172839,0,0,0.06172839506172839,13.148148148148147,0)" xlink:href="#m"/><use transform="matrix(0.06172839506172839,0,0,0.06172839506172839,27.962962962962962,0)" xlink:href="#n"/><use transform="matrix(0.06172839506172839,0,0,0.06172839506172839,43.95061728395061,0)" xlink:href="#m"/><use transform="matrix(0.06172839506172839,0,0,0.06172839506172839,58.76543209876543,0)" xlink:href="#o"/><use transform="matrix(0.06172839506172839,0,0,0.06172839506172839,71.11111111111111,0)" xlink:href="#o"/><use transform="matrix(0.06172839506172839,0,0,0.06172839506172839,83.4567901234568,0)" xlink:href="#p"/><use transform="matrix(0.06172839506172839,0,0,0.06172839506172839,98.27160493827161,0)" xlink:href="#o"/></g><path fill="#3a414a" d="M185-189c-5-48-123-54-124 2 14 75 158 14 163 119 3 78-121 87-175 55-17-10-28-26-33-46l33-7c5 56 141 63 141-1 0-78-155-14-162-118-5-82 145-84 179-34 5 7 8 16 11 25" id="q"/><path fill="#3a414a" d="M33 0v-248h34V0H33" id="r"/><g id="d"><use transform="matrix(0.06172839506172839,0,0,0.06172839506172839,0,0)" xlink:href="#q"/><use transform="matrix(0.06172839506172839,0,0,0.06172839506172839,14.814814814814813,0)" xlink:href="#p"/><use transform="matrix(0.06172839506172839,0,0,0.06172839506172839,29.629629629629626,0)" xlink:href="#n"/><use transform="matrix(0.06172839506172839,0,0,0.06172839506172839,45.61728395061728,0)" xlink:href="#r"/><use transform="matrix(0.06172839506172839,0,0,0.06172839506172839,51.79012345679012,0)" xlink:href="#m"/><use transform="matrix(0.06172839506172839,0,0,0.06172839506172839,66.60493827160494,0)" xlink:href="#o"/></g><path fill="#333" d="M136-208V0H84v-208H4v-40h212v40h-80" id="s"/><path fill="#333" d="M24 0v-248h52V0H24" id="t"/><path fill="#333" d="M230 0l2-204L168 0h-37L68-204 70 0H24v-248h70l56 185 57-185h69V0h-46" id="u"/><path fill="#333" d="M24 0v-248h195v40H76v63h132v40H76v65h150V0H24" id="v"/><g id="e"><use transform="matrix(0.07398024622493549,0,0,0.07398024622493549,0,0)" xlink:href="#s"/><use transform="matrix(0.07398024622493549,0,0,0.07398024622493549,16.20167392326087,0)" xlink:href="#t"/><use transform="matrix(0.07398024622493549,0,0,0.07398024622493549,23.599698545754418,0)" xlink:href="#u"/><use transform="matrix(0.07398024622493549,0,0,0.07398024622493549,45.719792167010134,0)" xlink:href="#v"/></g><path fill="#3a414a" d="M182-182c0 78-84 86-111 141h115V0H12c-6-101 99-100 120-180 1-22-12-31-33-32-23 0-32 14-35 34l-49-3c5-45 32-70 84-70 51 0 83 22 83 69" id="w"/><use transform="matrix(0.06172839506172839,0,0,0.06172839506172839,0,0)" xlink:href="#w" id="f"/><path fill="#3a414a" d="M165-50V0h-47v-50H5v-38l105-160h55v161h33v37h-33zm-47-37l2-116L46-87h72" id="x"/><use transform="matrix(0.06172839506172839,0,0,0.06172839506172839,0,0)" xlink:href="#x" id="g"/></defs></g></svg>