<svg xmlns="http://www.w3.org/2000/svg" xmlns:xlink="http://www.w3.org/1999/xlink" xmlns:lucid="lucid" width="1041" height="581"><g transform="translate(20 -90)" lucid:page-tab-id="0_0"><path d="M200 126a6 6 0 0 1 6-6h688a6 6 0 0 1 6 6v28a6 6 0 0 1-6 6H206a6 6 0 0 1-6-6z" stroke="#3a414a" fill="#54c45e"/><path d="M540 226a6 6 0 0 1 6-6h48a6 6 0 0 1 6 6v28a6 6 0 0 1-6 6h-48a6 6 0 0 1-6-6z" stroke="#3a414a" fill="#ffe342"/><path d="M0 116a6 6 0 0 1 6-6h228a6 6 0 0 1 6 6v48a6 6 0 0 1-6 6H6a6 6 0 0 1-6-6z" stroke="#000" stroke-opacity="0" fill="#fff" fill-opacity="0"/><use xlink:href="#a" transform="matrix(1,0,0,1,5,115) translate(82.34567901234568 30.27777777777778)"/><use xlink:href="#b" transform="matrix(1,0,0,1,5,115) translate(100.8641975308642 30.27777777777778)"/><path d="M200 226a6 6 0 0 1 6-6h328a6 6 0 0 1 6 6v28a6 6 0 0 1-6 6H206a6 6 0 0 1-6-6z" stroke="#3a414a" fill="#54c45e"/><path d="M0 246a6 6 0 0 1 6-6h228a6 6 0 0 1 6 6v48a6 6 0 0 1-6 6H6a6 6 0 0 1-6-6z" stroke="#000" stroke-opacity="0" fill="#fff" fill-opacity="0"/><use xlink:href="#c" transform="matrix(1,0,0,1,5,245) translate(82.34567901234568 30.27777777777778)"/><use xlink:href="#d" transform="matrix(1,0,0,1,5,245) translate(100.8641975308642 30.27777777777778)"/><path d="M200 286a6 6 0 0 1 6-6h328a6 6 0 0 1 6 6v28a6 6 0 0 1-6 6H206a6 6 0 0 1-6-6z" stroke="#3a414a" fill="#54c45e"/><path d="M540 286a6 6 0 0 1 6-6h48a6 6 0 0 1 6 6v28a6 6 0 0 1-6 6h-48a6 6 0 0 1-6-6z" stroke="#3a414a" fill="#ffe342"/><path d="M0 466a6 6 0 0 1 6-6h228a6 6 0 0 1 6 6v48a6 6 0 0 1-6 6H6a6 6 0 0 1-6-6z" stroke="#000" stroke-opacity="0" fill="#fff" fill-opacity="0"/><use xlink:href="#e" transform="matrix(1,0,0,1,5,465) translate(82.34567901234568 30.27777777777778)"/><use xlink:href="#d" transform="matrix(1,0,0,1,5,465) translate(100.8641975308642 30.27777777777778)"/><path d="M200 386a6 6 0 0 1 6-6h168a6 6 0 0 1 6 6v28a6 6 0 0 1-6 6H206a6 6 0 0 1-6-6zM200 446a6 6 0 0 1 6-6h168a6 6 0 0 1 6 6v28a6 6 0 0 1-6 6H206a6 6 0 0 1-6-6zM200 506a6 6 0 0 1 6-6h168a6 6 0 0 1 6 6v28a6 6 0 0 1-6 6H206a6 6 0 0 1-6-6zM200 566a6 6 0 0 1 6-6h168a6 6 0 0 1 6 6v28a6 6 0 0 1-6 6H206a6 6 0 0 1-6-6z" stroke="#3a414a" fill="#54c45e"/><path d="M380 386a6 6 0 0 1 6-6h68a6 6 0 0 1 6 6v28a6 6 0 0 1-6 6h-68a6 6 0 0 1-6-6zM380 446a6 6 0 0 1 6-6h68a6 6 0 0 1 6 6v28a6 6 0 0 1-6 6h-68a6 6 0 0 1-6-6zM380 506a6 6 0 0 1 6-6h68a6 6 0 0 1 6 6v28a6 6 0 0 1-6 6h-68a6 6 0 0 1-6-6zM380 566a6 6 0 0 1 6-6h68a6 6 0 0 1 6 6v28a6 6 0 0 1-6 6h-68a6 6 0 0 1-6-6z" stroke="#3a414a" fill="#ffe342"/><path d="M640 500h240v60H640z" fill="none"/><use xlink:href="#f" transform="matrix(1,0,0,1,640,500) translate(57.746913580246925 34.44444444444444)"/><path d="M640 420h240v60H640z" fill="none"/><use xlink:href="#g" transform="matrix(1,0,0,1,640,420) translate(76.26543209876543 34.44444444444444)"/><path d="M498.26 632H82v-4h416.26zm459 0H561.74v-4h395.52z" stroke="#3a414a" stroke-width=".05" fill="#3a414a"/><path d="M82.05 632H80v-4h2.05z" stroke="#3a414a" stroke-width=".05" fill="#3a414a"/><path d="M973.53 630l-14.27 4.64v-9.28z" fill="#3a414a"/><path d="M980 630l-22.74 7.4v-14.8zm-18.74 1.88l5.8-1.88-5.8-1.88z" stroke="#3a414a" stroke-width=".05" fill="#3a414a"/><use xlink:href="#h" transform="matrix(1,0,0,1,498.2624743695027,614.020266815414) translate(0 21.30631091278142)"/><path d="M640 436a6 6 0 0 1 6-6h28a6 6 0 0 1 6 6v28a6 6 0 0 1-6 6h-28a6 6 0 0 1-6-6z" stroke="#3a414a" fill="#54c45e"/><path d="M640 516a6 6 0 0 1 6-6h28a6 6 0 0 1 6 6v28a6 6 0 0 1-6 6h-28a6 6 0 0 1-6-6z" stroke="#3a414a" fill="#ffe342"/><defs><path fill="#3a414a" d="M23 0v-37h61v-169l-59 37v-38l62-41h46v211h57V0H23" id="i"/><use transform="matrix(0.06172839506172839,0,0,0.06172839506172839,0,0)" xlink:href="#i" id="a"/><path fill="#3a414a" d="M67-125c0 53 21 87 73 88 37 1 54-22 65-47l45 17C233-25 199 4 140 4 58 4 20-42 15-125 8-235 124-281 211-232c18 10 29 29 36 50l-46 12c-8-25-30-41-62-41-52 0-71 34-72 86" id="j"/><path fill="#3a414a" d="M24-248c93 1 206-16 204 79-1 75-69 88-152 82V0H24v-248zm52 121c47 0 100 7 100-41 0-47-54-39-100-39v80" id="k"/><path fill="#3a414a" d="M238-95c0 69-44 99-111 99C63 4 22-25 22-93v-155h51v151c-1 38 19 59 55 60 90 1 49-130 58-211h52v153" id="l"/><g id="b"><use transform="matrix(0.06172839506172839,0,0,0.06172839506172839,0,0)" xlink:href="#j"/><use transform="matrix(0.06172839506172839,0,0,0.06172839506172839,15.987654320987653,0)" xlink:href="#k"/><use transform="matrix(0.06172839506172839,0,0,0.06172839506172839,30.80246913580247,0)" xlink:href="#l"/></g><path fill="#3a414a" d="M182-182c0 78-84 86-111 141h115V0H12c-6-101 99-100 120-180 1-22-12-31-33-32-23 0-32 14-35 34l-49-3c5-45 32-70 84-70 51 0 83 22 83 69" id="m"/><use transform="matrix(0.06172839506172839,0,0,0.06172839506172839,0,0)" xlink:href="#m" id="c"/><g id="d"><use transform="matrix(0.06172839506172839,0,0,0.06172839506172839,0,0)" xlink:href="#j"/><use transform="matrix(0.06172839506172839,0,0,0.06172839506172839,15.987654320987653,0)" xlink:href="#k"/><use transform="matrix(0.06172839506172839,0,0,0.06172839506172839,30.80246913580247,0)" xlink:href="#l"/></g><path fill="#3a414a" d="M165-50V0h-47v-50H5v-38l105-160h55v161h33v37h-33zm-47-37l2-116L46-87h72" id="n"/><use transform="matrix(0.06172839506172839,0,0,0.06172839506172839,0,0)" xlink:href="#n" id="e"/><path fill="#3a414a" d="M140-251c81 0 123 46 123 126C263-46 219 4 140 4 59 4 17-45 17-125s42-126 123-126zm0 227c63 0 89-41 89-101s-29-99-89-99c-61 0-89 39-89 99S79-25 140-24" id="o"/><path fill="#3a414a" d="M137 0h-34L2-248h35l83 218 83-218h36" id="p"/><path fill="#3a414a" d="M30 0v-248h187v28H63v79h144v27H63v87h162V0H30" id="q"/><path fill="#3a414a" d="M233-177c-1 41-23 64-60 70L243 0h-38l-65-103H63V0H30v-248c88 3 205-21 203 71zM63-129c60-2 137 13 137-47 0-61-80-42-137-45v92" id="r"/><path fill="#3a414a" d="M197 0v-115H63V0H30v-248h33v105h134v-105h34V0h-34" id="s"/><path fill="#3a414a" d="M205 0l-28-72H64L36 0H1l101-248h38L239 0h-34zm-38-99l-47-123c-12 45-31 82-46 123h93" id="t"/><path fill="#3a414a" d="M30-248c118-7 216 8 213 122C240-48 200 0 122 0H30v-248zM63-27c89 8 146-16 146-99s-60-101-146-95v194" id="u"/><g id="f"><use transform="matrix(0.06172839506172839,0,0,0.06172839506172839,0,0)" xlink:href="#o"/><use transform="matrix(0.06172839506172839,0,0,0.06172839506172839,17.28395061728395,0)" xlink:href="#p"/><use transform="matrix(0.06172839506172839,0,0,0.06172839506172839,32.09876543209876,0)" xlink:href="#q"/><use transform="matrix(0.06172839506172839,0,0,0.06172839506172839,46.91358024691357,0)" xlink:href="#r"/><use transform="matrix(0.06172839506172839,0,0,0.06172839506172839,62.90123456790122,0)" xlink:href="#s"/><use transform="matrix(0.06172839506172839,0,0,0.06172839506172839,78.88888888888887,0)" xlink:href="#q"/><use transform="matrix(0.06172839506172839,0,0,0.06172839506172839,93.70370370370368,0)" xlink:href="#t"/><use transform="matrix(0.06172839506172839,0,0,0.06172839506172839,108.51851851851849,0)" xlink:href="#u"/></g><path fill="#3a414a" d="M232-93c-1 65-40 97-104 97C67 4 28-28 28-90v-158h33c8 89-33 224 67 224 102 0 64-133 71-224h33v155" id="v"/><path fill="#3a414a" d="M185-189c-5-48-123-54-124 2 14 75 158 14 163 119 3 78-121 87-175 55-17-10-28-26-33-46l33-7c5 56 141 63 141-1 0-78-155-14-162-118-5-82 145-84 179-34 5 7 8 16 11 25" id="w"/><path fill="#3a414a" d="M63-220v92h138v28H63V0H30v-248h175v28H63" id="x"/><path fill="#3a414a" d="M30 0v-248h33v221h125V0H30" id="y"/><g id="g"><use transform="matrix(0.06172839506172839,0,0,0.06172839506172839,0,0)" xlink:href="#v"/><use transform="matrix(0.06172839506172839,0,0,0.06172839506172839,15.987654320987653,0)" xlink:href="#w"/><use transform="matrix(0.06172839506172839,0,0,0.06172839506172839,30.80246913580247,0)" xlink:href="#q"/><use transform="matrix(0.06172839506172839,0,0,0.06172839506172839,45.61728395061728,0)" xlink:href="#x"/><use transform="matrix(0.06172839506172839,0,0,0.06172839506172839,59.1358024691358,0)" xlink:href="#v"/><use transform="matrix(0.06172839506172839,0,0,0.06172839506172839,75.12345679012346,0)" xlink:href="#y"/></g><path fill="#333" d="M136-208V0H84v-208H4v-40h212v40h-80" id="z"/><path fill="#333" d="M24 0v-248h52V0H24" id="A"/><path fill="#333" d="M230 0l2-204L168 0h-37L68-204 70 0H24v-248h70l56 185 57-185h69V0h-46" id="B"/><path fill="#333" d="M24 0v-248h195v40H76v63h132v40H76v65h150V0H24" id="C"/><g id="h"><use transform="matrix(0.07398024622493549,0,0,0.07398024622493549,0,0)" xlink:href="#z"/><use transform="matrix(0.07398024622493549,0,0,0.07398024622493549,16.20167392326087,0)" xlink:href="#A"/><use transform="matrix(0.07398024622493549,0,0,0.07398024622493549,23.599698545754418,0)" xlink:href="#B"/><use transform="matrix(0.07398024622493549,0,0,0.07398024622493549,45.719792167010134,0)" xlink:href="#C"/></g></defs></g></svg>