<?xml version="1.0" encoding="UTF-8" standalone="no"?>
<svg
   xmlns:dc="http://purl.org/dc/elements/1.1/"
   xmlns:cc="http://creativecommons.org/ns#"
   xmlns:rdf="http://www.w3.org/1999/02/22-rdf-syntax-ns#"
   xmlns:svg="http://www.w3.org/2000/svg"
   xmlns="http://www.w3.org/2000/svg"
   xmlns:sodipodi="http://sodipodi.sourceforge.net/DTD/sodipodi-0.dtd"
   xmlns:inkscape="http://www.inkscape.org/namespaces/inkscape"
   width="100mm"
   height="100mm"
   viewBox="0 0 100 100"
   version="1.1"
   id="svg8"
   inkscape:version="1.0.2 (e86c870879, 2021-01-15)"
   sodipodi:docname="cluster_b.svg">
  <defs
     id="defs2">
    <linearGradient
       id="linearGradient850"
       y2="191.32001"
       gradientUnits="userSpaceOnUse"
       y1="339.76999"
       gradientTransform="scale(1.533,0.65232)"
       x2="312.91"
       x1="62.832001">
      <stop
         id="stop830"
         style="stop-color:#ffffff;stop-opacity:.525"
         offset="0" />
      <stop
         id="stop831"
         style="stop-color:#ffffff;stop-opacity:0"
         offset="1" />
    </linearGradient>
    <linearGradient
       id="linearGradient854"
       y2="332.17001"
       gradientUnits="userSpaceOnUse"
       x2="370.89999"
       gradientTransform="scale(1.2211,0.81893)"
       y1="332.17001"
       x1="109.53">
      <stop
         id="stop856"
         style="stop-color:#ffffff;stop-opacity:0"
         offset="0" />
      <stop
         id="stop857"
         style="stop-color:#5f0e00;stop-opacity:.41667"
         offset="1" />
    </linearGradient>
  </defs>
  <sodipodi:namedview
     id="base"
     pagecolor="#ffffff"
     bordercolor="#666666"
     borderopacity="1.0"
     inkscape:pageopacity="0.0"
     inkscape:pageshadow="2"
     inkscape:zoom="5.6"
     inkscape:cx="249.05902"
     inkscape:cy="156.57296"
     inkscape:document-units="mm"
     inkscape:current-layer="layer1"
     inkscape:document-rotation="0"
     showgrid="true"
     inkscape:window-width="2560"
     inkscape:window-height="1367"
     inkscape:window-x="0"
     inkscape:window-y="0"
     inkscape:window-maximized="1">
    <inkscape:grid
       type="axonomgrid"
       id="grid833" />
  </sodipodi:namedview>
  <metadata
     id="metadata5">
    <rdf:RDF>
      <cc:Work
         rdf:about="">
        <dc:format>image/svg+xml</dc:format>
        <dc:type
           rdf:resource="http://purl.org/dc/dcmitype/StillImage" />
        <dc:title></dc:title>
      </cc:Work>
    </rdf:RDF>
  </metadata>
  <g
     inkscape:label="Layer 1"
     inkscape:groupmode="layer"
     id="layer1">
    <path
       style="fill:#141414;stroke:#fffff4;stroke-width:0.264583px;stroke-linecap:butt;stroke-linejoin:miter;stroke-opacity:1;fill-opacity:1"
       d="M 69.282031,25 51.961523,34.999998 12.990381,12.5 34.641017,0 73.612157,22.5 Z"
       id="path835" />
    <path
       style="fill:#141414;stroke:#ffffff;stroke-width:0.264583px;stroke-linecap:butt;stroke-linejoin:miter;stroke-opacity:1;fill-opacity:1"
       d="m 12.990381,12.5 v 60 L 51.961523,94.999999 V 34.999998 Z"
       id="path837" />
    <path
       style="fill:#202020;stroke:#fffff0;stroke-width:0.264583px;stroke-linecap:butt;stroke-linejoin:miter;stroke-opacity:1;fill-opacity:1"
       d="M 73.612157,22.5 51.961523,34.999998 V 94.999999 L 73.612157,82.499998 Z"
       id="path839" />
    <path
       style="fill:#404040;fill-opacity:1;stroke:#fffff6;stroke-width:0.264583px;stroke-linecap:butt;stroke-linejoin:miter;stroke-opacity:1"
       d="M 51.96153,40.999998 C 73.612164,28.5 73.612164,28.5 73.612164,28.5 v 5 L 51.96153,45.999999 Z"
       id="path1205-3" />
    <path
       style="fill:#646464;fill-opacity:1;stroke:none;stroke-width:0.264583px;stroke-linecap:butt;stroke-linejoin:miter;stroke-opacity:1"
       d="m 52.827557,41.5 v 1 l 2.59807,-1.500002 V 40 Z"
       id="path1207-1-0" />
    <path
       style="fill:#0000ff;fill-opacity:1;stroke:none;stroke-width:0.264583px;stroke-linecap:butt;stroke-linejoin:miter;stroke-opacity:1"
       d="M 54.559607,40.499999 V 41.5 l 0.86602,-0.500002 V 40 Z"
       id="path1209-0-7" />
    <path
       style="fill:#646464;fill-opacity:1;stroke:none;stroke-width:0.264583px;stroke-linecap:butt;stroke-linejoin:miter;stroke-opacity:1"
       d="m 52.827556,43.5 v 1 l 2.59807,-1.500002 V 42 Z"
       id="path1207-6-8" />
    <path
       style="fill:#0000ff;fill-opacity:1;stroke:none;stroke-width:0.264583px;stroke-linecap:butt;stroke-linejoin:miter;stroke-opacity:1"
       d="M 54.559606,42.499999 V 43.5 l 0.86602,-0.500002 V 42 Z"
       id="path1209-3-6" />
    <path
       style="fill:#646464;fill-opacity:1;stroke:none;stroke-width:0.264583px;stroke-linecap:butt;stroke-linejoin:miter;stroke-opacity:1"
       d="m 56.291657,39.5 v 1 l 2.59807,-1.500002 V 38 Z"
       id="path1207-2-8" />
    <path
       style="fill:#0000ff;fill-opacity:1;stroke:none;stroke-width:0.264583px;stroke-linecap:butt;stroke-linejoin:miter;stroke-opacity:1"
       d="M 58.023707,38.499999 V 39.5 l 0.86602,-0.500002 V 38 Z"
       id="path1209-06-8" />
    <path
       style="fill:#646464;fill-opacity:1;stroke:none;stroke-width:0.264583px;stroke-linecap:butt;stroke-linejoin:miter;stroke-opacity:1"
       d="m 56.291658,41.5 v 1 l 2.59807,-1.500002 V 40 Z"
       id="path1207-15-4" />
    <path
       style="fill:#0000ff;fill-opacity:1;stroke:none;stroke-width:0.264583px;stroke-linecap:butt;stroke-linejoin:miter;stroke-opacity:1"
       d="M 58.023708,40.499999 V 41.5 l 0.86602,-0.500002 V 40 Z"
       id="path1209-5-3" />
    <path
       style="fill:#646464;fill-opacity:1;stroke:none;stroke-width:0.264583px;stroke-linecap:butt;stroke-linejoin:miter;stroke-opacity:1"
       d="m 59.75576,37.5 v 1 l 2.59807,-1.500002 V 36 Z"
       id="path1207-4-1" />
    <path
       style="fill:#0000ff;fill-opacity:1;stroke:none;stroke-width:0.264583px;stroke-linecap:butt;stroke-linejoin:miter;stroke-opacity:1"
       d="M 61.48781,36.499999 V 37.5 l 0.86602,-0.500002 V 36 Z"
       id="path1209-7-4" />
    <path
       style="fill:#646464;fill-opacity:1;stroke:none;stroke-width:0.264583px;stroke-linecap:butt;stroke-linejoin:miter;stroke-opacity:1"
       d="m 59.755759,39.5 v 1 l 2.59807,-1.500002 V 38 Z"
       id="path1207-65-9" />
    <path
       style="fill:#0000ff;fill-opacity:1;stroke:none;stroke-width:0.264583px;stroke-linecap:butt;stroke-linejoin:miter;stroke-opacity:1"
       d="M 61.487809,38.499999 V 39.5 l 0.86602,-0.500002 V 38 Z"
       id="path1209-6-2" />
    <path
       style="fill:#646464;fill-opacity:1;stroke:none;stroke-width:0.264583px;stroke-linecap:butt;stroke-linejoin:miter;stroke-opacity:1"
       d="m 63.219861,35.500001 v 1 l 2.59807,-1.500002 v -0.999998 z"
       id="path1207-9-0" />
    <path
       style="fill:#0000ff;fill-opacity:1;stroke:none;stroke-width:0.264583px;stroke-linecap:butt;stroke-linejoin:miter;stroke-opacity:1"
       d="m 64.951911,34.5 v 1.000001 l 0.86602,-0.500002 v -0.999998 z"
       id="path1209-37-6" />
    <path
       style="fill:#646464;fill-opacity:1;stroke:none;stroke-width:0.264583px;stroke-linecap:butt;stroke-linejoin:miter;stroke-opacity:1"
       d="m 63.219861,37.5 v 1 l 2.59807,-1.500002 V 36 Z"
       id="path1207-45-8" />
    <path
       style="fill:#0000ff;fill-opacity:1;stroke:none;stroke-width:0.264583px;stroke-linecap:butt;stroke-linejoin:miter;stroke-opacity:1"
       d="M 64.951911,36.499999 V 37.5 l 0.86602,-0.500002 V 36 Z"
       id="path1209-2-9" />
    <path
       style="fill:#646464;fill-opacity:1;stroke:none;stroke-width:0.264583px;stroke-linecap:butt;stroke-linejoin:miter;stroke-opacity:1"
       d="m 66.683963,33.5 v 1 l 2.59807,-1.500002 V 32 Z"
       id="path1207-5-2" />
    <path
       style="fill:#0000ff;fill-opacity:1;stroke:none;stroke-width:0.264583px;stroke-linecap:butt;stroke-linejoin:miter;stroke-opacity:1"
       d="M 68.416013,32.499999 V 33.5 l 0.86602,-0.500002 V 32 Z"
       id="path1209-4-6" />
    <path
       style="fill:#646464;fill-opacity:1;stroke:none;stroke-width:0.264583px;stroke-linecap:butt;stroke-linejoin:miter;stroke-opacity:1"
       d="m 66.683962,35.5 v 1 l 2.59807,-1.500002 V 34 Z"
       id="path1207-7-6" />
    <path
       style="fill:#0000ff;fill-opacity:1;stroke:none;stroke-width:0.264583px;stroke-linecap:butt;stroke-linejoin:miter;stroke-opacity:1"
       d="M 68.416012,34.499999 V 35.5 l 0.86602,-0.500002 V 34 Z"
       id="path1209-44-4" />
    <path
       style="fill:#00ff00;fill-opacity:1;stroke:none;stroke-width:0.264583px;stroke-linecap:butt;stroke-linejoin:miter;stroke-opacity:1"
       d="m 72.746138,30 v 1 l -0.866024,0.5 v -1 z"
       id="path1343-9" />
    <path
       style="fill:#ff0000;fill-opacity:1;stroke:none;stroke-width:0.264583px;stroke-linecap:butt;stroke-linejoin:miter;stroke-opacity:1"
       d="m 72.746138,32 v 0.999999 L 71.880114,33.5 v -1 z"
       id="path1345-5" />
    <path
       style="fill:#404040;fill-opacity:1;stroke:#fffff6;stroke-width:0.264583px;stroke-linecap:butt;stroke-linejoin:miter;stroke-opacity:1"
       d="M 51.96153,47.999998 C 73.612164,35.5 73.612164,35.5 73.612164,35.5 v 5 L 51.96153,52.999999 Z"
       id="path1205-0" />
    <path
       style="fill:#646464;fill-opacity:1;stroke:none;stroke-width:0.264583px;stroke-linecap:butt;stroke-linejoin:miter;stroke-opacity:1"
       d="m 52.827557,48.5 v 1 l 2.59807,-1.500002 V 47 Z"
       id="path1207-1-4" />
    <path
       style="fill:#0000ff;fill-opacity:1;stroke:none;stroke-width:0.264583px;stroke-linecap:butt;stroke-linejoin:miter;stroke-opacity:1"
       d="M 54.559607,47.499999 V 48.5 l 0.86602,-0.500002 V 47 Z"
       id="path1209-0-8" />
    <path
       style="fill:#646464;fill-opacity:1;stroke:none;stroke-width:0.264583px;stroke-linecap:butt;stroke-linejoin:miter;stroke-opacity:1"
       d="m 52.827556,50.5 v 1 l 2.59807,-1.500002 V 49 Z"
       id="path1207-6-7" />
    <path
       style="fill:#0000ff;fill-opacity:1;stroke:none;stroke-width:0.264583px;stroke-linecap:butt;stroke-linejoin:miter;stroke-opacity:1"
       d="M 54.559606,49.499999 V 50.5 l 0.86602,-0.500002 V 49 Z"
       id="path1209-3-1" />
    <path
       style="fill:#646464;fill-opacity:1;stroke:none;stroke-width:0.264583px;stroke-linecap:butt;stroke-linejoin:miter;stroke-opacity:1"
       d="m 56.291657,46.5 v 1 l 2.59807,-1.500002 V 45 Z"
       id="path1207-2-7" />
    <path
       style="fill:#0000ff;fill-opacity:1;stroke:none;stroke-width:0.264583px;stroke-linecap:butt;stroke-linejoin:miter;stroke-opacity:1"
       d="M 58.023707,45.499999 V 46.5 l 0.86602,-0.500002 V 45 Z"
       id="path1209-06-2" />
    <path
       style="fill:#646464;fill-opacity:1;stroke:none;stroke-width:0.264583px;stroke-linecap:butt;stroke-linejoin:miter;stroke-opacity:1"
       d="m 56.291658,48.5 v 1 l 2.59807,-1.500002 V 47 Z"
       id="path1207-15-7" />
    <path
       style="fill:#0000ff;fill-opacity:1;stroke:none;stroke-width:0.264583px;stroke-linecap:butt;stroke-linejoin:miter;stroke-opacity:1"
       d="M 58.023708,47.499999 V 48.5 l 0.86602,-0.500002 V 47 Z"
       id="path1209-5-2" />
    <path
       style="fill:#646464;fill-opacity:1;stroke:none;stroke-width:0.264583px;stroke-linecap:butt;stroke-linejoin:miter;stroke-opacity:1"
       d="m 59.75576,44.5 v 1 l 2.59807,-1.500002 V 43 Z"
       id="path1207-4-2" />
    <path
       style="fill:#0000ff;fill-opacity:1;stroke:none;stroke-width:0.264583px;stroke-linecap:butt;stroke-linejoin:miter;stroke-opacity:1"
       d="M 61.48781,43.499999 V 44.5 l 0.86602,-0.500002 V 43 Z"
       id="path1209-7-6" />
    <path
       style="fill:#646464;fill-opacity:1;stroke:none;stroke-width:0.264583px;stroke-linecap:butt;stroke-linejoin:miter;stroke-opacity:1"
       d="m 59.755759,46.5 v 1 l 2.59807,-1.500002 V 45 Z"
       id="path1207-65-1" />
    <path
       style="fill:#0000ff;fill-opacity:1;stroke:none;stroke-width:0.264583px;stroke-linecap:butt;stroke-linejoin:miter;stroke-opacity:1"
       d="M 61.487809,45.499999 V 46.5 l 0.86602,-0.500002 V 45 Z"
       id="path1209-6-0" />
    <path
       style="fill:#646464;fill-opacity:1;stroke:none;stroke-width:0.264583px;stroke-linecap:butt;stroke-linejoin:miter;stroke-opacity:1"
       d="m 63.219861,42.500001 v 1 l 2.59807,-1.500002 v -0.999998 z"
       id="path1207-9-6" />
    <path
       style="fill:#0000ff;fill-opacity:1;stroke:none;stroke-width:0.264583px;stroke-linecap:butt;stroke-linejoin:miter;stroke-opacity:1"
       d="m 64.951911,41.5 v 1.000001 l 0.86602,-0.500002 v -0.999998 z"
       id="path1209-37-1" />
    <path
       style="fill:#646464;fill-opacity:1;stroke:none;stroke-width:0.264583px;stroke-linecap:butt;stroke-linejoin:miter;stroke-opacity:1"
       d="m 63.219861,44.5 v 1 l 2.59807,-1.500002 V 43 Z"
       id="path1207-45-5" />
    <path
       style="fill:#0000ff;fill-opacity:1;stroke:none;stroke-width:0.264583px;stroke-linecap:butt;stroke-linejoin:miter;stroke-opacity:1"
       d="M 64.951911,43.499999 V 44.5 l 0.86602,-0.500002 V 43 Z"
       id="path1209-2-94" />
    <path
       style="fill:#646464;fill-opacity:1;stroke:none;stroke-width:0.264583px;stroke-linecap:butt;stroke-linejoin:miter;stroke-opacity:1"
       d="m 66.683963,40.5 v 1 l 2.59807,-1.500002 V 39 Z"
       id="path1207-5-9" />
    <path
       style="fill:#0000ff;fill-opacity:1;stroke:none;stroke-width:0.264583px;stroke-linecap:butt;stroke-linejoin:miter;stroke-opacity:1"
       d="M 68.416013,39.499999 V 40.5 l 0.86602,-0.500002 V 39 Z"
       id="path1209-4-0" />
    <path
       style="fill:#646464;fill-opacity:1;stroke:none;stroke-width:0.264583px;stroke-linecap:butt;stroke-linejoin:miter;stroke-opacity:1"
       d="m 66.683962,42.5 v 1 l 2.59807,-1.500002 V 41 Z"
       id="path1207-7-9" />
    <path
       style="fill:#0000ff;fill-opacity:1;stroke:none;stroke-width:0.264583px;stroke-linecap:butt;stroke-linejoin:miter;stroke-opacity:1"
       d="M 68.416012,41.499999 V 42.5 l 0.86602,-0.500002 V 41 Z"
       id="path1209-44-1" />
    <path
       style="fill:#00ff00;fill-opacity:1;stroke:none;stroke-width:0.264583px;stroke-linecap:butt;stroke-linejoin:miter;stroke-opacity:1"
       d="m 72.746138,37 v 1 l -0.866024,0.5 v -1 z"
       id="path1343-7" />
    <path
       style="fill:#ff0000;fill-opacity:1;stroke:none;stroke-width:0.264583px;stroke-linecap:butt;stroke-linejoin:miter;stroke-opacity:1"
       d="m 72.746138,39 v 0.999999 L 71.880114,40.5 v -1 z"
       id="path1345-7" />
    <path
       style="fill:#404040;fill-opacity:1;stroke:#fffff6;stroke-width:0.264583px;stroke-linecap:butt;stroke-linejoin:miter;stroke-opacity:1"
       d="M 51.961529,55 C 73.612162,42.500002 73.612162,42.500002 73.612162,42.500002 v 5 L 51.961529,60.000001 Z"
       id="path1205-1" />
    <path
       style="fill:#646464;fill-opacity:1;stroke:none;stroke-width:0.264583px;stroke-linecap:butt;stroke-linejoin:miter;stroke-opacity:1"
       d="m 52.827556,55.500002 v 1 L 55.425626,55 v -0.999998 z"
       id="path1207-1-1" />
    <path
       style="fill:#0000ff;fill-opacity:1;stroke:none;stroke-width:0.264583px;stroke-linecap:butt;stroke-linejoin:miter;stroke-opacity:1"
       d="m 54.559606,54.500001 v 1.000001 L 55.425626,55 v -0.999998 z"
       id="path1209-0-5" />
    <path
       style="fill:#646464;fill-opacity:1;stroke:none;stroke-width:0.264583px;stroke-linecap:butt;stroke-linejoin:miter;stroke-opacity:1"
       d="m 52.827555,57.500002 v 1 L 55.425625,57 v -0.999998 z"
       id="path1207-6-9" />
    <path
       style="fill:#0000ff;fill-opacity:1;stroke:none;stroke-width:0.264583px;stroke-linecap:butt;stroke-linejoin:miter;stroke-opacity:1"
       d="m 54.559605,56.500001 v 1.000001 L 55.425625,57 v -0.999998 z"
       id="path1209-3-7" />
    <path
       style="fill:#646464;fill-opacity:1;stroke:none;stroke-width:0.264583px;stroke-linecap:butt;stroke-linejoin:miter;stroke-opacity:1"
       d="m 56.291656,53.500002 v 1 L 58.889726,53 v -0.999998 z"
       id="path1207-2-76" />
    <path
       style="fill:#0000ff;fill-opacity:1;stroke:none;stroke-width:0.264583px;stroke-linecap:butt;stroke-linejoin:miter;stroke-opacity:1"
       d="m 58.023706,52.500001 v 1.000001 L 58.889726,53 v -0.999998 z"
       id="path1209-06-7" />
    <path
       style="fill:#646464;fill-opacity:1;stroke:none;stroke-width:0.264583px;stroke-linecap:butt;stroke-linejoin:miter;stroke-opacity:1"
       d="m 56.291657,55.500002 v 1 L 58.889727,55 v -0.999998 z"
       id="path1207-15-3" />
    <path
       style="fill:#0000ff;fill-opacity:1;stroke:none;stroke-width:0.264583px;stroke-linecap:butt;stroke-linejoin:miter;stroke-opacity:1"
       d="m 58.023707,54.500001 v 1.000001 L 58.889727,55 v -0.999998 z"
       id="path1209-5-6" />
    <path
       style="fill:#646464;fill-opacity:1;stroke:none;stroke-width:0.264583px;stroke-linecap:butt;stroke-linejoin:miter;stroke-opacity:1"
       d="m 59.755759,51.500002 v 1 L 62.353829,51 v -0.999998 z"
       id="path1207-4-5" />
    <path
       style="fill:#0000ff;fill-opacity:1;stroke:none;stroke-width:0.264583px;stroke-linecap:butt;stroke-linejoin:miter;stroke-opacity:1"
       d="m 61.487809,50.500001 v 1.000001 L 62.353829,51 v -0.999998 z"
       id="path1209-7-63" />
    <path
       style="fill:#646464;fill-opacity:1;stroke:none;stroke-width:0.264583px;stroke-linecap:butt;stroke-linejoin:miter;stroke-opacity:1"
       d="m 59.755758,53.500002 v 1 L 62.353828,53 v -0.999998 z"
       id="path1207-65-94" />
    <path
       style="fill:#0000ff;fill-opacity:1;stroke:none;stroke-width:0.264583px;stroke-linecap:butt;stroke-linejoin:miter;stroke-opacity:1"
       d="m 61.487808,52.500001 v 1.000001 L 62.353828,53 v -0.999998 z"
       id="path1209-6-8" />
    <path
       style="fill:#646464;fill-opacity:1;stroke:none;stroke-width:0.264583px;stroke-linecap:butt;stroke-linejoin:miter;stroke-opacity:1"
       d="m 63.21986,49.500003 v 1 l 2.59807,-1.500002 v -0.999998 z"
       id="path1207-9-1" />
    <path
       style="fill:#0000ff;fill-opacity:1;stroke:none;stroke-width:0.264583px;stroke-linecap:butt;stroke-linejoin:miter;stroke-opacity:1"
       d="m 64.95191,48.500002 v 1.000001 l 0.86602,-0.500002 v -0.999998 z"
       id="path1209-37-2" />
    <path
       style="fill:#646464;fill-opacity:1;stroke:none;stroke-width:0.264583px;stroke-linecap:butt;stroke-linejoin:miter;stroke-opacity:1"
       d="m 63.21986,51.500002 v 1 L 65.81793,51 v -0.999998 z"
       id="path1207-45-9" />
    <path
       style="fill:#0000ff;fill-opacity:1;stroke:none;stroke-width:0.264583px;stroke-linecap:butt;stroke-linejoin:miter;stroke-opacity:1"
       d="m 64.95191,50.500001 v 1.000001 L 65.81793,51 v -0.999998 z"
       id="path1209-2-3" />
    <path
       style="fill:#646464;fill-opacity:1;stroke:none;stroke-width:0.264583px;stroke-linecap:butt;stroke-linejoin:miter;stroke-opacity:1"
       d="m 66.683962,47.500002 v 1 L 69.282032,47 v -0.999998 z"
       id="path1207-5-90" />
    <path
       style="fill:#0000ff;fill-opacity:1;stroke:none;stroke-width:0.264583px;stroke-linecap:butt;stroke-linejoin:miter;stroke-opacity:1"
       d="m 68.416012,46.500001 v 1.000001 L 69.282032,47 v -0.999998 z"
       id="path1209-4-8" />
    <path
       style="fill:#646464;fill-opacity:1;stroke:none;stroke-width:0.264583px;stroke-linecap:butt;stroke-linejoin:miter;stroke-opacity:1"
       d="m 66.683961,49.500002 v 1 L 69.282031,49 v -0.999998 z"
       id="path1207-7-8" />
    <path
       style="fill:#0000ff;fill-opacity:1;stroke:none;stroke-width:0.264583px;stroke-linecap:butt;stroke-linejoin:miter;stroke-opacity:1"
       d="m 68.416011,48.500001 v 1.000001 L 69.282031,49 v -0.999998 z"
       id="path1209-44-5" />
    <path
       style="fill:#00ff00;fill-opacity:1;stroke:none;stroke-width:0.264583px;stroke-linecap:butt;stroke-linejoin:miter;stroke-opacity:1"
       d="m 72.746142,44.000002 v 1 l -0.866029,0.5 v -1 z"
       id="path1343-0" />
    <path
       style="fill:#ff0000;fill-opacity:1;stroke:none;stroke-width:0.264583px;stroke-linecap:butt;stroke-linejoin:miter;stroke-opacity:1"
       d="m 72.746142,46.000002 v 0.999999 l -0.866029,0.500001 v -1 z"
       id="path1345-9" />
    <path
       style="fill:#404040;fill-opacity:1;stroke:#fffff6;stroke-width:0.264583px;stroke-linecap:butt;stroke-linejoin:miter;stroke-opacity:1"
       d="M 51.96153,61.999998 C 73.612162,49.5 73.612162,49.5 73.612162,49.5 v 5 L 51.96153,66.999999 Z"
       id="path1205-6" />
    <path
       style="fill:#646464;fill-opacity:1;stroke:none;stroke-width:0.264583px;stroke-linecap:butt;stroke-linejoin:miter;stroke-opacity:1"
       d="m 52.827557,62.5 v 1 l 2.59807,-1.500002 V 61 Z"
       id="path1207-1-3" />
    <path
       style="fill:#0000ff;fill-opacity:1;stroke:none;stroke-width:0.264583px;stroke-linecap:butt;stroke-linejoin:miter;stroke-opacity:1"
       d="M 54.559607,61.499999 V 62.5 l 0.86602,-0.500002 V 61 Z"
       id="path1209-0-85" />
    <path
       style="fill:#646464;fill-opacity:1;stroke:none;stroke-width:0.264583px;stroke-linecap:butt;stroke-linejoin:miter;stroke-opacity:1"
       d="m 52.827556,64.5 v 1 l 2.59807,-1.500002 V 63 Z"
       id="path1207-6-6" />
    <path
       style="fill:#0000ff;fill-opacity:1;stroke:none;stroke-width:0.264583px;stroke-linecap:butt;stroke-linejoin:miter;stroke-opacity:1"
       d="M 54.559606,63.499999 V 64.5 l 0.86602,-0.500002 V 63 Z"
       id="path1209-3-11" />
    <path
       style="fill:#646464;fill-opacity:1;stroke:none;stroke-width:0.264583px;stroke-linecap:butt;stroke-linejoin:miter;stroke-opacity:1"
       d="m 56.291657,60.5 v 1 l 2.59807,-1.500002 V 59 Z"
       id="path1207-2-5" />
    <path
       style="fill:#0000ff;fill-opacity:1;stroke:none;stroke-width:0.264583px;stroke-linecap:butt;stroke-linejoin:miter;stroke-opacity:1"
       d="M 58.023707,59.499999 V 60.5 l 0.86602,-0.500002 V 59 Z"
       id="path1209-06-9" />
    <path
       style="fill:#646464;fill-opacity:1;stroke:none;stroke-width:0.264583px;stroke-linecap:butt;stroke-linejoin:miter;stroke-opacity:1"
       d="m 56.291658,62.5 v 1 l 2.59807,-1.500002 V 61 Z"
       id="path1207-15-8" />
    <path
       style="fill:#0000ff;fill-opacity:1;stroke:none;stroke-width:0.264583px;stroke-linecap:butt;stroke-linejoin:miter;stroke-opacity:1"
       d="M 58.023708,61.499999 V 62.5 l 0.86602,-0.500002 V 61 Z"
       id="path1209-5-4" />
    <path
       style="fill:#646464;fill-opacity:1;stroke:none;stroke-width:0.264583px;stroke-linecap:butt;stroke-linejoin:miter;stroke-opacity:1"
       d="m 59.75576,58.5 v 1 l 2.59807,-1.500002 V 57 Z"
       id="path1207-4-8" />
    <path
       style="fill:#0000ff;fill-opacity:1;stroke:none;stroke-width:0.264583px;stroke-linecap:butt;stroke-linejoin:miter;stroke-opacity:1"
       d="M 61.48781,57.499999 V 58.5 l 0.86602,-0.500002 V 57 Z"
       id="path1209-7-1" />
    <path
       style="fill:#646464;fill-opacity:1;stroke:none;stroke-width:0.264583px;stroke-linecap:butt;stroke-linejoin:miter;stroke-opacity:1"
       d="m 59.755759,60.5 v 1 l 2.59807,-1.500002 V 59 Z"
       id="path1207-65-0" />
    <path
       style="fill:#0000ff;fill-opacity:1;stroke:none;stroke-width:0.264583px;stroke-linecap:butt;stroke-linejoin:miter;stroke-opacity:1"
       d="M 61.487809,59.499999 V 60.5 l 0.86602,-0.500002 V 59 Z"
       id="path1209-6-3" />
    <path
       style="fill:#646464;fill-opacity:1;stroke:none;stroke-width:0.264583px;stroke-linecap:butt;stroke-linejoin:miter;stroke-opacity:1"
       d="m 63.219861,56.500001 v 1 l 2.59807,-1.500002 v -0.999998 z"
       id="path1207-9-04" />
    <path
       style="fill:#0000ff;fill-opacity:1;stroke:none;stroke-width:0.264583px;stroke-linecap:butt;stroke-linejoin:miter;stroke-opacity:1"
       d="m 64.951911,55.5 v 1.000001 l 0.86602,-0.500002 v -0.999998 z"
       id="path1209-37-4" />
    <path
       style="fill:#646464;fill-opacity:1;stroke:none;stroke-width:0.264583px;stroke-linecap:butt;stroke-linejoin:miter;stroke-opacity:1"
       d="m 63.219861,58.5 v 1 l 2.59807,-1.500002 V 57 Z"
       id="path1207-45-4" />
    <path
       style="fill:#0000ff;fill-opacity:1;stroke:none;stroke-width:0.264583px;stroke-linecap:butt;stroke-linejoin:miter;stroke-opacity:1"
       d="M 64.951911,57.499999 V 58.5 l 0.86602,-0.500002 V 57 Z"
       id="path1209-2-4" />
    <path
       style="fill:#646464;fill-opacity:1;stroke:none;stroke-width:0.264583px;stroke-linecap:butt;stroke-linejoin:miter;stroke-opacity:1"
       d="m 66.683963,54.5 v 1 l 2.59807,-1.500002 V 53 Z"
       id="path1207-5-7" />
    <path
       style="fill:#0000ff;fill-opacity:1;stroke:none;stroke-width:0.264583px;stroke-linecap:butt;stroke-linejoin:miter;stroke-opacity:1"
       d="M 68.416013,53.499999 V 54.5 l 0.86602,-0.500002 V 53 Z"
       id="path1209-4-63" />
    <path
       style="fill:#646464;fill-opacity:1;stroke:none;stroke-width:0.264583px;stroke-linecap:butt;stroke-linejoin:miter;stroke-opacity:1"
       d="m 66.683962,56.5 v 1 l 2.59807,-1.500002 V 55 Z"
       id="path1207-7-1" />
    <path
       style="fill:#0000ff;fill-opacity:1;stroke:none;stroke-width:0.264583px;stroke-linecap:butt;stroke-linejoin:miter;stroke-opacity:1"
       d="M 68.416012,55.499999 V 56.5 l 0.86602,-0.500002 V 55 Z"
       id="path1209-44-7" />
    <path
       style="fill:#00ff00;fill-opacity:1;stroke:none;stroke-width:0.264583px;stroke-linecap:butt;stroke-linejoin:miter;stroke-opacity:1"
       d="m 72.746142,51 v 1 l -0.86603,0.5 v -1 z"
       id="path1343-5" />
    <path
       style="fill:#ff0000;fill-opacity:1;stroke:none;stroke-width:0.264583px;stroke-linecap:butt;stroke-linejoin:miter;stroke-opacity:1"
       d="m 72.746142,53 v 0.999999 L 71.880112,54.5 v -1 z"
       id="path1345-96" />
    <path
       style="fill:#404040;fill-opacity:1;stroke:#fffff6;stroke-width:0.264583px;stroke-linecap:butt;stroke-linejoin:miter;stroke-opacity:1"
       d="M 51.961529,69 C 73.612167,56.500002 73.612167,56.500002 73.612167,56.500002 v 5 L 51.961529,74.000001 Z"
       id="path1205-2" />
    <path
       style="fill:#646464;fill-opacity:1;stroke:none;stroke-width:0.264583px;stroke-linecap:butt;stroke-linejoin:miter;stroke-opacity:1"
       d="m 52.827556,69.500002 v 1 L 55.425626,69 v -0.999998 z"
       id="path1207-1-17" />
    <path
       style="fill:#0000ff;fill-opacity:1;stroke:none;stroke-width:0.264583px;stroke-linecap:butt;stroke-linejoin:miter;stroke-opacity:1"
       d="m 54.559606,68.500001 v 1.000001 L 55.425626,69 v -0.999998 z"
       id="path1209-0-857" />
    <path
       style="fill:#646464;fill-opacity:1;stroke:none;stroke-width:0.264583px;stroke-linecap:butt;stroke-linejoin:miter;stroke-opacity:1"
       d="m 52.827555,71.500002 v 1 L 55.425625,71 v -0.999998 z"
       id="path1207-6-4" />
    <path
       style="fill:#0000ff;fill-opacity:1;stroke:none;stroke-width:0.264583px;stroke-linecap:butt;stroke-linejoin:miter;stroke-opacity:1"
       d="m 54.559605,70.500001 v 1.000001 L 55.425625,71 v -0.999998 z"
       id="path1209-3-18" />
    <path
       style="fill:#646464;fill-opacity:1;stroke:none;stroke-width:0.264583px;stroke-linecap:butt;stroke-linejoin:miter;stroke-opacity:1"
       d="m 56.291656,67.500002 v 1 L 58.889726,67 v -0.999998 z"
       id="path1207-2-59" />
    <path
       style="fill:#0000ff;fill-opacity:1;stroke:none;stroke-width:0.264583px;stroke-linecap:butt;stroke-linejoin:miter;stroke-opacity:1"
       d="m 58.023706,66.500001 v 1.000001 L 58.889726,67 v -0.999998 z"
       id="path1209-06-75" />
    <path
       style="fill:#646464;fill-opacity:1;stroke:none;stroke-width:0.264583px;stroke-linecap:butt;stroke-linejoin:miter;stroke-opacity:1"
       d="m 56.291657,69.500002 v 1 L 58.889727,69 v -0.999998 z"
       id="path1207-15-38" />
    <path
       style="fill:#0000ff;fill-opacity:1;stroke:none;stroke-width:0.264583px;stroke-linecap:butt;stroke-linejoin:miter;stroke-opacity:1"
       d="m 58.023707,68.500001 v 1.000001 L 58.889727,69 v -0.999998 z"
       id="path1209-5-8" />
    <path
       style="fill:#646464;fill-opacity:1;stroke:none;stroke-width:0.264583px;stroke-linecap:butt;stroke-linejoin:miter;stroke-opacity:1"
       d="m 59.755759,65.500002 v 1 L 62.353829,65 v -0.999998 z"
       id="path1207-4-3" />
    <path
       style="fill:#0000ff;fill-opacity:1;stroke:none;stroke-width:0.264583px;stroke-linecap:butt;stroke-linejoin:miter;stroke-opacity:1"
       d="m 61.487809,64.500001 v 1.000001 L 62.353829,65 v -0.999998 z"
       id="path1209-7-18" />
    <path
       style="fill:#646464;fill-opacity:1;stroke:none;stroke-width:0.264583px;stroke-linecap:butt;stroke-linejoin:miter;stroke-opacity:1"
       d="m 59.755758,67.500002 v 1 L 62.353828,67 v -0.999998 z"
       id="path1207-65-96" />
    <path
       style="fill:#0000ff;fill-opacity:1;stroke:none;stroke-width:0.264583px;stroke-linecap:butt;stroke-linejoin:miter;stroke-opacity:1"
       d="m 61.487808,66.500001 v 1.000001 L 62.353828,67 v -0.999998 z"
       id="path1209-6-4" />
    <path
       style="fill:#646464;fill-opacity:1;stroke:none;stroke-width:0.264583px;stroke-linecap:butt;stroke-linejoin:miter;stroke-opacity:1"
       d="m 63.21986,63.500003 v 1 l 2.59807,-1.500002 v -0.999998 z"
       id="path1207-9-3" />
    <path
       style="fill:#0000ff;fill-opacity:1;stroke:none;stroke-width:0.264583px;stroke-linecap:butt;stroke-linejoin:miter;stroke-opacity:1"
       d="m 64.95191,62.500002 v 1.000001 l 0.86602,-0.500002 v -0.999998 z"
       id="path1209-37-3" />
    <path
       style="fill:#646464;fill-opacity:1;stroke:none;stroke-width:0.264583px;stroke-linecap:butt;stroke-linejoin:miter;stroke-opacity:1"
       d="m 63.21986,65.500002 v 1 L 65.81793,65 v -0.999998 z"
       id="path1207-45-3" />
    <path
       style="fill:#0000ff;fill-opacity:1;stroke:none;stroke-width:0.264583px;stroke-linecap:butt;stroke-linejoin:miter;stroke-opacity:1"
       d="m 64.95191,64.500001 v 1.000001 L 65.81793,65 v -0.999998 z"
       id="path1209-2-8" />
    <path
       style="fill:#646464;fill-opacity:1;stroke:none;stroke-width:0.264583px;stroke-linecap:butt;stroke-linejoin:miter;stroke-opacity:1"
       d="m 66.683962,61.500002 v 1 L 69.282032,61 v -0.999998 z"
       id="path1207-5-6" />
    <path
       style="fill:#0000ff;fill-opacity:1;stroke:none;stroke-width:0.264583px;stroke-linecap:butt;stroke-linejoin:miter;stroke-opacity:1"
       d="m 68.416012,60.500001 v 1.000001 L 69.282032,61 v -0.999998 z"
       id="path1209-4-04" />
    <path
       style="fill:#646464;fill-opacity:1;stroke:none;stroke-width:0.264583px;stroke-linecap:butt;stroke-linejoin:miter;stroke-opacity:1"
       d="m 66.683961,63.500002 v 1 L 69.282031,63 v -0.999998 z"
       id="path1207-7-88" />
    <path
       style="fill:#0000ff;fill-opacity:1;stroke:none;stroke-width:0.264583px;stroke-linecap:butt;stroke-linejoin:miter;stroke-opacity:1"
       d="m 68.416011,62.500001 v 1.000001 L 69.282031,63 v -0.999998 z"
       id="path1209-44-8" />
    <path
       style="fill:#00ff00;fill-opacity:1;stroke:none;stroke-width:0.264583px;stroke-linecap:butt;stroke-linejoin:miter;stroke-opacity:1"
       d="m 72.746137,58.000002 v 1 l -0.866024,0.5 v -1 z"
       id="path1343-97" />
    <path
       style="fill:#ff0000;fill-opacity:1;stroke:none;stroke-width:0.264583px;stroke-linecap:butt;stroke-linejoin:miter;stroke-opacity:1"
       d="m 72.746137,60.000002 v 0.999999 l -0.866024,0.500001 v -1 z"
       id="path1345-76" />
    <path
       style="fill:#404040;fill-opacity:1;stroke:#fffff6;stroke-width:0.264583px;stroke-linecap:butt;stroke-linejoin:miter;stroke-opacity:1"
       d="M 51.96153,75.999998 C 73.612162,63.5 73.612162,63.5 73.612162,63.5 v 5 L 51.96153,80.999999 Z"
       id="path1205-4" />
    <path
       style="fill:#646464;fill-opacity:1;stroke:none;stroke-width:0.264583px;stroke-linecap:butt;stroke-linejoin:miter;stroke-opacity:1"
       d="m 52.827557,76.5 v 1 l 2.59807,-1.500002 V 75 Z"
       id="path1207-1-30" />
    <path
       style="fill:#0000ff;fill-opacity:1;stroke:none;stroke-width:0.264583px;stroke-linecap:butt;stroke-linejoin:miter;stroke-opacity:1"
       d="M 54.559607,75.499999 V 76.5 l 0.86602,-0.500002 V 75 Z"
       id="path1209-0-3" />
    <path
       style="fill:#646464;fill-opacity:1;stroke:none;stroke-width:0.264583px;stroke-linecap:butt;stroke-linejoin:miter;stroke-opacity:1"
       d="m 52.827556,78.5 v 1 l 2.59807,-1.500002 V 77 Z"
       id="path1207-6-0" />
    <path
       style="fill:#0000ff;fill-opacity:1;stroke:none;stroke-width:0.264583px;stroke-linecap:butt;stroke-linejoin:miter;stroke-opacity:1"
       d="M 54.559606,77.499999 V 78.5 l 0.86602,-0.500002 V 77 Z"
       id="path1209-3-9" />
    <path
       style="fill:#646464;fill-opacity:1;stroke:none;stroke-width:0.264583px;stroke-linecap:butt;stroke-linejoin:miter;stroke-opacity:1"
       d="m 56.291657,74.5 v 1 l 2.59807,-1.500002 V 73 Z"
       id="path1207-2-2" />
    <path
       style="fill:#0000ff;fill-opacity:1;stroke:none;stroke-width:0.264583px;stroke-linecap:butt;stroke-linejoin:miter;stroke-opacity:1"
       d="M 58.023707,73.499999 V 74.5 l 0.86602,-0.500002 V 73 Z"
       id="path1209-06-5" />
    <path
       style="fill:#646464;fill-opacity:1;stroke:none;stroke-width:0.264583px;stroke-linecap:butt;stroke-linejoin:miter;stroke-opacity:1"
       d="m 56.291658,76.5 v 1 l 2.59807,-1.500002 V 75 Z"
       id="path1207-15-40" />
    <path
       style="fill:#0000ff;fill-opacity:1;stroke:none;stroke-width:0.264583px;stroke-linecap:butt;stroke-linejoin:miter;stroke-opacity:1"
       d="M 58.023708,75.499999 V 76.5 l 0.86602,-0.500002 V 75 Z"
       id="path1209-5-5" />
    <path
       style="fill:#646464;fill-opacity:1;stroke:none;stroke-width:0.264583px;stroke-linecap:butt;stroke-linejoin:miter;stroke-opacity:1"
       d="m 59.75576,72.5 v 1 l 2.59807,-1.500002 V 71 Z"
       id="path1207-4-9" />
    <path
       style="fill:#0000ff;fill-opacity:1;stroke:none;stroke-width:0.264583px;stroke-linecap:butt;stroke-linejoin:miter;stroke-opacity:1"
       d="M 61.48781,71.499999 V 72.5 l 0.86602,-0.500002 V 71 Z"
       id="path1209-7-46" />
    <path
       style="fill:#646464;fill-opacity:1;stroke:none;stroke-width:0.264583px;stroke-linecap:butt;stroke-linejoin:miter;stroke-opacity:1"
       d="m 59.755759,74.5 v 1 l 2.59807,-1.500002 V 73 Z"
       id="path1207-65-92" />
    <path
       style="fill:#0000ff;fill-opacity:1;stroke:none;stroke-width:0.264583px;stroke-linecap:butt;stroke-linejoin:miter;stroke-opacity:1"
       d="M 61.487809,73.499999 V 74.5 l 0.86602,-0.500002 V 73 Z"
       id="path1209-6-24" />
    <path
       style="fill:#646464;fill-opacity:1;stroke:none;stroke-width:0.264583px;stroke-linecap:butt;stroke-linejoin:miter;stroke-opacity:1"
       d="m 63.219861,70.500001 v 1 l 2.59807,-1.500002 v -0.999998 z"
       id="path1207-9-7" />
    <path
       style="fill:#0000ff;fill-opacity:1;stroke:none;stroke-width:0.264583px;stroke-linecap:butt;stroke-linejoin:miter;stroke-opacity:1"
       d="m 64.951911,69.5 v 1.000001 l 0.86602,-0.500002 v -0.999998 z"
       id="path1209-37-7" />
    <path
       style="fill:#646464;fill-opacity:1;stroke:none;stroke-width:0.264583px;stroke-linecap:butt;stroke-linejoin:miter;stroke-opacity:1"
       d="m 63.219861,72.5 v 1 l 2.59807,-1.500002 V 71 Z"
       id="path1207-45-54" />
    <path
       style="fill:#0000ff;fill-opacity:1;stroke:none;stroke-width:0.264583px;stroke-linecap:butt;stroke-linejoin:miter;stroke-opacity:1"
       d="M 64.951911,71.499999 V 72.5 l 0.86602,-0.500002 V 71 Z"
       id="path1209-2-81" />
    <path
       style="fill:#646464;fill-opacity:1;stroke:none;stroke-width:0.264583px;stroke-linecap:butt;stroke-linejoin:miter;stroke-opacity:1"
       d="m 66.683963,68.5 v 1 l 2.59807,-1.500002 V 67 Z"
       id="path1207-5-28" />
    <path
       style="fill:#0000ff;fill-opacity:1;stroke:none;stroke-width:0.264583px;stroke-linecap:butt;stroke-linejoin:miter;stroke-opacity:1"
       d="M 68.416013,67.499999 V 68.5 l 0.86602,-0.500002 V 67 Z"
       id="path1209-4-9" />
    <path
       style="fill:#646464;fill-opacity:1;stroke:none;stroke-width:0.264583px;stroke-linecap:butt;stroke-linejoin:miter;stroke-opacity:1"
       d="m 66.683962,70.5 v 1 l 2.59807,-1.500002 V 69 Z"
       id="path1207-7-3" />
    <path
       style="fill:#0000ff;fill-opacity:1;stroke:none;stroke-width:0.264583px;stroke-linecap:butt;stroke-linejoin:miter;stroke-opacity:1"
       d="M 68.416012,69.499999 V 70.5 l 0.86602,-0.500002 V 69 Z"
       id="path1209-44-6" />
    <path
       style="fill:#00ff00;fill-opacity:1;stroke:none;stroke-width:0.264583px;stroke-linecap:butt;stroke-linejoin:miter;stroke-opacity:1"
       d="m 72.746142,65 v 1 l -0.86603,0.5 v -1 z"
       id="path1343-8" />
    <path
       style="fill:#ff0000;fill-opacity:1;stroke:none;stroke-width:0.264583px;stroke-linecap:butt;stroke-linejoin:miter;stroke-opacity:1"
       d="m 72.746142,67 v 0.999999 L 71.880112,68.5 v -1 z"
       id="path1345-0" />
    <path
       style="fill:#404040;fill-opacity:1;stroke:#fffff6;stroke-width:0.264583px;stroke-linecap:butt;stroke-linejoin:miter;stroke-opacity:1"
       d="M 51.961529,83 C 73.612166,70.500002 73.612166,70.500002 73.612166,70.500002 v 5 L 51.961529,88.000001 Z"
       id="path1205-21" />
    <path
       style="fill:#646464;fill-opacity:1;stroke:none;stroke-width:0.264583px;stroke-linecap:butt;stroke-linejoin:miter;stroke-opacity:1"
       d="m 52.827556,83.500002 v 1 L 55.425626,83 v -0.999998 z"
       id="path1207-1-05" />
    <path
       style="fill:#0000ff;fill-opacity:1;stroke:none;stroke-width:0.264583px;stroke-linecap:butt;stroke-linejoin:miter;stroke-opacity:1"
       d="m 54.559606,82.500001 v 1.000001 L 55.425626,83 v -0.999998 z"
       id="path1209-0-1" />
    <path
       style="fill:#646464;fill-opacity:1;stroke:none;stroke-width:0.264583px;stroke-linecap:butt;stroke-linejoin:miter;stroke-opacity:1"
       d="m 52.827555,85.500002 v 1 L 55.425625,85 v -0.999998 z"
       id="path1207-6-1" />
    <path
       style="fill:#0000ff;fill-opacity:1;stroke:none;stroke-width:0.264583px;stroke-linecap:butt;stroke-linejoin:miter;stroke-opacity:1"
       d="m 54.559605,84.500001 v 1.000001 L 55.425625,85 v -0.999998 z"
       id="path1209-3-0" />
    <path
       style="fill:#646464;fill-opacity:1;stroke:none;stroke-width:0.264583px;stroke-linecap:butt;stroke-linejoin:miter;stroke-opacity:1"
       d="m 56.291656,81.500002 v 1 L 58.889726,81 v -0.999998 z"
       id="path1207-2-85" />
    <path
       style="fill:#0000ff;fill-opacity:1;stroke:none;stroke-width:0.264583px;stroke-linecap:butt;stroke-linejoin:miter;stroke-opacity:1"
       d="m 58.023706,80.500001 v 1.000001 L 58.889726,81 v -0.999998 z"
       id="path1209-06-0" />
    <path
       style="fill:#646464;fill-opacity:1;stroke:none;stroke-width:0.264583px;stroke-linecap:butt;stroke-linejoin:miter;stroke-opacity:1"
       d="m 56.291657,83.500002 v 1 L 58.889727,83 v -0.999998 z"
       id="path1207-15-6" />
    <path
       style="fill:#0000ff;fill-opacity:1;stroke:none;stroke-width:0.264583px;stroke-linecap:butt;stroke-linejoin:miter;stroke-opacity:1"
       d="m 58.023707,82.500001 v 1.000001 L 58.889727,83 v -0.999998 z"
       id="path1209-5-46" />
    <path
       style="fill:#646464;fill-opacity:1;stroke:none;stroke-width:0.264583px;stroke-linecap:butt;stroke-linejoin:miter;stroke-opacity:1"
       d="m 59.755759,79.500002 v 1 L 62.353829,79 v -0.999998 z"
       id="path1207-4-25" />
    <path
       style="fill:#0000ff;fill-opacity:1;stroke:none;stroke-width:0.264583px;stroke-linecap:butt;stroke-linejoin:miter;stroke-opacity:1"
       d="m 61.487809,78.500001 v 1.000001 L 62.353829,79 v -0.999998 z"
       id="path1209-7-8" />
    <path
       style="fill:#646464;fill-opacity:1;stroke:none;stroke-width:0.264583px;stroke-linecap:butt;stroke-linejoin:miter;stroke-opacity:1"
       d="m 59.755758,81.500002 v 1 L 62.353828,81 v -0.999998 z"
       id="path1207-65-6" />
    <path
       style="fill:#0000ff;fill-opacity:1;stroke:none;stroke-width:0.264583px;stroke-linecap:butt;stroke-linejoin:miter;stroke-opacity:1"
       d="m 61.487808,80.500001 v 1.000001 L 62.353828,81 v -0.999998 z"
       id="path1209-6-28" />
    <path
       style="fill:#646464;fill-opacity:1;stroke:none;stroke-width:0.264583px;stroke-linecap:butt;stroke-linejoin:miter;stroke-opacity:1"
       d="m 63.21986,77.500003 v 1 l 2.59807,-1.500002 v -0.999998 z"
       id="path1207-9-4" />
    <path
       style="fill:#0000ff;fill-opacity:1;stroke:none;stroke-width:0.264583px;stroke-linecap:butt;stroke-linejoin:miter;stroke-opacity:1"
       d="m 64.95191,76.500002 v 1.000001 l 0.86602,-0.500002 v -0.999998 z"
       id="path1209-37-72" />
    <path
       style="fill:#646464;fill-opacity:1;stroke:none;stroke-width:0.264583px;stroke-linecap:butt;stroke-linejoin:miter;stroke-opacity:1"
       d="m 63.21986,79.500002 v 1 L 65.81793,79 v -0.999998 z"
       id="path1207-45-40" />
    <path
       style="fill:#0000ff;fill-opacity:1;stroke:none;stroke-width:0.264583px;stroke-linecap:butt;stroke-linejoin:miter;stroke-opacity:1"
       d="m 64.95191,78.500001 v 1.000001 L 65.81793,79 v -0.999998 z"
       id="path1209-2-6" />
    <path
       style="fill:#646464;fill-opacity:1;stroke:none;stroke-width:0.264583px;stroke-linecap:butt;stroke-linejoin:miter;stroke-opacity:1"
       d="m 66.683962,75.500002 v 1 L 69.282032,75 v -0.999998 z"
       id="path1207-5-29" />
    <path
       style="fill:#0000ff;fill-opacity:1;stroke:none;stroke-width:0.264583px;stroke-linecap:butt;stroke-linejoin:miter;stroke-opacity:1"
       d="m 68.416012,74.500001 v 1.000001 L 69.282032,75 v -0.999998 z"
       id="path1209-4-90" />
    <path
       style="fill:#646464;fill-opacity:1;stroke:none;stroke-width:0.264583px;stroke-linecap:butt;stroke-linejoin:miter;stroke-opacity:1"
       d="m 66.683961,77.500002 v 1 L 69.282031,77 v -0.999998 z"
       id="path1207-7-81" />
    <path
       style="fill:#0000ff;fill-opacity:1;stroke:none;stroke-width:0.264583px;stroke-linecap:butt;stroke-linejoin:miter;stroke-opacity:1"
       d="m 68.416011,76.500001 v 1.000001 L 69.282031,77 v -0.999998 z"
       id="path1209-44-3" />
    <path
       style="fill:#00ff00;fill-opacity:1;stroke:none;stroke-width:0.264583px;stroke-linecap:butt;stroke-linejoin:miter;stroke-opacity:1"
       d="m 72.746136,72.000002 v 1 l -0.86602,0.5 v -1 z"
       id="path1343-1" />
    <path
       style="fill:#ff0000;fill-opacity:1;stroke:none;stroke-width:0.264583px;stroke-linecap:butt;stroke-linejoin:miter;stroke-opacity:1"
       d="m 72.746136,74.000002 v 0.999999 l -0.86602,0.500001 v -1 z"
       id="path1345-1" />
    <g
       id="g845"
       transform="matrix(0.02030594,0,0,0.01937207,54.441757,20.904979)">
      <path
         id="path847"
         inkscape:connector-curvature="0"
         sodipodi:nodetypes="cccccccccc"
         style="fill:#ffe200;fill-rule:evenodd;stroke:#000000;stroke-width:10;stroke-linejoin:round"
         d="M 388.75,93.75 C 370,76.25 420,63.75 426.25,70 c 10,5 -8.75,8.75 -7.5,17.5 1.25,8.75 0,55 10,57.5 10,2.5 22.5,11.25 22.5,23.75 C 482.5,246.25 360,458.75 70,352.5 65,348.75 37.5,317.5 32.5,310 30,301.25 26.25,280 41.25,272.5 170,238.75 318.75,305 386.25,153.75 c 11.25,-26.25 2.5,-60 2.5,-60 z" />
      <path
         id="path849"
         inkscape:connector-curvature="0"
         sodipodi:nodetypes="cccc"
         style="fill:url(#linearGradient850);fill-rule:evenodd;stroke-width:1pt"
         d="m 43.75,290 2.5,-12.5 C 138.75,242.5 310,316.25 392.5,157.5 351.25,270 278.75,338.75 43.75,290 Z" />
      <path
         id="path851"
         inkscape:connector-curvature="0"
         sodipodi:nodetypes="ccc"
         style="fill:#442400;fill-rule:evenodd;stroke-width:1pt"
         d="m 386.15,89.136 c 2.92,-17.6 29.12,-18.073 36.45,-18.944 11.98,1.566 -15.49,21.444 -36.45,18.944 z" />
      <path
         id="path852"
         inkscape:connector-curvature="0"
         sodipodi:nodetypes="ccc"
         style="fill:#442400;fill-rule:evenodd;stroke-width:1pt"
         d="m 32.518,305.14 c -0.933,-18.37 -1.866,-24.43 8.743,-30.49 4.617,6.93 3.75,28.37 -8.743,30.49 z" />
      <path
         id="path853"
         inkscape:connector-curvature="0"
         sodipodi:nodetypes="cccc"
         style="fill:url(#linearGradient854);fill-rule:evenodd;stroke-width:1pt"
         d="M 133.75,366.25 C 352.5,421.25 426.74,283.13 440,250 c 22.5,-40 8.75,-85 8.75,-85 -1.25,135 -142.5,243.75 -315,201.25 z" />
    </g>
  </g>
</svg>
