<?xml version="1.0" encoding="UTF-8" standalone="no"?>
<svg
   xmlns:dc="http://purl.org/dc/elements/1.1/"
   xmlns:cc="http://creativecommons.org/ns#"
   xmlns:rdf="http://www.w3.org/1999/02/22-rdf-syntax-ns#"
   xmlns:svg="http://www.w3.org/2000/svg"
   xmlns="http://www.w3.org/2000/svg"
   xmlns:sodipodi="http://sodipodi.sourceforge.net/DTD/sodipodi-0.dtd"
   xmlns:inkscape="http://www.inkscape.org/namespaces/inkscape"
   width="100mm"
   height="100mm"
   viewBox="0 0 140 140"
   version="1.1"
   id="svg8"
   inkscape:version="1.0.2 (e86c870879, 2021-01-15)"
   sodipodi:docname="standalone_b.svg">
  <defs
     id="defs2">
    <linearGradient
       id="linearGradient850"
       y2="191.32001"
       gradientUnits="userSpaceOnUse"
       y1="339.76999"
       gradientTransform="scale(1.533,0.65232)"
       x2="312.91"
       x1="62.832001">
      <stop
         id="stop830"
         style="stop-color:#ffffff;stop-opacity:.525"
         offset="0" />
      <stop
         id="stop831"
         style="stop-color:#ffffff;stop-opacity:0"
         offset="1" />
    </linearGradient>
    <linearGradient
       id="linearGradient854"
       y2="332.17001"
       gradientUnits="userSpaceOnUse"
       x2="370.89999"
       gradientTransform="scale(1.2211,0.81893)"
       y1="332.17001"
       x1="109.53">
      <stop
         id="stop856"
         style="stop-color:#ffffff;stop-opacity:0"
         offset="0" />
      <stop
         id="stop857"
         style="stop-color:#5f0e00;stop-opacity:.41667"
         offset="1" />
    </linearGradient>
  </defs>
  <sodipodi:namedview
     id="base"
     pagecolor="#ffffff"
     bordercolor="#666666"
     borderopacity="1.0"
     inkscape:pageopacity="0.0"
     inkscape:pageshadow="2"
     inkscape:zoom="1.979899"
     inkscape:cx="400"
     inkscape:cy="209.23164"
     inkscape:document-units="mm"
     inkscape:current-layer="layer1"
     inkscape:document-rotation="0"
     showgrid="true"
     inkscape:window-width="2560"
     inkscape:window-height="1367"
     inkscape:window-x="0"
     inkscape:window-y="0"
     inkscape:window-maximized="1">
    <inkscape:grid
       type="axonomgrid"
       id="grid833" />
  </sodipodi:namedview>
  <metadata
     id="metadata5">
    <rdf:RDF>
      <cc:Work
         rdf:about="">
        <dc:format>image/svg+xml</dc:format>
        <dc:type
           rdf:resource="http://purl.org/dc/dcmitype/StillImage" />
        <dc:title></dc:title>
      </cc:Work>
    </rdf:RDF>
  </metadata>
  <g
     inkscape:label="Layer 1"
     inkscape:groupmode="layer"
     id="layer1">
    <path
       style="fill:#242424;fill-opacity:1;stroke:#ffffff;stroke-width:0.264583px;stroke-linecap:butt;stroke-linejoin:miter;stroke-opacity:1"
       d="M 21.650638,74.499998 55.425624,55.000001 56.291654,14.5 21.650638,34.5 Z"
       id="path865" />
    <path
       style="fill:#242424;fill-opacity:1;stroke:#ffffff;stroke-width:0.264583px;stroke-linecap:butt;stroke-linejoin:miter;stroke-opacity:1"
       d="m 21.650638,34.5 -17.3205088,-10 34.6410148,-20 17.32051,10 z"
       id="path868" />
    <path
       style="fill:#242424;fill-opacity:1;stroke:#f7ffff;stroke-width:0.264583px;stroke-linecap:butt;stroke-linejoin:miter;stroke-opacity:1"
       d="m 4.3301292,24.5 v 40 L 21.650638,74.499998 V 34.5 Z"
       id="path870" />
    <path
       style="fill:#484848;fill-opacity:1;stroke:#ffffff;stroke-width:0.264583px;stroke-linecap:butt;stroke-linejoin:miter;stroke-opacity:1"
       d="m 6.0621802,27.5 13.8564058,8 v 4 l -13.8564058,-8 z"
       id="path872" />
    <path
       style="fill:#484848;fill-opacity:1;stroke:#ffffff;stroke-width:0.264583px;stroke-linecap:butt;stroke-linejoin:miter;stroke-opacity:1"
       d="m 6.0621802,33.5 13.8564058,8 v 4 l -13.8564058,-8 z"
       id="path872-3" />
    <path
       style="fill:#0100ff;fill-opacity:1;stroke:none;stroke-width:0.264583px;stroke-linecap:butt;stroke-linejoin:miter;stroke-opacity:1"
       d="M 18.186536,42.499999 V 43.5 l 0.866023,0.499999 v -0.999998 z"
       id="path894" />
    <path
       style="fill:#484848;fill-opacity:1;stroke:#ffffff;stroke-width:0.264583px;stroke-linecap:butt;stroke-linejoin:miter;stroke-opacity:1"
       d="m 6.0621802,39.5 13.8564058,8 v 4 l -13.8564058,-8 z"
       id="path872-3-6" />
    <path
       style="fill:#0100ff;fill-opacity:1;stroke:none;stroke-width:0.264583px;stroke-linecap:butt;stroke-linejoin:miter;stroke-opacity:1"
       d="m 18.186538,48.499998 v 1.000001 l 0.866023,0.499999 V 49 Z"
       id="path894-7" />
    <path
       style="fill:#00ff00;fill-opacity:1;stroke:none;stroke-width:0.264583px;stroke-linecap:butt;stroke-linejoin:miter;stroke-opacity:1"
       d="M 19.918586,53.499998 19.052559,52.999999 V 54 l 0.866027,0.499999 z"
       id="path936" />
    <path
       style="fill:#0100ff;fill-opacity:1;stroke:none;stroke-width:0.264583px;stroke-linecap:butt;stroke-linejoin:miter;stroke-opacity:1"
       d="m 17.320513,51.999998 v 1.000001 l 0.866023,0.499999 V 52.5 Z"
       id="path894-5" />
    <path
       style="fill:#242424;fill-opacity:1;stroke:#ffffff;stroke-width:0.264583px;stroke-linecap:butt;stroke-linejoin:miter;stroke-opacity:1"
       d="M 33.774991,66.500002 46.765372,59.000001 75.344214,75.5 l -13.85641,8 z"
       id="path863" />
    <path
       id="path837"
       style="fill:#242424;fill-opacity:1;stroke:#ffffff;stroke-width:0.264583px;stroke-linecap:butt;stroke-linejoin:miter;stroke-opacity:1"
       d="M 50.229596,31.00013 V 56.000154 L 80.540404,73.499862 V 48.499835 Z" />
    <path
       style="fill:#0000c1;fill-opacity:1;stroke:#000000;stroke-width:0.264583px;stroke-linecap:butt;stroke-linejoin:miter;stroke-opacity:1"
       d="M 51.961524,33.999999 V 55 l 26.84679,15.5 v -21 z"
       id="path843" />
    <path
       style="fill:#242424;fill-opacity:1;stroke:#ffffff;stroke-width:0.264583px;stroke-linecap:butt;stroke-linejoin:miter;stroke-opacity:1"
       d="m 50.229474,31 1.73205,-1 30.31089,17.499999 -1.73205,1 z"
       id="path845" />
    <path
       style="fill:#242424;fill-opacity:1;stroke:#fffffe;stroke-width:0.264583px;stroke-linecap:butt;stroke-linejoin:miter;stroke-opacity:1"
       d="m 80.540364,48.499999 1.73205,-1 v 25 l -1.73205,1 z"
       id="path847" />
    <path
       style="fill:#3d3d3d;fill-opacity:1;stroke:#ffffff;stroke-width:0.264583px;stroke-linecap:butt;stroke-linejoin:miter;stroke-opacity:1"
       d="m 46.765374,59.999999 26.84679,15.5 -11.25833,6.5 -26.84679,-15.5 z"
       id="path867" />
    <path
       style="fill:none;stroke:#ffffff;stroke-width:0.264583px;stroke-linecap:butt;stroke-linejoin:miter;stroke-opacity:1"
       d="M 38.10512,64.999999 64.951904,80.5 v 0 0"
       id="path871" />
    <path
       style="fill:none;stroke:#ffffea;stroke-width:0.264583px;stroke-linecap:butt;stroke-linejoin:miter;stroke-opacity:1"
       d="M 40.703196,63.5 67.549984,79 v 0"
       id="path873" />
    <path
       style="fill:none;stroke:#fffdff;stroke-width:0.264583px;stroke-linecap:butt;stroke-linejoin:miter;stroke-opacity:1"
       d="m 43.301272,62 26.846792,15.499998 v 0"
       id="path875" />
    <path
       style="fill:none;stroke:#fffffe;stroke-width:0.264583px;stroke-linecap:butt;stroke-linejoin:miter;stroke-opacity:1"
       d="M 45.899348,60.5 72.746134,75.999998"
       id="path877" />
    <path
       style="fill:none;stroke:#ffffff;stroke-width:0.264583px;stroke-linecap:butt;stroke-linejoin:miter;stroke-opacity:1"
       d="m 38.10512,67.999999 11.25833,-6.500001 v 0"
       id="path879" />
    <path
       style="fill:none;stroke:#ffffff;stroke-width:0.264583px;stroke-linecap:butt;stroke-linejoin:miter;stroke-opacity:1"
       d="m 40.703196,69.499998 11.258328,-6.5"
       id="path881" />
    <path
       style="fill:none;stroke:#ffffff;stroke-width:0.264583px;stroke-linecap:butt;stroke-linejoin:miter;stroke-opacity:1"
       d="M 45.899348,69.499998 54.559604,64.5"
       id="path883" />
    <path
       style="fill:none;stroke:#ffffff;stroke-width:0.264583px;stroke-linecap:butt;stroke-linejoin:miter;stroke-opacity:1"
       d="m 48.497424,71 8.66025,-5"
       id="path885" />
    <path
       style="fill:none;stroke:#ffffff;stroke-width:0.264583px;stroke-linecap:butt;stroke-linejoin:miter;stroke-opacity:1"
       d="m 51.095504,72.5 8.66025,-5"
       id="path887" />
    <path
       style="fill:none;stroke:#ffffff;stroke-width:0.264583px;stroke-linecap:butt;stroke-linejoin:miter;stroke-opacity:1"
       d="m 53.693574,74 8.66026,-5.000001"
       id="path889" />
    <path
       style="fill:none;stroke:#ffffff;stroke-width:0.264583px;stroke-linecap:butt;stroke-linejoin:miter;stroke-opacity:1"
       d="m 56.291654,75.499999 8.66025,-5"
       id="path891" />
    <path
       style="fill:none;stroke:#ffffff;stroke-width:0.264583px;stroke-linecap:butt;stroke-linejoin:miter;stroke-opacity:1"
       d="m 56.291654,78.499999 11.25833,-6.500001"
       id="path893" />
    <path
       style="fill:none;stroke:#ffffff;stroke-width:0.264583px;stroke-linecap:butt;stroke-linejoin:miter;stroke-opacity:1"
       d="m 58.889734,79.999998 5.19615,-2.999999 v 0"
       id="path895" />
    <path
       style="fill:none;stroke:#ffffff;stroke-width:0.264583px;stroke-linecap:butt;stroke-linejoin:miter;stroke-opacity:1"
       d="m 66.683954,75.499999 c 3.46411,-2.000001 3.46411,-2.000001 3.46411,-2.000001"
       id="path897" />
    <path
       style="fill:#242424;fill-opacity:1;stroke:#fffff1;stroke-width:0.264583px;stroke-linecap:butt;stroke-linejoin:miter;stroke-opacity:1"
       d="m 75.344214,75.499998 c -13.85641,8 -13.85641,8 -13.85641,8 v 1 l 13.85641,-7.999999 z"
       id="path855" />
    <path
       style="fill:#242424;fill-opacity:1;stroke:#ffffff;stroke-width:0.264583px;stroke-linecap:butt;stroke-linejoin:miter;stroke-opacity:1"
       d="M 61.487804,83.499998 33.774991,66.5 v 0.999998 l 27.712813,17 z"
       id="path861" />
    <path
       id="path837-3"
       style="fill:#242424;fill-opacity:1;stroke:#ffffff;stroke-width:0.264583px;stroke-linecap:butt;stroke-linejoin:miter;stroke-opacity:1"
       d="M 91.798811,61.00013 V 86.000154 L 122.10963,103.49986 V 78.499835 Z" />
    <path
       style="fill:#0000c1;fill-opacity:1;stroke:#000000;stroke-width:0.264583px;stroke-linecap:butt;stroke-linejoin:miter;stroke-opacity:1"
       d="M 93.530741,63.999999 V 85 l 26.846789,15.5 v -21 z"
       id="path843-6" />
    <path
       style="fill:#242424;fill-opacity:1;stroke:#ffffff;stroke-width:0.264583px;stroke-linecap:butt;stroke-linejoin:miter;stroke-opacity:1"
       d="m 91.798691,61 1.73205,-1 30.310889,17.499999 -1.73205,1 z"
       id="path845-7" />
    <path
       style="fill:#242424;fill-opacity:1;stroke:#fffffe;stroke-width:0.264583px;stroke-linecap:butt;stroke-linejoin:miter;stroke-opacity:1"
       d="m 122.10958,78.499999 1.73205,-1 V 102.5 l -1.73205,1 z"
       id="path847-5" />
    <path
       style="fill:none;stroke:#ffffe8;stroke-width:0.264583px;stroke-linecap:butt;stroke-linejoin:miter;stroke-opacity:1"
       d="M 91.798691,86 74.478181,95.999999 104.78907,113.5 l 17.32051,-10 z"
       id="path849" />
    <path
       style="fill:#242424;fill-opacity:1;stroke:#fffff7;stroke-width:0.264583px;stroke-linecap:butt;stroke-linejoin:miter;stroke-opacity:1"
       d="M 91.798691,86 70.148061,98.499999 100.45895,116 122.10958,103.5 Z"
       id="path861-3" />
    <path
       style="fill:#242424;fill-opacity:1;stroke:#ffffff;stroke-width:0.264583px;stroke-linecap:butt;stroke-linejoin:miter;stroke-opacity:1"
       d="M 70.148061,98.499999 V 100.5 v 1 L 100.45895,119 v -3 z"
       id="path863-5" />
    <path
       style="fill:#242424;fill-opacity:1;stroke:#fffff1;stroke-width:0.264583px;stroke-linecap:butt;stroke-linejoin:miter;stroke-opacity:1"
       d="m 122.10958,103.5 v 3 L 100.45895,119 v -3 z"
       id="path865-6" />
    <path
       style="fill:#3d3d3d;fill-opacity:1;stroke:#ffffff;stroke-width:0.264583px;stroke-linecap:butt;stroke-linejoin:miter;stroke-opacity:1"
       d="M 91.798691,87.999999 118.64548,103.5 107.38715,110 80.540361,94.499999 Z"
       id="path867-2" />
    <path
       style="fill:#616161;fill-opacity:1;stroke:#ffffff;stroke-width:0.264583px;stroke-linecap:butt;stroke-linejoin:miter;stroke-opacity:1"
       d="m 88.334591,99.999998 7.79423,4.500002 -6.06218,3.5 -7.79423,-4.5 z"
       id="path869" />
    <path
       style="fill:none;stroke:#ffffff;stroke-width:0.264583px;stroke-linecap:butt;stroke-linejoin:miter;stroke-opacity:1"
       d="M 83.138441,92.999999 109.98522,108.5 v 0 0"
       id="path871-9" />
    <path
       style="fill:none;stroke:#ffffea;stroke-width:0.264583px;stroke-linecap:butt;stroke-linejoin:miter;stroke-opacity:1"
       d="M 85.736511,91.5 112.5833,107 v 0"
       id="path873-1" />
    <path
       style="fill:none;stroke:#fffdff;stroke-width:0.264583px;stroke-linecap:butt;stroke-linejoin:miter;stroke-opacity:1"
       d="m 88.334591,90 26.846789,15.5 v 0"
       id="path875-2" />
    <path
       style="fill:none;stroke:#fffffe;stroke-width:0.264583px;stroke-linecap:butt;stroke-linejoin:miter;stroke-opacity:1"
       d="M 90.932671,88.5 117.77946,104"
       id="path877-7" />
    <path
       style="fill:none;stroke:#ffffff;stroke-width:0.264583px;stroke-linecap:butt;stroke-linejoin:miter;stroke-opacity:1"
       d="m 83.138441,95.999999 11.25833,-6.500001 v 0"
       id="path879-0" />
    <path
       style="fill:none;stroke:#ffffff;stroke-width:0.264583px;stroke-linecap:butt;stroke-linejoin:miter;stroke-opacity:1"
       d="m 85.736511,97.499998 11.25833,-6.5"
       id="path881-9" />
    <path
       style="fill:none;stroke:#ffffff;stroke-width:0.264583px;stroke-linecap:butt;stroke-linejoin:miter;stroke-opacity:1"
       d="M 90.932671,97.499998 99.592921,92.5"
       id="path883-3" />
    <path
       style="fill:none;stroke:#ffffff;stroke-width:0.264583px;stroke-linecap:butt;stroke-linejoin:miter;stroke-opacity:1"
       d="M 93.530741,99 102.191,94"
       id="path885-6" />
    <path
       style="fill:none;stroke:#ffffff;stroke-width:0.264583px;stroke-linecap:butt;stroke-linejoin:miter;stroke-opacity:1"
       d="m 96.128821,100.5 8.660249,-5"
       id="path887-0" />
    <path
       style="fill:none;stroke:#ffffff;stroke-width:0.264583px;stroke-linecap:butt;stroke-linejoin:miter;stroke-opacity:1"
       d="m 98.726891,102 8.660259,-5.000001"
       id="path889-6" />
    <path
       style="fill:none;stroke:#ffffff;stroke-width:0.264583px;stroke-linecap:butt;stroke-linejoin:miter;stroke-opacity:1"
       d="m 101.32497,103.5 8.66025,-5.000001"
       id="path891-2" />
    <path
       style="fill:none;stroke:#ffffff;stroke-width:0.264583px;stroke-linecap:butt;stroke-linejoin:miter;stroke-opacity:1"
       d="M 101.32497,106.5 112.5833,99.999998"
       id="path893-6" />
    <path
       style="fill:none;stroke:#ffffff;stroke-width:0.264583px;stroke-linecap:butt;stroke-linejoin:miter;stroke-opacity:1"
       d="m 103.92305,108 5.19615,-3 v 0"
       id="path895-1" />
    <path
       style="fill:none;stroke:#ffffff;stroke-width:0.264583px;stroke-linecap:butt;stroke-linejoin:miter;stroke-opacity:1"
       d="m 111.71728,103.5 c 3.4641,-2 3.4641,-2 3.4641,-2"
       id="path897-8" />
    <g
       id="g845"
       transform="matrix(0.06441578,0,0,0.05813217,52.659093,70.844183)">
      <path
         id="path847-7"
         inkscape:connector-curvature="0"
         sodipodi:nodetypes="cccccccccc"
         style="fill:#ffe200;fill-rule:evenodd;stroke:#000000;stroke-width:10;stroke-linejoin:round"
         d="M 388.75,93.75 C 370,76.25 420,63.75 426.25,70 c 10,5 -8.75,8.75 -7.5,17.5 1.25,8.75 0,55 10,57.5 10,2.5 22.5,11.25 22.5,23.75 C 482.5,246.25 360,458.75 70,352.5 65,348.75 37.5,317.5 32.5,310 30,301.25 26.25,280 41.25,272.5 170,238.75 318.75,305 386.25,153.75 c 11.25,-26.25 2.5,-60 2.5,-60 z" />
      <path
         id="path849-9"
         inkscape:connector-curvature="0"
         sodipodi:nodetypes="cccc"
         style="fill:url(#linearGradient850);fill-rule:evenodd;stroke-width:1pt"
         d="m 43.75,290 2.5,-12.5 C 138.75,242.5 310,316.25 392.5,157.5 351.25,270 278.75,338.75 43.75,290 Z" />
      <path
         id="path851"
         inkscape:connector-curvature="0"
         sodipodi:nodetypes="ccc"
         style="fill:#442400;fill-rule:evenodd;stroke-width:1pt"
         d="m 386.15,89.136 c 2.92,-17.6 29.12,-18.073 36.45,-18.944 11.98,1.566 -15.49,21.444 -36.45,18.944 z" />
      <path
         id="path852"
         inkscape:connector-curvature="0"
         sodipodi:nodetypes="ccc"
         style="fill:#442400;fill-rule:evenodd;stroke-width:1pt"
         d="m 32.518,305.14 c -0.933,-18.37 -1.866,-24.43 8.743,-30.49 4.617,6.93 3.75,28.37 -8.743,30.49 z" />
      <path
         id="path853"
         inkscape:connector-curvature="0"
         sodipodi:nodetypes="cccc"
         style="fill:url(#linearGradient854);fill-rule:evenodd;stroke-width:1pt"
         d="M 133.75,366.25 C 352.5,421.25 426.74,283.13 440,250 c 22.5,-40 8.75,-85 8.75,-85 -1.25,135 -142.5,243.75 -315,201.25 z" />
    </g>
  </g>
</svg>
