<?xml version="1.0" encoding="UTF-8" standalone="no"?>
<svg
   xmlns:dc="http://purl.org/dc/elements/1.1/"
   xmlns:cc="http://creativecommons.org/ns#"
   xmlns:rdf="http://www.w3.org/1999/02/22-rdf-syntax-ns#"
   xmlns:svg="http://www.w3.org/2000/svg"
   xmlns="http://www.w3.org/2000/svg"
   xmlns:sodipodi="http://sodipodi.sourceforge.net/DTD/sodipodi-0.dtd"
   xmlns:inkscape="http://www.inkscape.org/namespaces/inkscape"
   width="100mm"
   height="100mm"
   viewBox="0 0 100 100"
   version="1.1"
   id="svg8"
   inkscape:version="1.0.2 (e86c870879, 2021-01-15)"
   sodipodi:docname="laptop_b.svg">
  <defs
     id="defs2">
    <linearGradient
       id="linearGradient850"
       y2="191.32001"
       gradientUnits="userSpaceOnUse"
       y1="339.76999"
       gradientTransform="scale(1.533,0.65232)"
       x2="312.91"
       x1="62.832001">
      <stop
         id="stop830"
         style="stop-color:#ffffff;stop-opacity:.525"
         offset="0" />
      <stop
         id="stop831"
         style="stop-color:#ffffff;stop-opacity:0"
         offset="1" />
    </linearGradient>
    <linearGradient
       id="linearGradient854"
       y2="332.17001"
       gradientUnits="userSpaceOnUse"
       x2="370.89999"
       gradientTransform="scale(1.2211,0.81893)"
       y1="332.17001"
       x1="109.53">
      <stop
         id="stop856"
         style="stop-color:#ffffff;stop-opacity:0"
         offset="0" />
      <stop
         id="stop857"
         style="stop-color:#5f0e00;stop-opacity:.41667"
         offset="1" />
    </linearGradient>
  </defs>
  <sodipodi:namedview
     id="base"
     pagecolor="#ffffff"
     bordercolor="#666666"
     borderopacity="1.0"
     inkscape:pageopacity="0.0"
     inkscape:pageshadow="2"
     inkscape:zoom="5.6"
     inkscape:cx="139.56261"
     inkscape:cy="228.359"
     inkscape:document-units="mm"
     inkscape:current-layer="layer1"
     inkscape:document-rotation="0"
     showgrid="true"
     inkscape:window-width="2560"
     inkscape:window-height="1367"
     inkscape:window-x="0"
     inkscape:window-y="0"
     inkscape:window-maximized="1">
    <inkscape:grid
       type="axonomgrid"
       id="grid835" />
  </sodipodi:namedview>
  <metadata
     id="metadata5">
    <rdf:RDF>
      <cc:Work
         rdf:about="">
        <dc:format>image/svg+xml</dc:format>
        <dc:type
           rdf:resource="http://purl.org/dc/dcmitype/StillImage" />
        <dc:title></dc:title>
      </cc:Work>
    </rdf:RDF>
  </metadata>
  <g
     inkscape:label="Layer 1"
     inkscape:groupmode="layer"
     id="layer1">
    <path
       id="path837"
       style="fill:#242424;stroke:#ffffff;stroke-width:0.999999px;stroke-linecap:butt;stroke-linejoin:miter;stroke-opacity:1;fill-opacity:1"
       d="M 147.29297 103.9375 L 147.29297 198.42578 L 261.85352 264.56641 L 261.85352 170.07812 L 147.29297 103.9375 z "
       transform="scale(0.26458333)" />
    <path
       style="fill:#0000c1;stroke:#000000;stroke-width:0.264583px;stroke-linecap:butt;stroke-linejoin:miter;stroke-opacity:1;fill-opacity:1"
       d="M 40.703193,30.499999 V 51.5 L 67.549982,67 V 46 Z"
       id="path843" />
    <path
       style="fill:#242424;stroke:#ffffff;stroke-width:0.264583px;stroke-linecap:butt;stroke-linejoin:miter;stroke-opacity:1;fill-opacity:1"
       d="m 38.971143,27.5 1.73205,-1 30.310888,17.499999 -1.73205,1 z"
       id="path845" />
    <path
       style="fill:#242424;stroke:#fffffe;stroke-width:0.264583px;stroke-linecap:butt;stroke-linejoin:miter;stroke-opacity:1;fill-opacity:1"
       d="m 69.282031,44.999999 1.73205,-1 v 25 l -1.73205,1 z"
       id="path847" />
    <path
       style="fill:none;stroke:#ffffe8;stroke-width:0.264583px;stroke-linecap:butt;stroke-linejoin:miter;stroke-opacity:1"
       d="M 38.971143,52.5 21.650635,62.499999 51.961523,79.999998 69.282031,69.999999 Z"
       id="path849" />
    <path
       style="fill:#242424;stroke:#fffff7;stroke-width:0.264583px;stroke-linecap:butt;stroke-linejoin:miter;stroke-opacity:1;fill-opacity:1"
       d="M 38.971143,52.5 17.320508,64.999999 47.631397,82.499998 69.282031,69.999999 Z"
       id="path861" />
    <path
       style="fill:#242424;stroke:#ffffff;stroke-width:0.264583px;stroke-linecap:butt;stroke-linejoin:miter;stroke-opacity:1;fill-opacity:1"
       d="M 17.320508,64.999999 V 67 67.999998 L 47.631397,85.5 v -3.000002 z"
       id="path863" />
    <path
       style="fill:#242424;stroke:#fffff1;stroke-width:0.264583px;stroke-linecap:butt;stroke-linejoin:miter;stroke-opacity:1;fill-opacity:1"
       d="m 69.282031,69.999999 v 3 L 47.631397,85.5 v -3.000002 z"
       id="path865" />
    <path
       style="fill:#3d3d3d;stroke:#ffffff;stroke-width:0.264583px;stroke-linecap:butt;stroke-linejoin:miter;stroke-opacity:1;fill-opacity:1"
       d="m 38.971143,54.499999 26.846786,15.5 -11.25833,6.5 -26.846786,-15.5 z"
       id="path867" />
    <path
       style="fill:#616161;stroke:#ffffff;stroke-width:0.264583px;stroke-linecap:butt;stroke-linejoin:miter;stroke-opacity:1;fill-opacity:1"
       d="M 35.507041,66.499998 43.301269,71 37.239093,74.499998 29.444862,69.999999 Z"
       id="path869" />
    <path
       style="fill:none;stroke:#ffffff;stroke-width:0.264583px;stroke-linecap:butt;stroke-linejoin:miter;stroke-opacity:1"
       d="M 30.310889,59.499999 57.157675,75 v 0 0"
       id="path871" />
    <path
       style="fill:none;stroke:#ffffea;stroke-width:0.264583px;stroke-linecap:butt;stroke-linejoin:miter;stroke-opacity:1"
       d="m 32.908965,58 26.846786,15.5 v 0"
       id="path873" />
    <path
       style="fill:none;stroke:#fffdff;stroke-width:0.264583px;stroke-linecap:butt;stroke-linejoin:miter;stroke-opacity:1"
       d="M 35.507041,56.5 62.35383,71.999998 v 0"
       id="path875" />
    <path
       style="fill:none;stroke:#fffffe;stroke-width:0.264583px;stroke-linecap:butt;stroke-linejoin:miter;stroke-opacity:1"
       d="M 38.105117,55 64.951906,70.499998"
       id="path877" />
    <path
       style="fill:none;stroke:#ffffff;stroke-width:0.264583px;stroke-linecap:butt;stroke-linejoin:miter;stroke-opacity:1"
       d="m 30.310889,62.499999 11.25833,-6.500001 v 0"
       id="path879" />
    <path
       style="fill:none;stroke:#ffffff;stroke-width:0.264583px;stroke-linecap:butt;stroke-linejoin:miter;stroke-opacity:1"
       d="m 32.908965,63.999998 11.25833,-6.5"
       id="path881" />
    <path
       style="fill:none;stroke:#ffffff;stroke-width:0.264583px;stroke-linecap:butt;stroke-linejoin:miter;stroke-opacity:1"
       d="M 38.105117,63.999998 46.765371,59"
       id="path883" />
    <path
       style="fill:none;stroke:#ffffff;stroke-width:0.264583px;stroke-linecap:butt;stroke-linejoin:miter;stroke-opacity:1"
       d="m 40.703193,65.5 8.660254,-5"
       id="path885" />
    <path
       style="fill:none;stroke:#ffffff;stroke-width:0.264583px;stroke-linecap:butt;stroke-linejoin:miter;stroke-opacity:1"
       d="m 43.301269,67 8.660254,-5"
       id="path887" />
    <path
       style="fill:none;stroke:#ffffff;stroke-width:0.264583px;stroke-linecap:butt;stroke-linejoin:miter;stroke-opacity:1"
       d="m 45.899345,68.5 8.660254,-5.000001"
       id="path889" />
    <path
       style="fill:none;stroke:#ffffff;stroke-width:0.264583px;stroke-linecap:butt;stroke-linejoin:miter;stroke-opacity:1"
       d="m 48.497423,69.999999 8.660252,-5"
       id="path891" />
    <path
       style="fill:none;stroke:#ffffff;stroke-width:0.264583px;stroke-linecap:butt;stroke-linejoin:miter;stroke-opacity:1"
       d="M 48.497423,72.999999 59.755751,66.499998"
       id="path893" />
    <path
       style="fill:none;stroke:#ffffff;stroke-width:0.264583px;stroke-linecap:butt;stroke-linejoin:miter;stroke-opacity:1"
       d="m 51.095499,74.499998 5.196152,-2.999999 v 0"
       id="path895" />
    <path
       style="fill:none;stroke:#ffffff;stroke-width:0.264583px;stroke-linecap:butt;stroke-linejoin:miter;stroke-opacity:1"
       d="M 58.889727,69.999999 C 62.35383,67.999998 62.35383,67.999998 62.35383,67.999998"
       id="path897" />
    <g
       id="g845"
       transform="matrix(0.07946156,0,0,0.06652197,1.720303,33.52279)">
      <path
         id="path847-3"
         inkscape:connector-curvature="0"
         sodipodi:nodetypes="cccccccccc"
         style="fill:#ffe200;fill-rule:evenodd;stroke:#000000;stroke-width:10;stroke-linejoin:round"
         d="M 388.75,93.75 C 370,76.25 420,63.75 426.25,70 c 10,5 -8.75,8.75 -7.5,17.5 1.25,8.75 0,55 10,57.5 10,2.5 22.5,11.25 22.5,23.75 C 482.5,246.25 360,458.75 70,352.5 65,348.75 37.5,317.5 32.5,310 30,301.25 26.25,280 41.25,272.5 170,238.75 318.75,305 386.25,153.75 c 11.25,-26.25 2.5,-60 2.5,-60 z" />
      <path
         id="path849-6"
         inkscape:connector-curvature="0"
         sodipodi:nodetypes="cccc"
         style="fill:url(#linearGradient850);fill-rule:evenodd;stroke-width:1pt"
         d="m 43.75,290 2.5,-12.5 C 138.75,242.5 310,316.25 392.5,157.5 351.25,270 278.75,338.75 43.75,290 Z" />
      <path
         id="path851"
         inkscape:connector-curvature="0"
         sodipodi:nodetypes="ccc"
         style="fill:#442400;fill-rule:evenodd;stroke-width:1pt"
         d="m 386.15,89.136 c 2.92,-17.6 29.12,-18.073 36.45,-18.944 11.98,1.566 -15.49,21.444 -36.45,18.944 z" />
      <path
         id="path852"
         inkscape:connector-curvature="0"
         sodipodi:nodetypes="ccc"
         style="fill:#442400;fill-rule:evenodd;stroke-width:1pt"
         d="m 32.518,305.14 c -0.933,-18.37 -1.866,-24.43 8.743,-30.49 4.617,6.93 3.75,28.37 -8.743,30.49 z" />
      <path
         id="path853"
         inkscape:connector-curvature="0"
         sodipodi:nodetypes="cccc"
         style="fill:url(#linearGradient854);fill-rule:evenodd;stroke-width:1pt"
         d="M 133.75,366.25 C 352.5,421.25 426.74,283.13 440,250 c 22.5,-40 8.75,-85 8.75,-85 -1.25,135 -142.5,243.75 -315,201.25 z" />
    </g>
  </g>
</svg>
