<svg xmlns="http://www.w3.org/2000/svg" xmlns:xlink="http://www.w3.org/1999/xlink" xmlns:lucid="lucid" width="1235.88" height="862"><g transform="translate(-499 -2179)" lucid:page-tab-id="0_0"><path d="M0 0h1870.4v3841.6H0z" fill="#fff"/><path d="M1043.53 2226h62.44v94H938.53v-120h100zm-105 0h105" stroke="#000" stroke-width="2" fill="#fff5d1"/><use xlink:href="#a" transform="matrix(1,0,0,1,950.5302622841148,2234) translate(67.67901234567901 45.22222222222222)"/><path d="M625 2486h62.44v94H520v-120h100zm-105 0h105" stroke="#000" stroke-width="2" fill="#fff5d1"/><use xlink:href="#b" transform="matrix(1,0,0,1,532,2494) translate(28.83333333333333 45.22222222222222)"/><path d="M625 2706h62.44v94H520v-120h100zm-105 0h105" stroke="#000" stroke-width="2" fill="#fff5d1"/><use xlink:href="#c" transform="matrix(1,0,0,1,532,2714) translate(20.19135802469136 45.22222222222222)"/><path d="M603.72 2582v78.5" stroke="#000" stroke-width="2" fill="none"/><path d="M604.72 2582.03h-2V2581h2z"/><path d="M603.72 2675.76l-4.63-14.26h9.26z" stroke="#000" stroke-width="2"/><path d="M603.72 2582v9.57m0 9.57V2620h.28m9.57 0h19.14m9.57 0h19.14m9.58 0h19.14m9.57 0h19.13m9.57 0h19.14m9.56 0h19.14m9.57 0h9.58" stroke="#000" stroke-width="2" fill="none"/><path d="M604.72 2582.03h-2V2581h2z"/><path d="M810.65 2620l-14.27 4.64v-9.28z" stroke="#000" stroke-width="2"/><path d="M1022.25 2322v58H603.32v60.5" stroke="#000" stroke-width="2" fill="none"/><path d="M1023.25 2322.03h-2V2321h2z"/><path d="M603.32 2455.76l-4.64-14.26h9.27z" stroke="#000" stroke-width="2"/><path d="M1022.25 2322v58H1224v60.5" stroke="#000" stroke-width="2" fill="none"/><path d="M1023.25 2322.03h-2V2321h2z"/><path d="M1224 2455.76l-4.64-14.26h9.28z" stroke="#000" stroke-width="2"/><path d="M1022.25 2322v10.2m0 10.2v20.37m0 10.2v7.03h13.35m10.2 0h20.38m10.2 0h20.37m10.2 0h20.38m10.2 0h20.38m10.2 0h20.4m10.18 0h20.38m10.2 0h20.38m10.2 0h20.38m10.2 0h20.38m10.2 0h20.38m10.2 0h20.37m10.2 0h20.38m10.2 0h20.38m10.2 0h20.4m10.18 0h20.38m10.2 0h20.38m10.2 0h20.38m10.2 0H1586m10.2 0h10.18" stroke="#000" stroke-width="2" fill="none"/><path d="M1023.25 2322.03h-2V2321h2z"/><path d="M1621.65 2380l-14.27 4.64v-9.28z" stroke="#000" stroke-width="2"/><path d="M1534.88 2320h180v60h-180z" stroke="#000" stroke-opacity="0" stroke-width="2" fill-opacity="0"/><use xlink:href="#d" transform="matrix(1,0,0,1,1539.8837209302324,2325) translate(14.18518518518519 30.708333333333336)"/><use xlink:href="#e" transform="matrix(1,0,0,1,1539.8837209302324,2325) translate(105.96296296296298 30.708333333333336)"/><path d="M932.25 2262.06h180v74h-180z" stroke="#000" stroke-opacity="0" stroke-width="2" fill-opacity="0"/><use xlink:href="#f" transform="matrix(1,0,0,1,937.2511925166729,2267.060375938353) translate(5.759259259259238 35.55555555555556)"/><use xlink:href="#g" transform="matrix(1,0,0,1,937.2511925166729,2267.060375938353) translate(62.66049382716049 35.55555555555556)"/><path d="M1471.44 2706h62.44v94h-167.44v-120h100zm-105 0h105" stroke="#000" stroke-width="2" fill="#fff5d1"/><use xlink:href="#h" transform="matrix(1,0,0,1,1378.4372390283008,2714) translate(0.2716049382715937 45.22222222222222)"/><path d="M1037.25 2706h62.44v94H932.24v-120h100zm-105 0h105" stroke="#000" stroke-width="2" fill="#fff5d1"/><use xlink:href="#i" transform="matrix(1,0,0,1,944.2511925166729,2714) translate(21.09876543209876 45.22222222222222)"/><path d="M1038.95 2926h62.44v94H933.94v-120h100zm-105 0h105" stroke="#000" stroke-width="2" fill="#fff5d1"/><use xlink:href="#j" transform="matrix(1,0,0,1,945.9488669352774,2934) translate(-4.006172839506178 45.22222222222222)"/><path d="M1471.44 2926h62.44v94h-167.44v-120h100zm-105 0h105" stroke="#000" stroke-width="2" fill="#fff5d1"/><use xlink:href="#j" transform="matrix(1,0,0,1,1378.4372390283008,2934) translate(-4.006172839506178 45.22222222222222)"/><path d="M1450.16 2802v78.5" stroke="#000" stroke-width="2" fill="none"/><path d="M1451.16 2802.03h-2V2801h2z"/><path d="M1450.16 2895.76l-4.64-14.26h9.27z" stroke="#000" stroke-width="2"/><path d="M1450.16 2802v10.82m0 10.82V2840h5.28m10.8 0h21.65m10.8 0h21.65m10.82 0h21.64m10.83 0h10.82" stroke="#000" stroke-width="2" fill="none"/><path d="M1451.16 2802.03h-2V2801h2z"/><path d="M1589.7 2840l-14.25 4.64v-9.28z" stroke="#000" stroke-width="2"/><path d="M1015.97 2802v48h-.2v30.5" stroke="#000" stroke-width="2" fill="none"/><path d="M1016.97 2802.03h-2V2801h2z"/><path d="M1015.77 2895.76l-4.63-14.26h9.27z" stroke="#000" stroke-width="2"/><path d="M1015.97 2802v9.36m0 9.35v18.72m8.78.58h18.7m9.37 0h18.7m9.37 0h18.7m9.36 0h18.7m9.36 0h18.72m9.35 0h9.35" stroke="#000" stroke-width="2" fill="none"/><path d="M1016.97 2802.03h-2V2801h2z"/><path d="M1189.7 2840l-14.25 4.64v-9.28z" stroke="#000" stroke-width="2"/><path d="M1245 2486h62.44v94H1140v-120h100zm-105 0h105" stroke="#000" stroke-width="2" fill="#fff5d1"/><use xlink:href="#k" transform="matrix(1,0,0,1,1152,2494) translate(39.2037037037037 45.22222222222222)"/><path d="M1223.72 2582v48H1014v30.5" stroke="#000" stroke-width="2" fill="none"/><path d="M1224.72 2582.03h-2V2581h2z"/><path d="M1014 2675.76l-4.64-14.26h9.28z" stroke="#000" stroke-width="2"/><path d="M1223.72 2582v48H1450v30.5" stroke="#000" stroke-width="2" fill="none"/><path d="M1224.72 2582.03h-2V2581h2z"/><path d="M1450 2675.76l-4.64-14.26h9.28z" stroke="#000" stroke-width="2"/><defs><path d="M0 4l72-265h28L28 4H0" id="l"/><use transform="matrix(0.08641975308641976,0,0,0.08641975308641976,0,0)" xlink:href="#l" id="a"/><path d="M106-169C34-169 62-67 57 0H25v-261h32l-1 103c12-21 28-36 61-36 89 0 53 116 60 194h-32v-121c2-32-8-49-39-48" id="m"/><path d="M100-194c62-1 85 37 85 99 1 63-27 99-86 99S16-35 15-95c0-66 28-99 85-99zM99-20c44 1 53-31 53-75 0-43-8-75-51-75s-53 32-53 75 10 74 51 75" id="n"/><path d="M210-169c-67 3-38 105-44 169h-31v-121c0-29-5-50-35-48C34-165 62-65 56 0H25l-1-190h30c1 10-1 24 2 32 10-44 99-50 107 0 11-21 27-35 58-36 85-2 47 119 55 194h-31v-121c0-29-5-49-35-48" id="o"/><path d="M100-194c63 0 86 42 84 106H49c0 40 14 67 53 68 26 1 43-12 49-29l28 8c-11 28-37 45-77 45C44 4 14-33 15-96c1-61 26-98 85-98zm52 81c6-60-76-77-97-28-3 7-6 17-6 28h103" id="p"/><g id="b"><use transform="matrix(0.08641975308641976,0,0,0.08641975308641976,0,0)" xlink:href="#m"/><use transform="matrix(0.08641975308641976,0,0,0.08641975308641976,17.283950617283953,0)" xlink:href="#n"/><use transform="matrix(0.08641975308641976,0,0,0.08641975308641976,34.567901234567906,0)" xlink:href="#o"/><use transform="matrix(0.08641975308641976,0,0,0.08641975308641976,60.407407407407426,0)" xlink:href="#p"/><use transform="matrix(0.08641975308641976,0,0,0.08641975308641976,77.69135802469137,0)" xlink:href="#l"/></g><path d="M84 4C-5 8 30-112 23-190h32v120c0 31 7 50 39 49 72-2 45-101 50-169h31l1 190h-30c-1-10 1-25-2-33-11 22-28 36-60 37" id="q"/><path d="M135-143c-3-34-86-38-87 0 15 53 115 12 119 90S17 21 10-45l28-5c4 36 97 45 98 0-10-56-113-15-118-90-4-57 82-63 122-42 12 7 21 19 24 35" id="r"/><path d="M114-163C36-179 61-72 57 0H25l-1-190h30c1 12-1 29 2 39 6-27 23-49 58-41v29" id="s"/><path d="M27 0v-27h64v-190l-56 39v-29l58-41h29v221h61V0H27" id="t"/><path d="M101-251c82-7 93 87 43 132L82-64C71-53 59-42 53-27h129V0H18c2-99 128-94 128-182 0-28-16-43-45-43s-46 15-49 41l-32-3c6-41 34-60 81-64" id="u"/><path d="M126-127c33 6 58 20 58 59 0 88-139 92-164 29-3-8-5-16-6-25l32-3c6 27 21 44 54 44 32 0 52-15 52-46 0-38-36-46-79-43v-28c39 1 72-4 72-42 0-27-17-43-46-43-28 0-47 15-49 41l-32-3c6-42 35-63 81-64 48-1 79 21 79 65 0 36-21 52-52 59" id="v"/><g id="c"><use transform="matrix(0.08641975308641976,0,0,0.08641975308641976,0,0)" xlink:href="#q"/><use transform="matrix(0.08641975308641976,0,0,0.08641975308641976,17.283950617283953,0)" xlink:href="#r"/><use transform="matrix(0.08641975308641976,0,0,0.08641975308641976,32.839506172839506,0)" xlink:href="#s"/><use transform="matrix(0.08641975308641976,0,0,0.08641975308641976,43.123456790123456,0)" xlink:href="#t"/><use transform="matrix(0.08641975308641976,0,0,0.08641975308641976,60.407407407407405,0)" xlink:href="#u"/><use transform="matrix(0.08641975308641976,0,0,0.08641975308641976,77.69135802469135,0)" xlink:href="#v"/><use transform="matrix(0.08641975308641976,0,0,0.08641975308641976,94.9753086419753,0)" xlink:href="#l"/></g><path d="M179-190L93 31C79 59 56 82 12 73V49c39 6 53-20 64-50L1-190h34L92-34l54-156h33" id="w"/><path d="M59-47c-2 24 18 29 38 22v24C64 9 27 4 27-40v-127H5v-23h24l9-43h21v43h35v23H59v120" id="x"/><g id="d"><use transform="matrix(0.07407407407407408,0,0,0.07407407407407408,0,0)" xlink:href="#r"/><use transform="matrix(0.07407407407407408,0,0,0.07407407407407408,13.333333333333336,0)" xlink:href="#w"/><use transform="matrix(0.07407407407407408,0,0,0.07407407407407408,26.66666666666667,0)" xlink:href="#r"/><use transform="matrix(0.07407407407407408,0,0,0.07407407407407408,40.00000000000001,0)" xlink:href="#x"/><use transform="matrix(0.07407407407407408,0,0,0.07407407407407408,47.40740740740742,0)" xlink:href="#p"/><use transform="matrix(0.07407407407407408,0,0,0.07407407407407408,62.222222222222236,0)" xlink:href="#o"/></g><path d="M101-234c-31-9-42 10-38 44h38v23H63V0H32v-167H5v-23h27c-7-52 17-82 69-68v24" id="y"/><g id="e"><use transform="matrix(0.07407407407407408,0,0,0.07407407407407408,0,0)" xlink:href="#r"/><use transform="matrix(0.07407407407407408,0,0,0.07407407407407408,13.333333333333336,0)" xlink:href="#x"/><use transform="matrix(0.07407407407407408,0,0,0.07407407407407408,20.740740740740744,0)" xlink:href="#q"/><use transform="matrix(0.07407407407407408,0,0,0.07407407407407408,35.55555555555556,0)" xlink:href="#y"/><use transform="matrix(0.07407407407407408,0,0,0.07407407407407408,42.44444444444444,0)" xlink:href="#y"/></g><path d="M87 75C49 33 22-17 22-94c0-76 28-126 65-167h31c-38 41-64 92-64 168S80 34 118 75H87" id="z"/><g id="f"><use transform="matrix(0.06790123456790124,0,0,0.06790123456790124,0,0)" xlink:href="#z"/><use transform="matrix(0.06790123456790124,0,0,0.06790123456790124,8.080246913580249,0)" xlink:href="#s"/><use transform="matrix(0.06790123456790124,0,0,0.06790123456790124,16.160493827160497,0)" xlink:href="#n"/><use transform="matrix(0.06790123456790124,0,0,0.06790123456790124,29.740740740740748,0)" xlink:href="#n"/><use transform="matrix(0.06790123456790124,0,0,0.06790123456790124,43.320987654320994,0)" xlink:href="#x"/></g><path d="M85-194c31 0 48 13 60 33l-1-100h32l1 261h-30c-2-10 0-23-3-31C134-8 116 4 85 4 32 4 16-35 15-94c0-66 23-100 70-100zm9 24c-40 0-46 34-46 75 0 40 6 74 45 74 42 0 51-32 51-76 0-42-9-74-50-73" id="A"/><path d="M24-231v-30h32v30H24zM24 0v-190h32V0H24" id="B"/><path d="M96-169c-40 0-48 33-48 73s9 75 48 75c24 0 41-14 43-38l32 2c-6 37-31 61-74 61-59 0-76-41-82-99-10-93 101-131 147-64 4 7 5 14 7 22l-32 3c-4-21-16-35-41-35" id="C"/><path d="M33-261c38 41 65 92 65 168S71 34 33 75H2C39 34 66-17 66-93S39-220 2-261h31" id="D"/><g id="g"><use transform="matrix(0.06790123456790124,0,0,0.06790123456790124,0,0)" xlink:href="#A"/><use transform="matrix(0.06790123456790124,0,0,0.06790123456790124,13.580246913580249,0)" xlink:href="#B"/><use transform="matrix(0.06790123456790124,0,0,0.06790123456790124,18.944444444444446,0)" xlink:href="#s"/><use transform="matrix(0.06790123456790124,0,0,0.06790123456790124,27.024691358024697,0)" xlink:href="#p"/><use transform="matrix(0.06790123456790124,0,0,0.06790123456790124,40.604938271604944,0)" xlink:href="#C"/><use transform="matrix(0.06790123456790124,0,0,0.06790123456790124,52.827160493827165,0)" xlink:href="#x"/><use transform="matrix(0.06790123456790124,0,0,0.06790123456790124,59.61728395061729,0)" xlink:href="#n"/><use transform="matrix(0.06790123456790124,0,0,0.06790123456790124,73.19753086419755,0)" xlink:href="#s"/><use transform="matrix(0.06790123456790124,0,0,0.06790123456790124,81.2777777777778,0)" xlink:href="#w"/><use transform="matrix(0.06790123456790124,0,0,0.06790123456790124,93.50000000000003,0)" xlink:href="#D"/></g><path d="M117-194c89-4 53 116 60 194h-32v-121c0-31-8-49-39-48C34-167 62-67 57 0H25l-1-190h30c1 10-1 24 2 32 11-22 29-35 61-36" id="E"/><path d="M115-194c53 0 69 39 70 98 0 66-23 100-70 100C84 3 66-7 56-30L54 0H23l1-261h32v101c10-23 28-34 59-34zm-8 174c40 0 45-34 45-75 0-40-5-75-45-74-42 0-51 32-51 76 0 43 10 73 51 73" id="F"/><path d="M141-36C126-15 110 5 73 4 37 3 15-17 15-53c-1-64 63-63 125-63 3-35-9-54-41-54-24 1-41 7-42 31l-33-3c5-37 33-52 76-52 45 0 72 20 72 64v82c-1 20 7 32 28 27v20c-31 9-61-2-59-35zM48-53c0 20 12 33 32 33 41-3 63-29 60-74-43 2-92-5-92 41" id="G"/><path d="M143 0L79-87 56-68V0H24v-261h32v163l83-92h37l-77 82L181 0h-38" id="H"/><path d="M115-194c55 1 70 41 70 98S169 2 115 4C84 4 66-9 55-30l1 105H24l-1-265h31l2 30c10-21 28-34 59-34zm-8 174c40 0 45-34 45-75s-6-73-45-74c-42 0-51 32-51 76 0 43 10 73 51 73" id="I"/><g id="h"><use transform="matrix(0.08641975308641976,0,0,0.08641975308641976,0,0)" xlink:href="#E"/><use transform="matrix(0.08641975308641976,0,0,0.08641975308641976,17.283950617283953,0)" xlink:href="#n"/><use transform="matrix(0.08641975308641976,0,0,0.08641975308641976,34.567901234567906,0)" xlink:href="#F"/><use transform="matrix(0.08641975308641976,0,0,0.08641975308641976,51.851851851851855,0)" xlink:href="#G"/><use transform="matrix(0.08641975308641976,0,0,0.08641975308641976,69.13580246913581,0)" xlink:href="#C"/><use transform="matrix(0.08641975308641976,0,0,0.08641975308641976,84.69135802469137,0)" xlink:href="#H"/><use transform="matrix(0.08641975308641976,0,0,0.08641975308641976,100.24691358024693,0)" xlink:href="#q"/><use transform="matrix(0.08641975308641976,0,0,0.08641975308641976,117.53086419753087,0)" xlink:href="#I"/><use transform="matrix(0.08641975308641976,0,0,0.08641975308641976,134.81481481481484,0)" xlink:href="#l"/></g><path d="M24-231v-30h32v30H24zM-9 49c24 4 33-6 33-30v-209h32V24c2 40-23 58-65 49V49" id="J"/><g id="i"><use transform="matrix(0.08641975308641976,0,0,0.08641975308641976,0,0)" xlink:href="#I"/><use transform="matrix(0.08641975308641976,0,0,0.08641975308641976,17.283950617283953,0)" xlink:href="#s"/><use transform="matrix(0.08641975308641976,0,0,0.08641975308641976,27.567901234567906,0)" xlink:href="#n"/><use transform="matrix(0.08641975308641976,0,0,0.08641975308641976,44.85185185185187,0)" xlink:href="#J"/><use transform="matrix(0.08641975308641976,0,0,0.08641975308641976,51.67901234567903,0)" xlink:href="#p"/><use transform="matrix(0.08641975308641976,0,0,0.08641975308641976,68.96296296296298,0)" xlink:href="#C"/><use transform="matrix(0.08641975308641976,0,0,0.08641975308641976,84.51851851851853,0)" xlink:href="#x"/><use transform="matrix(0.08641975308641976,0,0,0.08641975308641976,93.16049382716051,0)" xlink:href="#l"/></g><path d="M155-56V0h-30v-56H8v-25l114-167h33v167h35v25h-35zm-30-156c-27 46-58 90-88 131h88v-131" id="K"/><path d="M54-142c48-35 137-8 131 61C196 18 31 33 14-55l32-4c7 23 22 37 52 37 35-1 51-22 54-58 4-55-73-65-99-34H22l8-134h141v27H59" id="L"/><g id="j"><use transform="matrix(0.08641975308641976,0,0,0.08641975308641976,0,0)" xlink:href="#E"/><use transform="matrix(0.08641975308641976,0,0,0.08641975308641976,17.283950617283953,0)" xlink:href="#p"/><use transform="matrix(0.08641975308641976,0,0,0.08641975308641976,34.567901234567906,0)" xlink:href="#r"/><use transform="matrix(0.08641975308641976,0,0,0.08641975308641976,50.12345679012346,0)" xlink:href="#B"/><use transform="matrix(0.08641975308641976,0,0,0.08641975308641976,56.95061728395062,0)" xlink:href="#t"/><use transform="matrix(0.08641975308641976,0,0,0.08641975308641976,74.23456790123457,0)" xlink:href="#u"/><use transform="matrix(0.08641975308641976,0,0,0.08641975308641976,91.51851851851853,0)" xlink:href="#v"/><use transform="matrix(0.08641975308641976,0,0,0.08641975308641976,108.80246913580245,0)" xlink:href="#K"/><use transform="matrix(0.08641975308641976,0,0,0.08641975308641976,126.08641975308642,0)" xlink:href="#L"/><use transform="matrix(0.08641975308641976,0,0,0.08641975308641976,143.37037037037038,0)" xlink:href="#l"/></g><g id="k"><use transform="matrix(0.08641975308641976,0,0,0.08641975308641976,0,0)" xlink:href="#E"/><use transform="matrix(0.08641975308641976,0,0,0.08641975308641976,17.283950617283953,0)" xlink:href="#p"/><use transform="matrix(0.08641975308641976,0,0,0.08641975308641976,34.567901234567906,0)" xlink:href="#r"/><use transform="matrix(0.08641975308641976,0,0,0.08641975308641976,50.12345679012346,0)" xlink:href="#B"/><use transform="matrix(0.08641975308641976,0,0,0.08641975308641976,56.95061728395062,0)" xlink:href="#l"/></g></defs></g></svg>