<svg version="1.1" viewBox="0.0 0.0 960.0 540.0" fill="none" stroke="none" stroke-linecap="square" stroke-miterlimit="10" xmlns:xlink="http://www.w3.org/1999/xlink" xmlns="http://www.w3.org/2000/svg"><clipPath id="p.0"><path d="m0 0l960.0 0l0 540.0l-960.0 0l0 -540.0z" clip-rule="nonzero"/></clipPath><g clip-path="url(#p.0)"><path fill="#ffffff" d="m0 0l960.0 0l0 540.0l-960.0 0z" fill-rule="evenodd"/><path fill="#990000" d="m912.2998 78.24702l8.062988 0l0 37.322838l-8.062988 0z" fill-rule="evenodd"/><path fill="#990000" d="m898.9863 86.42612l8.062988 0l0 37.322838l-8.062988 0z" fill-rule="evenodd"/><path fill="#990000" d="m871.0082 68.24789l8.062988 0l0 47.496063l-8.062988 0z" fill-rule="evenodd"/><path fill="#000000" d="m428.58044 363.39368l18.236206 -3.9685059l12.661407 59.18109l-18.236206 3.9685059z" fill-rule="evenodd"/><path fill="#ffffff" d="m476.66058 316.32047c4.2055054 19.519684 -15.973511 35.850403 -11.768005 55.370087l-14.630707 -1.9133911c-4.2055054 -19.519684 15.973511 -35.850403 11.768005 -55.370087z" fill-rule="evenodd"/><path stroke="#595959" stroke-width="1.0" stroke-linejoin="round" stroke-linecap="butt" d="m476.66058 316.32047c4.2055054 19.519684 -15.973511 35.850403 -11.768005 55.370087l-14.630707 -1.9133911c-4.2055054 -19.519684 15.973511 -35.850403 11.768005 -55.370087z" fill-rule="evenodd"/><defs><linearGradient id="p.1" gradientUnits="userSpaceOnUse" gradientTransform="matrix(6.753252715868813 0.0 0.0 6.753252715868813 0.0 0.0)" spreadMethod="pad" x1="60.631434485511" y1="36.3046656193987" x2="60.63141019469861" y2="43.057918335223825"><stop offset="0.0" stop-color="#9a9a9a"/><stop offset="0.5" stop-color="#8d8d8d"/><stop offset="1.0" stop-color="#787878"/></linearGradient></defs><path fill="url(#p.1)" d="m409.4594 267.97787l0 0c0 -12.593842 8.037964 -22.803162 17.953339 -22.803162l0 0c4.761505 0 9.328003 2.4024658 12.694916 6.678879c3.3669128 4.276413 5.258423 10.076492 5.258423 16.124283l0 0c0 12.593811 -8.037994 22.803131 -17.953339 22.803131l0 0c-9.915375 0 -17.953339 -10.20932 -17.953339 -22.803131z" fill-rule="evenodd"/><path stroke="#000000" stroke-width="1.0" stroke-miterlimit="8.0" stroke-linecap="butt" d="m409.4594 267.97787l0 0c0 -12.593842 8.037964 -22.803162 17.953339 -22.803162l0 0c4.761505 0 9.328003 2.4024658 12.694916 6.678879c3.3669128 4.276413 5.258423 10.076492 5.258423 16.124283l0 0c0 12.593811 -8.037994 22.803131 -17.953339 22.803131l0 0c-9.915375 0 -17.953339 -10.20932 -17.953339 -22.803131z" fill-rule="evenodd"/><path fill="#000000" d="m413.92853 356.0155l17.543304 6.362213l-20.850372 56.81891l-17.543304 -6.362213z" fill-rule="evenodd"/><path fill="#000000" d="m407.928 297.7719l0 0c0 -3.5884094 2.908966 -6.4973755 6.4973755 -6.4973755l25.988739 0l0 0c1.7232056 0 3.375824 0.6845398 4.59433 1.9030457c1.2185059 1.2184753 1.9030457 2.8711243 1.9030457 4.59433l0 50.46982c0 3.5884094 -2.9089966 6.4973755 -6.4973755 6.4973755l-25.988739 0c-3.5884094 0 -6.4973755 -2.908966 -6.4973755 -6.4973755z" fill-rule="evenodd"/><path stroke="#000000" stroke-width="1.0" stroke-miterlimit="8.0" stroke-linecap="butt" d="m407.928 297.7719l0 0c0 -3.5884094 2.908966 -6.4973755 6.4973755 -6.4973755l25.988739 0l0 0c1.7232056 0 3.375824 0.6845398 4.59433 1.9030457c1.2185059 1.2184753 1.9030457 2.8711243 1.9030457 4.59433l0 50.46982c0 3.5884094 -2.9089966 6.4973755 -6.4973755 6.4973755l-25.988739 0c-3.5884094 0 -6.4973755 -2.908966 -6.4973755 -6.4973755z" fill-rule="evenodd"/><defs><linearGradient id="p.2" gradientUnits="userSpaceOnUse" gradientTransform="matrix(-2.5162150065963846 5.287472106427982 -5.287472106427982 -2.5162150065963846 0.0 0.0)" spreadMethod="pad" x1="14.977523858435196" y1="-85.44331594054" x2="14.977504598614527" y2="-80.15584383414709"><stop offset="0.0" stop-color="#9a9a9a"/><stop offset="0.5" stop-color="#8d8d8d"/><stop offset="1.0" stop-color="#787878"/></linearGradient></defs><path fill="url(#p.2)" d="m414.09244 294.18698l-4.0918274 8.598419l-28.008484 -13.196838l4.0918274 -8.598419z" fill-rule="evenodd"/><defs><linearGradient id="p.3" gradientUnits="userSpaceOnUse" gradientTransform="matrix(5.279188070640796 -2.8463185994986944 2.8463185994986944 5.279188070640796 0.0 0.0)" spreadMethod="pad" x1="41.17930665607168" y1="78.79627472991395" x2="41.17928614265987" y2="84.07546280051488"><stop offset="0.0" stop-color="#9a9a9a"/><stop offset="0.5" stop-color="#8d8d8d"/><stop offset="1.0" stop-color="#787878"/></linearGradient></defs><path fill="url(#p.3)" d="m441.6726 298.77094l7.0100403 -3.779541l15.193756 27.779541l-7.010071 3.779541z" fill-rule="evenodd"/><path stroke="#000000" stroke-width="1.0" stroke-miterlimit="8.0" stroke-linecap="butt" d="m441.6726 298.77094l7.0100403 -3.779541l15.193756 27.779541l-7.010071 3.779541z" fill-rule="evenodd"/><defs><linearGradient id="p.4" gradientUnits="userSpaceOnUse" gradientTransform="matrix(-1.1245514851454295 6.947879280397638 6.947879280397638 1.1245514851454295 0.0 0.0)" spreadMethod="pad" x1="34.9159706395115" y1="70.92757090629905" x2="34.91594441907625" y2="77.87545018664721"><stop offset="0.0" stop-color="#9a9a9a"/><stop offset="0.5" stop-color="#8d8d8d"/><stop offset="1.0" stop-color="#787878"/></linearGradient></defs><path fill="url(#p.4)" d="m453.49533 322.57635l-0.8564148 5.291321l48.309082 7.590576l0.8564148 -5.2913513z" fill-rule="evenodd"/><path stroke="#000000" stroke-width="1.0" stroke-miterlimit="8.0" stroke-linecap="butt" d="m453.49533 322.57635l-0.8564148 5.291321l48.309082 7.590576l0.8564148 -5.2913513z" fill-rule="evenodd"/><defs><linearGradient id="p.5" gradientUnits="userSpaceOnUse" gradientTransform="matrix(1.7438242387916318 -5.506813378276961 5.506813378276961 1.7438242387916318 0.0 0.0)" spreadMethod="pad" x1="-27.748436971871765" y1="73.18293808001393" x2="-27.748456496205137" y2="78.68975145825628"><stop offset="0.0" stop-color="#9a9a9a"/><stop offset="0.5" stop-color="#8d8d8d"/><stop offset="1.0" stop-color="#787878"/></linearGradient></defs><path fill="url(#p.5)" d="m354.6164 280.42365l2.3937073 -7.5590515l30.393707 9.385834l-2.3937073 7.5590515z" fill-rule="evenodd"/><path fill="#ffffff" d="m457.1932 311.69846c-12.4314575 6.727051 4.91391 19.477692 -7.5175476 26.204742l17.86612 3.6141663c12.4314575 -6.727051 -4.91391 -19.477692 7.5175476 -26.204712z" fill-rule="evenodd"/><path stroke="#595959" stroke-width="1.0" stroke-linejoin="round" stroke-linecap="butt" d="m457.1932 311.69846c-12.4314575 6.727051 4.91391 19.477692 -7.5175476 26.204742l17.86612 3.6141663c12.4314575 -6.727051 -4.91391 -19.477692 7.5175476 -26.204712z" fill-rule="evenodd"/><path fill="#ffffff" d="m402.83698 378.25607l9.330719 -37.322845l30.503937 0l9.330719 37.322845z" fill-rule="evenodd"/><path stroke="#595959" stroke-width="1.0" stroke-linejoin="round" stroke-linecap="butt" d="m402.83698 378.25607l9.330719 -37.322845l30.503937 0l9.330719 37.322845z" fill-rule="evenodd"/><path fill="#ffffff" d="m420.353 288.23505l15.059937 0l0 0c1.9729004 0 3.572235 1.7424927 3.572235 3.8919678c0 2.149475 -1.5993347 3.8919678 -3.572235 3.8919678l-15.059937 0l0 0c-1.9728699 0 -3.572235 -1.7424927 -3.572235 -3.8919678c0 -2.149475 1.5993652 -3.8919678 3.572235 -3.8919678z" fill-rule="evenodd"/><path stroke="#595959" stroke-width="1.0" stroke-linejoin="round" stroke-linecap="butt" d="m420.353 288.23505l15.059937 0l0 0c1.9729004 0 3.572235 1.7424927 3.572235 3.8919678c0 2.149475 -1.5993347 3.8919678 -3.572235 3.8919678l-15.059937 0l0 0c-1.9728699 0 -3.572235 -1.7424927 -3.572235 -3.8919678c0 -2.149475 1.5993652 -3.8919678 3.572235 -3.8919678z" fill-rule="evenodd"/><path fill="#000000" d="m421.97635 291.65103l2.3575745 -3.8926392l7.072815 0l2.3575745 3.8926392l-2.3575745 3.8926392l-7.072815 0z" fill-rule="evenodd"/><path stroke="#595959" stroke-width="1.0" stroke-linejoin="round" stroke-linecap="butt" d="m421.97635 291.65103l2.3575745 -3.8926392l7.072815 0l2.3575745 3.8926392l-2.3575745 3.8926392l-7.072815 0z" fill-rule="evenodd"/><path fill="#000000" d="m450.6091 422.33762l2.147583 7.055969l-10.737946 0l0 -7.055969z" fill-rule="evenodd"/><path fill="#000000" d="m441.35577 426.09412l0 -9.583405l30.896637 9.583405z" fill-rule="evenodd"/><path fill="#000000" d="m395.1463 418.18835l-2.321106 7.055969l11.60553 0l0 -7.055969z" fill-rule="evenodd"/><path fill="#000000" d="m405.14725 421.94485l0 -9.583374l-33.392914 9.583374z" fill-rule="evenodd"/><path fill="#990000" d="m90.15837 146.33522l6.2391434 0l0 33.829422l-6.2391434 0z" fill-rule="evenodd"/><path fill="#990000" d="m79.85644 153.74876l6.2391434 0l0 33.829422l-6.2391434 0z" fill-rule="evenodd"/><path fill="#990000" d="m58.20692 137.27202l6.239147 0l0 43.05043l-6.239147 0z" fill-rule="evenodd"/><path fill="#000000" d="m77.66137 147.18307l-5.5373 -53.714806l-21.32026 4.754936l5.537304 53.714813z" fill-rule="evenodd"/><path fill="#000000" d="m60.821457 152.26291l11.257393 -19.798004l26.811127 10.063126l-11.257393 19.798004z" fill-rule="evenodd"/><path fill="#990000" d="m192.79039 153.58644l-5.8897552 0l0 33.829422l5.8897552 0z" fill-rule="evenodd"/><path fill="#990000" d="m202.51541 160.99998l-5.8897552 0l0 33.829422l5.8897552 0z" fill-rule="evenodd"/><path fill="#990000" d="m222.95256 144.52324l-5.8897552 0l0 43.05043l5.8897552 0z" fill-rule="evenodd"/><path fill="#000000" d="m204.58755 154.4343l5.2272186 -53.714806l20.126328 4.754936l-5.2272186 53.714813z" fill-rule="evenodd"/><path fill="#000000" d="m220.48444 159.51413l-10.863586 -19.703934l-25.07309 9.969055l10.863586 19.703934z" fill-rule="evenodd"/><path fill="#990000" d="m135.27116 130.81502l4.782303 0l0 39.688477l-4.782303 0z" fill-rule="evenodd"/><path stroke="#595959" stroke-width="1.0" stroke-linejoin="round" stroke-linecap="butt" d="m135.27116 130.81502l4.782303 0l0 39.688477l-4.782303 0z" fill-rule="evenodd"/><path fill="#990000" d="m150.03741 130.81502l4.782303 0l0 39.688477l-4.782303 0z" fill-rule="evenodd"/><path stroke="#595959" stroke-width="1.0" stroke-linejoin="round" stroke-linecap="butt" d="m150.03741 130.81502l4.782303 0l0 39.688477l-4.782303 0z" fill-rule="evenodd"/><path fill="#990000" d="m125.851654 153.03474l4.782303 0l0 39.688477l-4.782303 0z" fill-rule="evenodd"/><path stroke="#595959" stroke-width="1.0" stroke-linejoin="round" stroke-linecap="butt" d="m125.851654 153.03474l4.782303 0l0 39.688477l-4.782303 0z" fill-rule="evenodd"/><path fill="#000000" d="m159.60399 129.24663l-1.4757996 -42.344086l-26.73233 1.1765366l1.4757996 42.344078z" fill-rule="evenodd"/><path stroke="#595959" stroke-width="1.0" stroke-linejoin="round" stroke-linecap="butt" d="m159.60399 129.24663l-1.4757996 -42.344086l-26.73233 1.1765366l1.4757996 42.344078z" fill-rule="evenodd"/><path fill="#000000" d="m122.58844 154.29756l13.93364 -24.994186l20.179916 -1.2637634l4.892105 23.815231z" fill-rule="evenodd"/><path stroke="#595959" stroke-width="1.0" stroke-linejoin="round" stroke-linecap="butt" d="m122.58844 154.29756l13.93364 -24.994186l20.179916 -1.2637634l4.892105 23.815231z" fill-rule="evenodd"/><path fill="#990000" d="m156.3404 152.07896l4.782303 0l0 39.688477l-4.782303 0z" fill-rule="evenodd"/><path stroke="#595959" stroke-width="1.0" stroke-linejoin="round" stroke-linecap="butt" d="m156.3404 152.07896l4.782303 0l0 39.688477l-4.782303 0z" fill-rule="evenodd"/><path fill="#000000" d="m133.55345 158.57048l16.215775 0l0 0c2.1243134 0 3.846405 11.318054 3.846405 25.279572c0 13.961517 -1.7220917 25.279572 -3.846405 25.279572l-16.215775 0l0 0c-2.1243134 0 -3.846405 -11.318054 -3.846405 -25.279572c0 -13.961517 1.7220917 -25.279572 3.846405 -25.279572z" fill-rule="evenodd"/><path stroke="#000000" stroke-width="1.0" stroke-linejoin="round" stroke-linecap="butt" d="m133.55345 158.57048l16.215775 0l0 0c2.1243134 0 3.846405 11.318054 3.846405 25.279572c0 13.961517 -1.7220917 25.279572 -3.846405 25.279572l-16.215775 0l0 0c-2.1243134 0 -3.846405 -11.318054 -3.846405 -25.279572c0 -13.961517 1.7220917 -25.279572 3.846405 -25.279572z" fill-rule="evenodd"/><path fill="#000000" d="m115.157166 221.09093l0 -5.9808197l0 0c0 -3.3031158 11.866318 -5.9808044 26.504166 -5.9808044c14.637848 0 26.50418 2.6776886 26.50418 5.9808044l0 5.9808197z" fill-rule="evenodd"/><path stroke="#000000" stroke-width="1.0" stroke-linejoin="round" stroke-linecap="butt" d="m115.157166 221.09093l0 -5.9808197l0 0c0 -3.3031158 11.866318 -5.9808044 26.504166 -5.9808044c14.637848 0 26.50418 2.6776886 26.50418 5.9808044l0 5.9808197z" fill-rule="evenodd"/><path fill="#990000" d="m77.17191 152.24602c0 -12.726456 29.324814 -23.043274 65.49882 -23.043274l0 0c36.173996 0 65.49881 10.316818 65.49881 23.043274l0 0c0 12.726456 -29.324814 23.043274 -65.49881 23.043274l0 0c-36.174004 0 -65.49882 -10.316818 -65.49882 -23.043274z" fill-rule="evenodd"/><path stroke="#000000" stroke-width="1.0" stroke-linejoin="round" stroke-linecap="butt" d="m77.17191 152.24602c0 -12.726456 29.324814 -23.043274 65.49882 -23.043274l0 0c36.173996 0 65.49881 10.316818 65.49881 23.043274l0 0c0 12.726456 -29.324814 23.043274 -65.49881 23.043274l0 0c-36.174004 0 -65.49882 -10.316818 -65.49882 -23.043274z" fill-rule="evenodd"/><path fill="#990000" d="m86.50787 187.34625l6.2391434 0l0 33.829407l-6.2391434 0z" fill-rule="evenodd"/><path fill="#990000" d="m98.94733 187.34564l6.2391434 0l0 33.829422l-6.2391434 0z" fill-rule="evenodd"/><path fill="#000000" d="m107.050964 193.6734l-0.3940277 -54.10057l-21.637947 1.9433289l0.39403534 54.10057z" fill-rule="evenodd"/><path fill="#990000" d="m169.5685 185.78146l6.239151 0l0 33.829422l-6.239151 0z" fill-rule="evenodd"/><path fill="#990000" d="m182.00795 185.78087l6.239151 0l0 33.829407l-6.239151 0z" fill-rule="evenodd"/><path fill="#000000" d="m190.11159 192.10863l-0.3940277 -54.10057l-21.63794 1.9433136l0.3940277 54.10057z" fill-rule="evenodd"/><path fill="#990000" d="m131.49255 315.7275l7.6090546 0l0 38.43506l-7.6090546 0z" fill-rule="evenodd"/><path fill="#990000" d="m118.928665 324.15036l7.609047 0l0 38.43506l-7.609047 0z" fill-rule="evenodd"/><path fill="#990000" d="m92.52566 305.43042l7.609047 0l0 48.911438l-7.609047 0z" fill-rule="evenodd"/><path fill="#000000" d="m116.25164 316.6908l-6.753105 -61.027695l-26.001457 5.402298l6.753105 61.02768z" fill-rule="evenodd"/><path fill="#000000" d="m95.71426 322.46222l13.369865 -22.618988l33.057205 11.558777l-13.369873 22.618988z" fill-rule="evenodd"/><path fill="#990000" d="m256.65906 323.96594l-7.182953 0l0 38.43506l7.182953 0z" fill-rule="evenodd"/><path fill="#990000" d="m268.51935 332.3888l-7.1829224 0l0 38.43506l7.1829224 0z" fill-rule="evenodd"/><path fill="#990000" d="m293.4438 313.66885l-7.1829224 0l0 48.911438l7.1829224 0z" fill-rule="evenodd"/><path fill="#000000" d="m271.04648 324.92923l6.374939 -61.02771l24.54535 5.4022827l-6.3749084 61.02771z" fill-rule="evenodd"/><path fill="#000000" d="m290.43378 330.70065l-12.895691 -22.517303l-30.931473 11.457092l12.895676 22.517303z" fill-rule="evenodd"/><path fill="#990000" d="m186.51056 298.09436l5.8323364 0l0 45.091766l-5.8323364 0z" fill-rule="evenodd"/><path stroke="#595959" stroke-width="1.0" stroke-linejoin="round" stroke-linecap="butt" d="m186.51056 298.09436l5.8323364 0l0 45.091766l-5.8323364 0z" fill-rule="evenodd"/><path fill="#990000" d="m204.51898 298.09436l5.8323364 0l0 45.091766l-5.8323364 0z" fill-rule="evenodd"/><path stroke="#595959" stroke-width="1.0" stroke-linejoin="round" stroke-linecap="butt" d="m204.51898 298.09436l5.8323364 0l0 45.091766l-5.8323364 0z" fill-rule="evenodd"/><path fill="#990000" d="m175.02286 323.33914l5.8323364 0l0 45.091766l-5.8323364 0z" fill-rule="evenodd"/><path stroke="#595959" stroke-width="1.0" stroke-linejoin="round" stroke-linecap="butt" d="m175.02286 323.33914l5.8323364 0l0 45.091766l-5.8323364 0z" fill-rule="evenodd"/><path fill="#000000" d="m216.18604 296.31244l-1.79982 -48.108948l-32.60182 1.3367157l1.79982 48.108932z" fill-rule="evenodd"/><path stroke="#595959" stroke-width="1.0" stroke-linejoin="round" stroke-linecap="butt" d="m216.18604 296.31244l-1.79982 -48.108948l-32.60182 1.3367157l1.79982 48.108932z" fill-rule="evenodd"/><path fill="#000000" d="m171.04315 324.77386l16.237488 -28.352875l26.12175 -1.5239868l5.210724 27.101593z" fill-rule="evenodd"/><path stroke="#595959" stroke-width="1.0" stroke-linejoin="round" stroke-linecap="butt" d="m171.04315 324.77386l16.237488 -28.352875l26.12175 -1.5239868l5.210724 27.101593z" fill-rule="evenodd"/><path fill="#990000" d="m212.20589 322.25323l5.8323364 0l0 45.091766l-5.8323364 0z" fill-rule="evenodd"/><path stroke="#595959" stroke-width="1.0" stroke-linejoin="round" stroke-linecap="butt" d="m212.20589 322.25323l5.8323364 0l0 45.091766l-5.8323364 0z" fill-rule="evenodd"/><path fill="#000000" d="m184.4157 329.6285l19.776215 0l0 0c2.590744 0 4.6909485 12.858948 4.6909485 28.721222c0 15.862274 -2.1002045 28.721191 -4.6909485 28.721191l-19.776215 0l0 0c-2.5907288 0 -4.6909485 -12.858917 -4.6909485 -28.721191c0 -15.862274 2.1002197 -28.721222 4.6909485 -28.721222z" fill-rule="evenodd"/><path stroke="#000000" stroke-width="1.0" stroke-linejoin="round" stroke-linecap="butt" d="m184.4157 329.6285l19.776215 0l0 0c2.590744 0 4.6909485 12.858948 4.6909485 28.721222c0 15.862274 -2.1002045 28.721191 -4.6909485 28.721191l-19.776215 0l0 0c-2.5907288 0 -4.6909485 -12.858917 -4.6909485 -28.721191c0 -15.862274 2.1002197 -28.721222 4.6909485 -28.721222z" fill-rule="evenodd"/><path fill="#000000" d="m161.98022 400.66068l0 -6.795044l0 0c0 -3.7528076 14.471756 -6.7950745 32.323578 -6.7950745c17.851822 0 32.323578 3.0422668 32.323578 6.7950745l0 6.795044z" fill-rule="evenodd"/><path stroke="#000000" stroke-width="1.0" stroke-linejoin="round" stroke-linecap="butt" d="m161.98022 400.66068l0 -6.795044l0 0c0 -3.7528076 14.471756 -6.7950745 32.323578 -6.7950745c17.851822 0 32.323578 3.0422668 32.323578 6.7950745l0 6.795044z" fill-rule="evenodd"/><path fill="#990000" d="m115.65471 322.43732l0 0c0 -14.455902 35.76355 -26.174744 79.88011 -26.174744l0 0c44.116577 0 79.88013 11.718842 79.88013 26.174744l0 0c0 14.455933 -35.76355 26.174774 -79.88013 26.174774l0 0c-44.11656 0 -79.88011 -11.718842 -79.88011 -26.174774z" fill-rule="evenodd"/><path stroke="#000000" stroke-width="1.0" stroke-linejoin="round" stroke-linecap="butt" d="m115.65471 322.43732l0 0c0 -14.455902 35.76355 -26.174744 79.88011 -26.174744l0 0c44.116577 0 79.88013 11.718842 79.88013 26.174744l0 0c0 14.455933 -35.76355 26.174774 -79.88013 26.174774l0 0c-44.11656 0 -79.88011 -11.718842 -79.88011 -26.174774z" fill-rule="evenodd"/><path fill="#990000" d="m127.04053 363.41104l7.6090393 0l0 38.43506l-7.6090393 0z" fill-rule="evenodd"/><path fill="#990000" d="m142.21126 363.41037l7.6090546 0l0 38.43506l-7.6090546 0z" fill-rule="evenodd"/><path fill="#000000" d="m152.09418 370.5996l-0.48054504 -61.466003l-26.388893 2.2079163l0.48054504 61.465973z" fill-rule="evenodd"/><path fill="#990000" d="m228.33842 360.5441l7.6090393 0l0 38.43506l-7.6090393 0z" fill-rule="evenodd"/><path fill="#990000" d="m243.50916 360.5434l7.6090546 0l0 38.43506l-7.6090546 0z" fill-rule="evenodd"/><path fill="#000000" d="m253.39207 367.73264l-0.48054504 -61.465973l-26.388885 2.2078857l0.48054504 61.466003z" fill-rule="evenodd"/><path fill="#990000" d="m348.9765 93.98649l4.7821655 0l0 39.68714l-4.7821655 0z" fill-rule="evenodd"/><path stroke="#595959" stroke-width="1.0" stroke-linejoin="round" stroke-linecap="butt" d="m348.9765 93.98649l4.7821655 0l0 39.68714l-4.7821655 0z" fill-rule="evenodd"/><path fill="#990000" d="m363.74234 93.98649l4.782135 0l0 39.68714l-4.782135 0z" fill-rule="evenodd"/><path stroke="#595959" stroke-width="1.0" stroke-linejoin="round" stroke-linecap="butt" d="m363.74234 93.98649l4.782135 0l0 39.68714l-4.782135 0z" fill-rule="evenodd"/><path fill="#990000" d="m339.55728 116.20546l4.7821655 0l0 39.687134l-4.7821655 0z" fill-rule="evenodd"/><path stroke="#595959" stroke-width="1.0" stroke-linejoin="round" stroke-linecap="butt" d="m339.55728 116.20546l4.7821655 0l0 39.687134l-4.7821655 0z" fill-rule="evenodd"/><path fill="#000000" d="m373.30862 92.418144l-1.475769 -42.342655l-26.731506 1.1764946l1.4757385 42.34265z" fill-rule="evenodd"/><path stroke="#595959" stroke-width="1.0" stroke-linejoin="round" stroke-linecap="butt" d="m373.30862 92.418144l-1.475769 -42.342655l-26.731506 1.1764946l1.4757385 42.34265z" fill-rule="evenodd"/><path fill="#000000" d="m336.29416 117.46824l13.933197 -24.993347l20.179382 -1.2637177l4.8919373 23.81443z" fill-rule="evenodd"/><path stroke="#595959" stroke-width="1.0" stroke-linejoin="round" stroke-linecap="butt" d="m336.29416 117.46824l13.933197 -24.993347l20.179382 -1.2637177l4.8919373 23.81443z" fill-rule="evenodd"/><path fill="#990000" d="m370.04514 115.24971l4.782135 0l0 39.687134l-4.782135 0z" fill-rule="evenodd"/><path stroke="#595959" stroke-width="1.0" stroke-linejoin="round" stroke-linecap="butt" d="m370.04514 115.24971l4.782135 0l0 39.687134l-4.782135 0z" fill-rule="evenodd"/><path fill="#000000" d="m347.26736 113.74634l16.21576 0l0 0c2.1243286 0 3.846405 11.318047 3.846405 25.279556c0 13.961533 -1.7220764 25.279572 -3.846405 25.279572l-16.21576 0l0 0c-2.1243286 0 -3.846405 -11.318039 -3.846405 -25.279572c0 -13.96151 1.7220764 -25.279556 3.846405 -25.279556z" fill-rule="evenodd"/><path stroke="#000000" stroke-width="1.0" stroke-linejoin="round" stroke-linecap="butt" d="m347.26736 113.74634l16.21576 0l0 0c2.1243286 0 3.846405 11.318047 3.846405 25.279556c0 13.961533 -1.7220764 25.279572 -3.846405 25.279572l-16.21576 0l0 0c-2.1243286 0 -3.846405 -11.318039 -3.846405 -25.279572c0 -13.96151 1.7220764 -25.279556 3.846405 -25.279556z" fill-rule="evenodd"/><path fill="#000000" d="m328.87106 176.26677l0 -5.9808044l0 0c0 -3.3031158 11.866333 -5.9808197 26.50418 -5.9808197c14.637848 0 26.50418 2.6777039 26.50418 5.9808197l0 5.9808044z" fill-rule="evenodd"/><path stroke="#000000" stroke-width="1.0" stroke-linejoin="round" stroke-linecap="butt" d="m328.87106 176.26677l0 -5.9808044l0 0c0 -3.3031158 11.866333 -5.9808197 26.50418 -5.9808197c14.637848 0 26.50418 2.6777039 26.50418 5.9808197l0 5.9808044z" fill-rule="evenodd"/><path fill="#990000" d="m290.88583 107.416855c0 -12.723679 29.324799 -23.038261 65.49881 -23.038261l0 0c36.17398 0 65.49881 10.314583 65.49881 23.038261l0 0c0 12.723679 -29.32483 23.038269 -65.49881 23.038269l0 0c-36.17401 0 -65.49881 -10.31459 -65.49881 -23.038269z" fill-rule="evenodd"/><path stroke="#000000" stroke-width="1.0" stroke-linejoin="round" stroke-linecap="butt" d="m290.88583 107.416855c0 -12.723679 29.324799 -23.038261 65.49881 -23.038261l0 0c36.17398 0 65.49881 10.314583 65.49881 23.038261l0 0c0 12.723679 -29.32483 23.038269 -65.49881 23.038269l0 0c-36.17401 0 -65.49881 -10.31459 -65.49881 -23.038269z" fill-rule="evenodd"/><path fill="#990000" d="m300.22177 142.5221l6.2391663 0l0 33.829422l-6.2391663 0z" fill-rule="evenodd"/><path fill="#990000" d="m312.66122 142.5215l6.2391663 0l0 33.829407l-6.2391663 0z" fill-rule="evenodd"/><path fill="#000000" d="m320.7649 148.84926l-0.39404297 -54.10058l-21.63794 1.9433212l0.39401245 54.10057z" fill-rule="evenodd"/><path fill="#990000" d="m383.2824 140.95732l6.2391357 0l0 33.829422l-6.2391357 0z" fill-rule="evenodd"/><path fill="#990000" d="m395.72186 140.95671l6.2391357 0l0 33.829422l-6.2391357 0z" fill-rule="evenodd"/><path fill="#000000" d="m403.8255 147.28448l-0.39401245 -54.10058l-21.63797 1.9433212l0.39404297 54.10057z" fill-rule="evenodd"/><path fill="#000000" d="m60.167107 141.36455l-0.96834946 8.076187l28.245922 6.2370453l0.96834564 -8.076172z" fill-rule="evenodd"/><defs><linearGradient id="p.6" gradientUnits="userSpaceOnUse" gradientTransform="matrix(5.3801834213020765 0.0 0.0 5.3801834213020765 0.0 0.0)" spreadMethod="pad" x1="10.757113936644474" y1="14.543611677547982" x2="10.757093927557307" y2="19.923795098812853"><stop offset="0.0" stop-color="#9a9a9a"/><stop offset="0.5" stop-color="#8d8d8d"/><stop offset="1.0" stop-color="#787878"/></linearGradient></defs><path fill="url(#p.6)" d="m57.875244 92.72052l0 0c0 -7.993309 3.8018417 -14.47316 8.491653 -14.47316l0 0c2.2521286 0 4.41201 1.5248413 6.0045013 4.23909c1.5924988 2.714241 2.487152 6.395546 2.487152 10.23407l0 0c0 7.9933014 -3.8018417 14.47316 -8.491653 14.47316l0 0c-4.6898117 0 -8.491653 -6.4798584 -8.491653 -14.47316z" fill-rule="evenodd"/><path stroke="#000000" stroke-width="1.0" stroke-miterlimit="8.0" stroke-linecap="butt" d="m57.875244 92.72052l0 0c0 -7.993309 3.8018417 -14.47316 8.491653 -14.47316l0 0c2.2521286 0 4.41201 1.5248413 6.0045013 4.23909c1.5924988 2.714241 2.487152 6.395546 2.487152 10.23407l0 0c0 7.9933014 -3.8018417 14.47316 -8.491653 14.47316l0 0c-4.6898117 0 -8.491653 -6.4798584 -8.491653 -14.47316z" fill-rule="evenodd"/><path fill="#000000" d="m80.75123 145.85793l8.297981 4.038086l-9.862236 36.062958l-8.297981 -4.038101z" fill-rule="evenodd"/><path fill="#000000" d="m57.15089 110.58086l0 0c0 -1.6976852 1.3762512 -3.0739365 3.0739403 -3.0739365l12.295395 0l0 0c0.81526184 0 1.5971298 0.32386017 2.1736069 0.9003372c0.57647705 0.5764694 0.9003372 1.358345 0.9003372 2.1735992l0 34.133087c0 1.6976776 -1.3762512 3.0739288 -3.073944 3.0739288l-12.295395 0c-1.697689 0 -3.0739403 -1.3762512 -3.0739403 -3.0739288z" fill-rule="evenodd"/><path stroke="#000000" stroke-width="1.0" stroke-miterlimit="8.0" stroke-linecap="butt" d="m57.15089 110.58086l0 0c0 -1.6976852 1.3762512 -3.0739365 3.0739403 -3.0739365l12.295395 0l0 0c0.81526184 0 1.5971298 0.32386017 2.1736069 0.9003372c0.57647705 0.5764694 0.9003372 1.358345 0.9003372 2.1735992l0 34.133087c0 1.6976776 -1.3762512 3.0739288 -3.073944 3.0739288l-12.295395 0c-1.697689 0 -3.0739403 -1.3762512 -3.0739403 -3.0739288z" fill-rule="evenodd"/><path fill="#000000" d="m60.46103 109.845856l2.5921898 -4.697777l22.912563 23.029121l-2.592186 4.697769z" fill-rule="evenodd"/><path fill="#999999" d="m82.798325 132.57257l0.34264374 -4.1980133l12.990746 1.999054l-0.34264374 4.1980286z" fill-rule="evenodd"/><path fill="#000000" d="m215.85487 149.55171l0.7134552 8.076172l-20.811203 6.2370605l-0.71347046 -8.076187z" fill-rule="evenodd"/><defs><linearGradient id="p.7" gradientUnits="userSpaceOnUse" gradientTransform="matrix(-5.380182944893488 0.0 0.0 5.380182944893488 0.0 0.0)" spreadMethod="pad" x1="-40.43421447872636" y1="16.065339433324464" x2="-40.43423353500154" y2="21.445522378184204"><stop offset="0.0" stop-color="#9a9a9a"/><stop offset="0.5" stop-color="#8d8d8d"/><stop offset="1.0" stop-color="#787878"/></linearGradient></defs><path fill="url(#p.7)" d="m217.54349 100.90768l0 0c0 -7.993309 -2.8011475 -14.47316 -6.256546 -14.47316l0 0c-1.6593323 0 -3.250702 1.5248489 -4.4240265 4.23909c-1.1733398 2.714241 -1.8325043 6.395546 -1.8325043 10.23407l0 0c0 7.9933014 2.8011475 14.47316 6.256531 14.47316l0 0c3.4553986 0 6.256546 -6.4798584 6.256546 -14.47316z" fill-rule="evenodd"/><path stroke="#000000" stroke-width="1.0" stroke-miterlimit="8.0" stroke-linecap="butt" d="m217.54349 100.90768l0 0c0 -7.993309 -2.8011475 -14.47316 -6.256546 -14.47316l0 0c-1.6593323 0 -3.250702 1.5248489 -4.4240265 4.23909c-1.1733398 2.714241 -1.8325043 6.395546 -1.8325043 10.23407l0 0c0 7.9933014 2.8011475 14.47316 6.256531 14.47316l0 0c3.4553986 0 6.256546 -6.4798584 6.256546 -14.47316z" fill-rule="evenodd"/><path fill="#000000" d="m200.68877 154.04507l-6.113846 4.038101l7.2663727 36.062943l6.1138306 -4.038086z" fill-rule="evenodd"/><path fill="#ffffff" d="m218.07718 117.958916l0 0c0 -1.2508392 -1.0140076 -2.2648392 -2.2648468 -2.2648392l-9.059067 0l0 0c-0.6006775 0 -1.1767426 0.23861694 -1.6014862 0.66335297c-0.42474365 0.42474365 -0.6633606 1.0008163 -0.6633606 1.6014862l0 35.75129c0 1.250824 1.0140076 2.2648315 2.2648468 2.2648315l9.059067 0c1.2508392 0 2.2648468 -1.0140076 2.2648468 -2.2648315z" fill-rule="evenodd"/><path stroke="#000000" stroke-width="1.0" stroke-miterlimit="8.0" stroke-linecap="butt" d="m218.07718 117.958916l0 0c0 -1.2508392 -1.0140076 -2.2648392 -2.2648468 -2.2648392l-9.059067 0l0 0c-0.6006775 0 -1.1767426 0.23861694 -1.6014862 0.66335297c-0.42474365 0.42474365 -0.6633606 1.0008163 -0.6633606 1.6014862l0 35.75129c0 1.250824 1.0140076 2.2648315 2.2648468 2.2648315l9.059067 0c1.2508392 0 2.2648468 -1.0140076 2.2648468 -2.2648315z" fill-rule="evenodd"/><path fill="#000000" d="m215.6383 118.03302l-1.9098816 -4.6977844l-16.881668 23.029114l1.9098816 4.6977844z" fill-rule="evenodd"/><path fill="#999999" d="m199.1805 140.75974l-0.25245667 -4.1980133l-9.571411 1.999054l0.25245667 4.1980133z" fill-rule="evenodd"/><defs><linearGradient id="p.8" gradientUnits="userSpaceOnUse" gradientTransform="matrix(5.380050502150829 0.0 0.0 5.380050502150829 0.0 0.0)" spreadMethod="pad" x1="36.101142130565805" y1="41.846296985301464" x2="36.10112307382151" y2="47.22634748741854"><stop offset="0.0" stop-color="#9a9a9a"/><stop offset="0.5" stop-color="#8d8d8d"/><stop offset="1.0" stop-color="#787878"/></linearGradient></defs><path fill="url(#p.8)" d="m194.22597 239.6077l0 0c0 -7.9929047 3.800293 -14.472443 8.48819 -14.472443l0 0c2.2512054 0 4.4102173 1.5247803 6.00206 4.2388916c1.5918427 2.7141113 2.4861298 6.395233 2.4861298 10.233551l0 0c0 7.99292 -3.800293 14.472443 -8.48819 14.472443l0 0c-4.6878967 0 -8.48819 -6.4795227 -8.48819 -14.472443z" fill-rule="evenodd"/><path stroke="#000000" stroke-width="1.0" stroke-miterlimit="8.0" stroke-linecap="butt" d="m194.22597 239.6077l0 0c0 -7.9929047 3.800293 -14.472443 8.48819 -14.472443l0 0c2.2512054 0 4.4102173 1.5247803 6.00206 4.2388916c1.5918427 2.7141113 2.4861298 6.395233 2.4861298 10.233551l0 0c0 7.99292 -3.800293 14.472443 -8.48819 14.472443l0 0c-4.6878967 0 -8.48819 -6.4795227 -8.48819 -14.472443z" fill-rule="evenodd"/><path fill="#ffffff" d="m193.50162 257.471l0 0c0 -1.6989288 1.3772583 -3.0761871 3.0761719 -3.0761871l12.304352 0l0 0c0.8158417 0 1.5982819 0.32409668 2.175171 0.9009857c0.5769043 0.5769043 0.901001 1.3593445 0.901001 2.1752014l0 34.131104c0 1.6989136 -1.3772583 3.0761719 -3.0761719 3.0761719l-12.304352 0c-1.6989136 0 -3.0761719 -1.3772583 -3.0761719 -3.0761719z" fill-rule="evenodd"/><path stroke="#000000" stroke-width="1.0" stroke-miterlimit="8.0" stroke-linecap="butt" d="m193.50162 257.471l0 0c0 -1.6989288 1.3772583 -3.0761871 3.0761719 -3.0761871l12.304352 0l0 0c0.8158417 0 1.5982819 0.32409668 2.175171 0.9009857c0.5769043 0.5769043 0.901001 1.3593445 0.901001 2.1752014l0 34.131104c0 1.6989136 -1.3772583 3.0761719 -3.0761719 3.0761719l-12.304352 0c-1.6989136 0 -3.0761719 -1.3772583 -3.0761719 -3.0761719z" fill-rule="evenodd"/><path fill="#ffffff" d="m196.81175 256.73376l2.5826874 -4.692917l22.897629 23.023636l-2.582672 4.6929016z" fill-rule="evenodd"/><path fill="#999999" d="m219.14905 279.46048l0.34646606 -4.188965l12.976379 1.9842529l-0.34646606 4.188965z" fill-rule="evenodd"/><path fill="#ffffff" d="m205.87167 258.13608l-2.8346405 -4.692917l-25.039368 23.023636l2.8346405 4.6929016z" fill-rule="evenodd"/><path fill="#999999" d="m181.45381 280.86304l-0.37794495 -4.188965l-14.173233 1.9842529l0.3779602 4.188965z" fill-rule="evenodd"/><path fill="#000000" d="m120.501945 138.66318l0 0c0 -2.1374664 8.16172 -3.8702087 18.229729 -3.8702087l0 0c10.067993 0 18.229721 1.7327423 18.229721 3.8702087l0 0c0 2.1374512 -8.161728 3.8702087 -18.229721 3.8702087l0 0c-10.068008 0 -18.229729 -1.7327576 -18.229729 -3.8702087z" fill-rule="evenodd"/><path stroke="#595959" stroke-width="1.0" stroke-linejoin="round" stroke-linecap="butt" d="m120.501945 138.66318l0 0c0 -2.1374664 8.16172 -3.8702087 18.229729 -3.8702087l0 0c10.067993 0 18.229721 1.7327423 18.229721 3.8702087l0 0c0 2.1374512 -8.161728 3.8702087 -18.229721 3.8702087l0 0c-10.068008 0 -18.229729 -1.7327576 -18.229729 -3.8702087z" fill-rule="evenodd"/><path fill="#ffffff" d="m131.34096 132.96387l0 0c-0.16552734 -0.8030243 0.3779602 -1.5979462 1.3998413 -2.0474854c1.0218964 -0.44953918 2.3429718 -0.47483826 3.402649 -0.06517029l0 0c0.37538147 -0.4669037 1.0624084 -0.78926086 1.853302 -0.86958313c0.79089355 -0.080322266 1.5927429 0.09085083 2.1630096 0.4617157l0 0c0.31976318 -0.42332458 0.94763184 -0.7077484 1.6608124 -0.7523346c0.7131653 -0.04458618 1.4107056 0.15696716 1.8450928 0.5331421l0 0c0.577713 -0.4487152 1.4968567 -0.63764954 2.359726 -0.4850464c0.862854 0.15261841 1.5144653 0.6193695 1.6728668 1.198288l0 0c0.70777893 0.1274414 1.2973633 0.45140076 1.616394 0.88819885c0.31903076 0.4367981 0.33621216 0.943573 0.0471344 1.389389l0 0c0.69696045 0.5987854 0.8600006 1.3966522 0.42826843 2.0958557c-0.43173218 0.6992035 -1.3933716 1.1946869 -2.526062 1.3015747c-0.007980347 0.6562195 -0.55319214 1.2583618 -1.4254913 1.5743408c-0.8722992 0.315979 -1.9354553 0.2964325 -2.7797089 -0.051101685c-0.35958862 0.7859497 -1.3717651 1.3642426 -2.5991821 1.4850311c-1.2274323 0.12080383 -2.4500885 -0.23756409 -3.13974 -0.9202423c-0.84536743 0.33650208 -1.8597412 0.4334259 -2.8143005 0.26893616c-0.95454407 -0.164505 -1.7688751 -0.5765686 -2.2592773 -1.1432648l0 0c-0.8638611 0.06674194 -1.6990967 -0.22869873 -2.0911865 -0.73968506c-0.39207458 -0.5109863 -0.25753784 -1.1287384 0.33683777 -1.5466614l0 0c-0.7705841 -0.2993927 -1.1637878 -0.89346313 -0.9745636 -1.4724579c0.18922424 -0.5789795 0.91799927 -1.011673 1.8062897 -1.0724335z" fill-rule="evenodd"/><path fill="#000000" fill-opacity="0.0" d="m130.49216 135.5397l0 0c0.36364746 0.14128113 0.7837372 0.20536804 1.2038727 0.18365479m0.55029297 2.1027527c0.18066406 -0.013961792 0.35775757 -0.043502808 0.52671814 -0.087905884m4.5466003 0.9621887c-0.1270752 -0.12579346 -0.23347473 -0.26020813 -0.31736755 -0.40097046m6.0565186 -0.16383362l0 0c0.06556702 -0.14329529 0.108047485 -0.29077148 0.12672424 -0.43997192m4.0783234 -1.0832214c0.0084991455 -0.6986542 -0.5926666 -1.3383636 -1.5452576 -1.6443329m3.6430206 -1.7530212c-0.15426636 0.23789978 -0.38978577 0.4489441 -0.6880646 0.61657715m-0.97532654 -2.894226l0 0c0.026290894 0.096069336 0.03845215 0.19358826 0.036331177 0.29119873m-4.0688477 -1.0044098l0 0c-0.144104 0.11193848 -0.26283264 0.23703003 -0.3524933 0.3713684m-3.1534424 -0.15222168l0 0c-0.076797485 0.10166931 -0.13415527 0.20925903 -0.17073059 0.32028198m-3.845642 0.08760071l0 0c0.2242279 0.08668518 0.43167114 0.19102478 0.61776733 0.31071472m-5.4201965 1.8019409l0 0c0.02281189 0.110672 0.05886841 0.21998596 0.1078186 0.3269043" fill-rule="evenodd"/><path stroke="#595959" stroke-width="1.0" stroke-linejoin="round" stroke-linecap="butt" d="m131.34096 132.96387l0 0c-0.16552734 -0.8030243 0.3779602 -1.5979462 1.3998413 -2.0474854c1.0218964 -0.44953918 2.3429718 -0.47483826 3.402649 -0.06517029l0 0c0.37538147 -0.4669037 1.0624084 -0.78926086 1.853302 -0.86958313c0.79089355 -0.080322266 1.5927429 0.09085083 2.1630096 0.4617157l0 0c0.31976318 -0.42332458 0.94763184 -0.7077484 1.6608124 -0.7523346c0.7131653 -0.04458618 1.4107056 0.15696716 1.8450928 0.5331421l0 0c0.577713 -0.4487152 1.4968567 -0.63764954 2.359726 -0.4850464c0.862854 0.15261841 1.5144653 0.6193695 1.6728668 1.198288l0 0c0.70777893 0.1274414 1.2973633 0.45140076 1.616394 0.88819885c0.31903076 0.4367981 0.33621216 0.943573 0.0471344 1.389389l0 0c0.69696045 0.5987854 0.8600006 1.3966522 0.42826843 2.0958557c-0.43173218 0.6992035 -1.3933716 1.1946869 -2.526062 1.3015747c-0.007980347 0.6562195 -0.55319214 1.2583618 -1.4254913 1.5743408c-0.8722992 0.315979 -1.9354553 0.2964325 -2.7797089 -0.051101685c-0.35958862 0.7859497 -1.3717651 1.3642426 -2.5991821 1.4850311c-1.2274323 0.12080383 -2.4500885 -0.23756409 -3.13974 -0.9202423c-0.84536743 0.33650208 -1.8597412 0.4334259 -2.8143005 0.26893616c-0.95454407 -0.164505 -1.7688751 -0.5765686 -2.2592773 -1.1432648l0 0c-0.8638611 0.06674194 -1.6990967 -0.22869873 -2.0911865 -0.73968506c-0.39207458 -0.5109863 -0.25753784 -1.1287384 0.33683777 -1.5466614l0 0c-0.7705841 -0.2993927 -1.1637878 -0.89346313 -0.9745636 -1.4724579c0.18922424 -0.5789795 0.91799927 -1.011673 1.8062897 -1.0724335z" fill-rule="evenodd"/><path stroke="#595959" stroke-width="1.0" stroke-linejoin="round" stroke-linecap="butt" d="m130.49216 135.5397l0 0c0.36364746 0.14128113 0.7837372 0.20536804 1.2038727 0.18365479m0.55029297 2.1027527c0.18066406 -0.013961792 0.35775757 -0.043502808 0.52671814 -0.087905884m4.5466003 0.9621887c-0.1270752 -0.12579346 -0.23347473 -0.26020813 -0.31736755 -0.40097046m6.0565186 -0.16383362l0 0c0.06556702 -0.14329529 0.108047485 -0.29077148 0.12672424 -0.43997192m4.0783234 -1.0832214c0.0084991455 -0.6986542 -0.5926666 -1.3383636 -1.5452576 -1.6443329m3.6430206 -1.7530212c-0.15426636 0.23789978 -0.38978577 0.4489441 -0.6880646 0.61657715m-0.97532654 -2.894226l0 0c0.026290894 0.096069336 0.03845215 0.19358826 0.036331177 0.29119873m-4.0688477 -1.0044098l0 0c-0.144104 0.11193848 -0.26283264 0.23703003 -0.3524933 0.3713684m-3.1534424 -0.15222168l0 0c-0.076797485 0.10166931 -0.13415527 0.20925903 -0.17073059 0.32028198m-3.845642 0.08760071l0 0c0.2242279 0.08668518 0.43167114 0.19102478 0.61776733 0.31071472m-5.4201965 1.8019409l0 0c0.02281189 0.110672 0.05886841 0.21998596 0.1078186 0.3269043" fill-rule="evenodd"/><path fill="#000000" d="m90.83031 151.97661l0 0c0 -2.1374512 8.161728 -3.8702087 18.229721 -3.8702087l0 0c10.068001 0 18.229721 1.7327576 18.229721 3.8702087l0 0c0 2.1374664 -8.16172 3.8702087 -18.229721 3.8702087l0 0c-10.067993 0 -18.229721 -1.7327423 -18.229721 -3.8702087z" fill-rule="evenodd"/><path stroke="#595959" stroke-width="1.0" stroke-linejoin="round" stroke-linecap="butt" d="m90.83031 151.97661l0 0c0 -2.1374512 8.161728 -3.8702087 18.229721 -3.8702087l0 0c10.068001 0 18.229721 1.7327576 18.229721 3.8702087l0 0c0 2.1374664 -8.16172 3.8702087 -18.229721 3.8702087l0 0c-10.067993 0 -18.229721 -1.7327423 -18.229721 -3.8702087z" fill-rule="evenodd"/><path fill="#ffffff" d="m101.66932 146.2773l0 0c-0.16553497 -0.80300903 0.37795258 -1.5979462 1.3998489 -2.0474854c1.0218887 -0.44953918 2.3429642 -0.47483826 3.402649 -0.06515503l0 0c0.3753662 -0.46691895 1.0624084 -0.7892761 1.8532944 -0.8695984c0.79089355 -0.080322266 1.5927429 0.09085083 2.1630096 0.46173096l0 0c0.31976318 -0.42333984 0.94763184 -0.7077484 1.6608047 -0.75234985c0.7131729 -0.04458618 1.4107132 0.15696716 1.8451004 0.5331421l0 0c0.5777054 -0.4487152 1.4968567 -0.63764954 2.3597183 -0.48503113c0.86286926 0.15260315 1.514473 0.61935425 1.6728668 1.1982727l0 0c0.7077942 0.1274414 1.2973709 0.45141602 1.6164017 0.88819885c0.31903076 0.4367981 0.3362198 0.943573 0.0471344 1.389389l0 0c0.69696045 0.5987854 0.8600006 1.3966522 0.42826843 2.0958557c-0.43173218 0.6992035 -1.3933716 1.1947021 -2.5260544 1.3015747c-0.007987976 0.6562195 -0.55319977 1.2583771 -1.425499 1.5743408c-0.87229156 0.315979 -1.9354553 0.2964325 -2.7797012 -0.051101685c-0.35960388 0.7859497 -1.3717651 1.3642426 -2.5991974 1.4850464c-1.2274323 0.120788574 -2.4500885 -0.23756409 -3.13974 -0.92025757c-0.84536743 0.33650208 -1.8597336 0.4334259 -2.8142853 0.26893616c-0.9545593 -0.16448975 -1.7688828 -0.5765686 -2.2592926 -1.1432495l0 0c-0.86385345 0.066726685 -1.699089 -0.22871399 -2.0911713 -0.7397003c-0.3920822 -0.5109863 -0.2575531 -1.1287384 0.33683014 -1.5466614l0 0c-0.77059174 -0.2993927 -1.1637878 -0.89346313 -0.9745636 -1.4724579c0.18922424 -0.5789795 0.91799927 -1.011673 1.8062897 -1.0724335z" fill-rule="evenodd"/><path fill="#000000" fill-opacity="0.0" d="m100.82052 148.85313l0 0c0.36363983 0.14128113 0.7837372 0.20536804 1.2038727 0.18365479m0.55028534 2.1027527c0.18067932 -0.013946533 0.35777283 -0.043502808 0.52671814 -0.087890625m4.546608 0.96217346c-0.1270752 -0.12579346 -0.2334671 -0.26020813 -0.31736755 -0.40097046m6.0565186 -0.16383362l0 0c0.06556702 -0.14329529 0.108039856 -0.29077148 0.12673187 -0.43997192m4.078308 -1.0832214c0.0084991455 -0.6986542 -0.59265137 -1.3383484 -1.5452423 -1.6443176m3.643013 -1.7530365c-0.15427399 0.23791504 -0.38977814 0.4489441 -0.6880646 0.61657715m-0.97532654 -2.894226l0 0c0.026290894 0.096069336 0.03845215 0.19358826 0.036331177 0.29119873m-4.0688477 -1.0044098l0 0c-0.14411163 0.11193848 -0.26284027 0.23703003 -0.35248566 0.3713684m-3.1534576 -0.15222168l0 0c-0.076797485 0.10166931 -0.13414764 0.20925903 -0.17072296 0.32028198m-3.8456345 0.08760071l0 0c0.22422028 0.08668518 0.4316635 0.19102478 0.6177597 0.31071472m-5.4201965 1.8019409l0 0c0.022819519 0.110672 0.05886841 0.21998596 0.107810974 0.3269043" fill-rule="evenodd"/><path stroke="#595959" stroke-width="1.0" stroke-linejoin="round" stroke-linecap="butt" d="m101.66932 146.2773l0 0c-0.16553497 -0.80300903 0.37795258 -1.5979462 1.3998489 -2.0474854c1.0218887 -0.44953918 2.3429642 -0.47483826 3.402649 -0.06515503l0 0c0.3753662 -0.46691895 1.0624084 -0.7892761 1.8532944 -0.8695984c0.79089355 -0.080322266 1.5927429 0.09085083 2.1630096 0.46173096l0 0c0.31976318 -0.42333984 0.94763184 -0.7077484 1.6608047 -0.75234985c0.7131729 -0.04458618 1.4107132 0.15696716 1.8451004 0.5331421l0 0c0.5777054 -0.4487152 1.4968567 -0.63764954 2.3597183 -0.48503113c0.86286926 0.15260315 1.514473 0.61935425 1.6728668 1.1982727l0 0c0.7077942 0.1274414 1.2973709 0.45141602 1.6164017 0.88819885c0.31903076 0.4367981 0.3362198 0.943573 0.0471344 1.389389l0 0c0.69696045 0.5987854 0.8600006 1.3966522 0.42826843 2.0958557c-0.43173218 0.6992035 -1.3933716 1.1947021 -2.5260544 1.3015747c-0.007987976 0.6562195 -0.55319977 1.2583771 -1.425499 1.5743408c-0.87229156 0.315979 -1.9354553 0.2964325 -2.7797012 -0.051101685c-0.35960388 0.7859497 -1.3717651 1.3642426 -2.5991974 1.4850464c-1.2274323 0.120788574 -2.4500885 -0.23756409 -3.13974 -0.92025757c-0.84536743 0.33650208 -1.8597336 0.4334259 -2.8142853 0.26893616c-0.9545593 -0.16448975 -1.7688828 -0.5765686 -2.2592926 -1.1432495l0 0c-0.86385345 0.066726685 -1.699089 -0.22871399 -2.0911713 -0.7397003c-0.3920822 -0.5109863 -0.2575531 -1.1287384 0.33683014 -1.5466614l0 0c-0.77059174 -0.2993927 -1.1637878 -0.89346313 -0.9745636 -1.4724579c0.18922424 -0.5789795 0.91799927 -1.011673 1.8062897 -1.0724335z" fill-rule="evenodd"/><path stroke="#595959" stroke-width="1.0" stroke-linejoin="round" stroke-linecap="butt" d="m100.82052 148.85313l0 0c0.36363983 0.14128113 0.7837372 0.20536804 1.2038727 0.18365479m0.55028534 2.1027527c0.18067932 -0.013946533 0.35777283 -0.043502808 0.52671814 -0.087890625m4.546608 0.96217346c-0.1270752 -0.12579346 -0.2334671 -0.26020813 -0.31736755 -0.40097046m6.0565186 -0.16383362l0 0c0.06556702 -0.14329529 0.108039856 -0.29077148 0.12673187 -0.43997192m4.078308 -1.0832214c0.0084991455 -0.6986542 -0.59265137 -1.3383484 -1.5452423 -1.6443176m3.643013 -1.7530365c-0.15427399 0.23791504 -0.38977814 0.4489441 -0.6880646 0.61657715m-0.97532654 -2.894226l0 0c0.026290894 0.096069336 0.03845215 0.19358826 0.036331177 0.29119873m-4.0688477 -1.0044098l0 0c-0.14411163 0.11193848 -0.26284027 0.23703003 -0.35248566 0.3713684m-3.1534576 -0.15222168l0 0c-0.076797485 0.10166931 -0.13414764 0.20925903 -0.17072296 0.32028198m-3.8456345 0.08760071l0 0c0.22422028 0.08668518 0.4316635 0.19102478 0.6177597 0.31071472m-5.4201965 1.8019409l0 0c0.022819519 0.110672 0.05886841 0.21998596 0.107810974 0.3269043" fill-rule="evenodd"/><defs><linearGradient id="p.9" gradientUnits="userSpaceOnUse" gradientTransform="matrix(5.380050502150829 0.0 0.0 5.380050502150829 0.0 0.0)" spreadMethod="pad" x1="16.688204415560463" y1="22.131788197486042" x2="16.688185358816167" y2="27.51183869960312"><stop offset="0.0" stop-color="#9a9a9a"/><stop offset="0.5" stop-color="#8d8d8d"/><stop offset="1.0" stop-color="#787878"/></linearGradient></defs><path fill="url(#p.9)" d="m89.78338 133.54263l0 0c0 -7.9929047 3.800293 -14.472443 8.48819 -14.472443l0 0c2.2512054 0 4.4102097 1.5247726 6.0020523 4.238884c1.5918503 2.7141037 2.4861374 6.3952255 2.4861374 10.233559l0 0c0 7.9929047 -3.800293 14.472443 -8.48819 14.472443l0 0c-4.6878967 0 -8.48819 -6.479538 -8.48819 -14.472443z" fill-rule="evenodd"/><path stroke="#000000" stroke-width="1.0" stroke-miterlimit="8.0" stroke-linecap="butt" d="m89.78338 133.54263l0 0c0 -7.9929047 3.800293 -14.472443 8.48819 -14.472443l0 0c2.2512054 0 4.4102097 1.5247726 6.0020523 4.238884c1.5918503 2.7141037 2.4861374 6.3952255 2.4861374 10.233559l0 0c0 7.9929047 -3.800293 14.472443 -8.48819 14.472443l0 0c-4.6878967 0 -8.48819 -6.479538 -8.48819 -14.472443z" fill-rule="evenodd"/><path fill="#000000" d="m89.05903 151.40593l0 0c0 -1.6989288 1.3772507 -3.0761719 3.0761795 -3.0761719l12.304337 0l0 0c0.8158493 0 1.5982895 0.32409668 2.1751862 0.9009857c0.57689667 0.57688904 0.90099335 1.3593292 0.90099335 2.1751862l0 34.131104c0 1.6989288 -1.3772583 3.0761871 -3.0761795 3.0761871l-12.304337 0c-1.6989288 0 -3.0761795 -1.3772583 -3.0761795 -3.0761871z" fill-rule="evenodd"/><path stroke="#000000" stroke-width="1.0" stroke-miterlimit="8.0" stroke-linecap="butt" d="m89.05903 151.40593l0 0c0 -1.6989288 1.3772507 -3.0761719 3.0761795 -3.0761719l12.304337 0l0 0c0.8158493 0 1.5982895 0.32409668 2.1751862 0.9009857c0.57689667 0.57688904 0.90099335 1.3593292 0.90099335 2.1751862l0 34.131104c0 1.6989288 -1.3772583 3.0761871 -3.0761795 3.0761871l-12.304337 0c-1.6989288 0 -3.0761795 -1.3772583 -3.0761795 -3.0761871z" fill-rule="evenodd"/><path fill="#000000" d="m156.47209 150.51393l0 0c0 -2.1374664 8.161728 -3.870224 18.229721 -3.870224l0 0c10.068008 0 18.229721 1.7327576 18.229721 3.870224l0 0c0 2.1374512 -8.161713 3.8702087 -18.229721 3.8702087l0 0c-10.067993 0 -18.229721 -1.7327576 -18.229721 -3.8702087z" fill-rule="evenodd"/><path stroke="#595959" stroke-width="1.0" stroke-linejoin="round" stroke-linecap="butt" d="m156.47209 150.51393l0 0c0 -2.1374664 8.161728 -3.870224 18.229721 -3.870224l0 0c10.068008 0 18.229721 1.7327576 18.229721 3.870224l0 0c0 2.1374512 -8.161713 3.8702087 -18.229721 3.8702087l0 0c-10.067993 0 -18.229721 -1.7327576 -18.229721 -3.8702087z" fill-rule="evenodd"/><path fill="#ffffff" d="m167.31111 144.8146l0 0c-0.1655426 -0.80300903 0.37794495 -1.5979462 1.3998413 -2.0474854c1.0218964 -0.44952393 2.3429718 -0.474823 3.402649 -0.06515503l0 0c0.3753662 -0.4669037 1.0624084 -0.7892761 1.853302 -0.86958313c0.79089355 -0.080322266 1.5927429 0.09083557 2.1629944 0.4617157l0 0c0.31977844 -0.42332458 0.9476471 -0.7077484 1.6608124 -0.7523346c0.71318054 -0.04458618 1.4107208 0.15696716 1.845108 0.5331421l0 0c0.57769775 -0.44873047 1.4968414 -0.6376648 2.3597107 -0.4850464c0.86286926 0.15261841 1.5144806 0.61935425 1.6728668 1.1982727l0 0c0.7077942 0.1274414 1.2973633 0.45141602 1.616394 0.8882141c0.31903076 0.4367981 0.33622742 0.943573 0.0471344 1.389389l0 0c0.6969757 0.59877014 0.86001587 1.396637 0.4282837 2.0958405c-0.43173218 0.6992035 -1.3933868 1.1947021 -2.526062 1.3015747c-0.007980347 0.65623474 -0.55319214 1.2583771 -1.4254913 1.5743561c-0.8722992 0.31596375 -1.9354553 0.29641724 -2.7797089 -0.051101685c-0.35960388 0.7859497 -1.3717651 1.3642426 -2.5991974 1.4850311c-1.2274323 0.120788574 -2.4500885 -0.23756409 -3.13974 -0.92025757c-0.84536743 0.33650208 -1.859726 0.43344116 -2.8142853 0.26895142c-0.9545593 -0.164505 -1.7688751 -0.5765686 -2.2592926 -1.1432648l0 0c-0.8638611 0.066726685 -1.6990814 -0.22871399 -2.0911713 -0.7397003c-0.39207458 -0.51097107 -0.2575531 -1.1287231 0.3368225 -1.5466614l0 0c-0.7705841 -0.29937744 -1.1637726 -0.89346313 -0.97454834 -1.4724426c0.18922424 -0.5789795 0.917984 -1.011673 1.8062744 -1.0724487z" fill-rule="evenodd"/><path fill="#000000" fill-opacity="0.0" d="m166.46231 147.39046l0 0c0.3636322 0.14128113 0.7837219 0.20536804 1.2038727 0.18365479m0.5502777 2.1027527c0.18067932 -0.013961792 0.35777283 -0.043518066 0.52671814 -0.087905884m4.5466156 0.9621887c-0.1270752 -0.12579346 -0.23347473 -0.2602234 -0.31736755 -0.40097046m6.0565186 -0.16383362l0 0c0.06556702 -0.14329529 0.10803223 -0.29077148 0.12672424 -0.43997192m4.078308 -1.0832367c0.0084991455 -0.6986542 -0.59265137 -1.3383484 -1.5452423 -1.6443176m3.6430054 -1.7530212c-0.15426636 0.23789978 -0.3897705 0.4489441 -0.6880493 0.61657715m-0.97532654 -2.8942413l0 0c0.026290894 0.096084595 0.03845215 0.19358826 0.036331177 0.29119873m-4.0688477 -1.0043945l0 0c-0.14411926 0.11193848 -0.2628479 0.23701477 -0.3524933 0.37135315m-3.1534576 -0.15220642l0 0c-0.076797485 0.10166931 -0.13414001 0.20924377 -0.17071533 0.32026672m-3.845642 0.08760071l0 0c0.2242279 0.08668518 0.43167114 0.19102478 0.61776733 0.31072998m-5.4201965 1.8019257l0 0c0.02281189 0.110687256 0.05886841 0.22000122 0.107803345 0.32691956" fill-rule="evenodd"/><path stroke="#595959" stroke-width="1.0" stroke-linejoin="round" stroke-linecap="butt" d="m167.31111 144.8146l0 0c-0.1655426 -0.80300903 0.37794495 -1.5979462 1.3998413 -2.0474854c1.0218964 -0.44952393 2.3429718 -0.474823 3.402649 -0.06515503l0 0c0.3753662 -0.4669037 1.0624084 -0.7892761 1.853302 -0.86958313c0.79089355 -0.080322266 1.5927429 0.09083557 2.1629944 0.4617157l0 0c0.31977844 -0.42332458 0.9476471 -0.7077484 1.6608124 -0.7523346c0.71318054 -0.04458618 1.4107208 0.15696716 1.845108 0.5331421l0 0c0.57769775 -0.44873047 1.4968414 -0.6376648 2.3597107 -0.4850464c0.86286926 0.15261841 1.5144806 0.61935425 1.6728668 1.1982727l0 0c0.7077942 0.1274414 1.2973633 0.45141602 1.616394 0.8882141c0.31903076 0.4367981 0.33622742 0.943573 0.0471344 1.389389l0 0c0.6969757 0.59877014 0.86001587 1.396637 0.4282837 2.0958405c-0.43173218 0.6992035 -1.3933868 1.1947021 -2.526062 1.3015747c-0.007980347 0.65623474 -0.55319214 1.2583771 -1.4254913 1.5743561c-0.8722992 0.31596375 -1.9354553 0.29641724 -2.7797089 -0.051101685c-0.35960388 0.7859497 -1.3717651 1.3642426 -2.5991974 1.4850311c-1.2274323 0.120788574 -2.4500885 -0.23756409 -3.13974 -0.92025757c-0.84536743 0.33650208 -1.859726 0.43344116 -2.8142853 0.26895142c-0.9545593 -0.164505 -1.7688751 -0.5765686 -2.2592926 -1.1432648l0 0c-0.8638611 0.066726685 -1.6990814 -0.22871399 -2.0911713 -0.7397003c-0.39207458 -0.51097107 -0.2575531 -1.1287231 0.3368225 -1.5466614l0 0c-0.7705841 -0.29937744 -1.1637726 -0.89346313 -0.97454834 -1.4724426c0.18922424 -0.5789795 0.917984 -1.011673 1.8062744 -1.0724487z" fill-rule="evenodd"/><path stroke="#595959" stroke-width="1.0" stroke-linejoin="round" stroke-linecap="butt" d="m166.46231 147.39046l0 0c0.3636322 0.14128113 0.7837219 0.20536804 1.2038727 0.18365479m0.5502777 2.1027527c0.18067932 -0.013961792 0.35777283 -0.043518066 0.52671814 -0.087905884m4.5466156 0.9621887c-0.1270752 -0.12579346 -0.23347473 -0.2602234 -0.31736755 -0.40097046m6.0565186 -0.16383362l0 0c0.06556702 -0.14329529 0.10803223 -0.29077148 0.12672424 -0.43997192m4.078308 -1.0832367c0.0084991455 -0.6986542 -0.59265137 -1.3383484 -1.5452423 -1.6443176m3.6430054 -1.7530212c-0.15426636 0.23789978 -0.3897705 0.4489441 -0.6880493 0.61657715m-0.97532654 -2.8942413l0 0c0.026290894 0.096084595 0.03845215 0.19358826 0.036331177 0.29119873m-4.0688477 -1.0043945l0 0c-0.14411926 0.11193848 -0.2628479 0.23701477 -0.3524933 0.37135315m-3.1534576 -0.15220642l0 0c-0.076797485 0.10166931 -0.13414001 0.20924377 -0.17071533 0.32026672m-3.845642 0.08760071l0 0c0.2242279 0.08668518 0.43167114 0.19102478 0.61776733 0.31072998m-5.4201965 1.8019257l0 0c0.02281189 0.110687256 0.05886841 0.22000122 0.107803345 0.32691956" fill-rule="evenodd"/><defs><linearGradient id="p.10" gradientUnits="userSpaceOnUse" gradientTransform="matrix(5.380050502150829 0.0 0.0 5.380050502150829 0.0 0.0)" spreadMethod="pad" x1="32.30631546866654" y1="19.61202733401472" x2="32.30629641192225" y2="24.9920778361318"><stop offset="0.0" stop-color="#9a9a9a"/><stop offset="0.5" stop-color="#8d8d8d"/><stop offset="1.0" stop-color="#787878"/></linearGradient></defs><path fill="url(#p.10)" d="m173.80963 119.986206l0 0c0 -7.9929123 3.800293 -14.472443 8.48819 -14.472443l0 0c2.2512054 0 4.410202 1.5247726 6.0020447 4.2388763c1.5918427 2.7141113 2.486145 6.395233 2.486145 10.233566l0 0c0 7.9929047 -3.800293 14.472443 -8.48819 14.472443l0 0c-4.6878967 0 -8.48819 -6.479538 -8.48819 -14.472443z" fill-rule="evenodd"/><path stroke="#000000" stroke-width="1.0" stroke-miterlimit="8.0" stroke-linecap="butt" d="m173.80963 119.986206l0 0c0 -7.9929123 3.800293 -14.472443 8.48819 -14.472443l0 0c2.2512054 0 4.410202 1.5247726 6.0020447 4.2388763c1.5918427 2.7141113 2.486145 6.395233 2.486145 10.233566l0 0c0 7.9929047 -3.800293 14.472443 -8.48819 14.472443l0 0c-4.6878967 0 -8.48819 -6.479538 -8.48819 -14.472443z" fill-rule="evenodd"/><path fill="#000000" d="m173.08528 137.8495l0 0c0 -1.6989288 1.377243 -3.0761871 3.0761719 -3.0761871l12.304337 0l0 0c0.81585693 0 1.5982971 0.32409668 2.1751862 0.901001c0.57688904 0.57688904 0.9009857 1.3593292 0.9009857 2.1751862l0 34.131104c0 1.6989288 -1.377243 3.0761871 -3.0761719 3.0761871l-12.304337 0c-1.6989288 0 -3.0761719 -1.3772583 -3.0761719 -3.0761871z" fill-rule="evenodd"/><path stroke="#000000" stroke-width="1.0" stroke-miterlimit="8.0" stroke-linecap="butt" d="m173.08528 137.8495l0 0c0 -1.6989288 1.377243 -3.0761871 3.0761719 -3.0761871l12.304337 0l0 0c0.81585693 0 1.5982971 0.32409668 2.1751862 0.901001c0.57688904 0.57688904 0.9009857 1.3593292 0.9009857 2.1751862l0 34.131104c0 1.6989288 -1.377243 3.0761871 -3.0761719 3.0761871l-12.304337 0c-1.6989288 0 -3.0761719 -1.3772583 -3.0761719 -3.0761871z" fill-rule="evenodd"/><defs><linearGradient id="p.11" gradientUnits="userSpaceOnUse" gradientTransform="matrix(5.380050502150829 0.0 0.0 5.380050502150829 0.0 0.0)" spreadMethod="pad" x1="25.253166667033845" y1="10.894327182683172" x2="25.25314761028955" y2="16.27437768480025"><stop offset="0.0" stop-color="#9a9a9a"/><stop offset="0.5" stop-color="#8d8d8d"/><stop offset="1.0" stop-color="#787878"/></linearGradient></defs><path fill="url(#p.11)" d="m135.86331 73.08453l0 0c0 -7.9929123 3.800293 -14.472443 8.48819 -14.472443l0 0c2.2512054 0 4.4102173 1.5247688 6.00206 4.23888c1.5918427 2.7141075 2.4861298 6.3952293 2.4861298 10.233562l0 0c0 7.9929047 -3.800293 14.472435 -8.48819 14.472435l0 0c-4.6878967 0 -8.48819 -6.4795303 -8.48819 -14.472435z" fill-rule="evenodd"/><path stroke="#000000" stroke-width="1.0" stroke-miterlimit="8.0" stroke-linecap="butt" d="m135.86331 73.08453l0 0c0 -7.9929123 3.800293 -14.472443 8.48819 -14.472443l0 0c2.2512054 0 4.4102173 1.5247688 6.00206 4.23888c1.5918427 2.7141075 2.4861298 6.3952293 2.4861298 10.233562l0 0c0 7.9929047 -3.800293 14.472435 -8.48819 14.472435l0 0c-4.6878967 0 -8.48819 -6.4795303 -8.48819 -14.472435z" fill-rule="evenodd"/><path fill="#000000" d="m135.13896 90.94783l0 0c0 -1.6989288 1.3772583 -3.0761795 3.0761719 -3.0761795l12.304352 0l0 0c0.8158417 0 1.5982819 0.32409668 2.175171 0.90099335c0.5769043 0.57688904 0.901001 1.3593292 0.901001 2.1751862l0 34.13111c0 1.6989212 -1.3772583 3.0761795 -3.0761719 3.0761795l-12.304352 0c-1.6989136 0 -3.0761719 -1.3772583 -3.0761719 -3.0761795z" fill-rule="evenodd"/><path stroke="#000000" stroke-width="1.0" stroke-miterlimit="8.0" stroke-linecap="butt" d="m135.13896 90.94783l0 0c0 -1.6989288 1.3772583 -3.0761795 3.0761719 -3.0761795l12.304352 0l0 0c0.8158417 0 1.5982819 0.32409668 2.175171 0.90099335c0.5769043 0.57688904 0.901001 1.3593292 0.901001 2.1751862l0 34.13111c0 1.6989212 -1.3772583 3.0761795 -3.0761719 3.0761795l-12.304352 0c-1.6989136 0 -3.0761719 -1.3772583 -3.0761719 -3.0761795z" fill-rule="evenodd"/><path fill="#000000" d="m138.4491 90.21059l2.5826874 -4.6929092l22.897629 23.02362l-2.582672 4.692917z" fill-rule="evenodd"/><path fill="#999999" d="m160.78639 112.93731l0.34646606 -4.1889725l12.976379 1.9842453l-0.34646606 4.18898z" fill-rule="evenodd"/><path fill="#000000" d="m147.50902 91.61291l-2.8346405 -4.6929092l-25.039368 23.02362l2.8346405 4.692917z" fill-rule="evenodd"/><path fill="#999999" d="m123.09116 114.339874l-0.3779602 -4.18898l-14.173225 1.9842529l0.37795258 4.18898z" fill-rule="evenodd"/><path fill="#000000" d="m176.50195 306.66318l0 0c0 -2.1374512 8.161713 -3.8702087 18.229721 -3.8702087l0 0c10.067993 0 18.229721 1.7327576 18.229721 3.8702087l0 0c0 2.1374512 -8.161728 3.8702087 -18.229721 3.8702087l0 0c-10.068008 0 -18.229721 -1.7327576 -18.229721 -3.8702087z" fill-rule="evenodd"/><path stroke="#595959" stroke-width="1.0" stroke-linejoin="round" stroke-linecap="butt" d="m176.50195 306.66318l0 0c0 -2.1374512 8.161713 -3.8702087 18.229721 -3.8702087l0 0c10.067993 0 18.229721 1.7327576 18.229721 3.8702087l0 0c0 2.1374512 -8.161728 3.8702087 -18.229721 3.8702087l0 0c-10.068008 0 -18.229721 -1.7327576 -18.229721 -3.8702087z" fill-rule="evenodd"/><path fill="#ffffff" d="m187.34096 300.96387l0 0c-0.16552734 -0.80300903 0.3779602 -1.5979614 1.3998413 -2.0474854c1.0218964 -0.44955444 2.3429718 -0.47485352 3.402649 -0.06515503l0 0c0.37538147 -0.46691895 1.0624084 -0.7892761 1.853302 -0.8695984c0.79089355 -0.080322266 1.5927429 0.09085083 2.1630096 0.46173096l0 0c0.31976318 -0.42333984 0.94763184 -0.7077637 1.6608124 -0.75234985c0.7131653 -0.04458618 1.4107056 0.15698242 1.8450928 0.5331421l0 0c0.577713 -0.44873047 1.4968567 -0.6376648 2.359726 -0.4850464c0.862854 0.15261841 1.5144653 0.61935425 1.6728668 1.1982727l0 0c0.70777893 0.1274414 1.2973633 0.45141602 1.616394 0.8882141c0.31903076 0.4367981 0.33621216 0.943573 0.0471344 1.3893738l0 0c0.69696045 0.5987854 0.8600006 1.3966675 0.42826843 2.0958557c-0.43173218 0.69921875 -1.3933716 1.1947021 -2.526062 1.3015747c-0.007980347 0.65625 -0.55319214 1.2583923 -1.4254913 1.5743408c-0.8722992 0.315979 -1.9354553 0.29644775 -2.7797089 -0.051086426c-0.35958862 0.7859497 -1.3717651 1.3642578 -2.5991821 1.4850464c-1.2274323 0.120788574 -2.4500885 -0.23757935 -3.13974 -0.92025757c-0.84536743 0.33648682 -1.8597412 0.43344116 -2.8143005 0.2689209c-0.95454407 -0.16448975 -1.7688751 -0.5765381 -2.2592773 -1.1432495l0 0c-0.8638611 0.06674194 -1.6990967 -0.22869873 -2.0911865 -0.73968506c-0.39207458 -0.5109863 -0.25753784 -1.1287231 0.33683777 -1.5466614l0 0c-0.7705841 -0.29937744 -1.1637878 -0.89346313 -0.9745636 -1.4724426c0.18922424 -0.57901 0.91799927 -1.0116882 1.8062897 -1.0724487z" fill-rule="evenodd"/><path fill="#000000" fill-opacity="0.0" d="m186.49216 303.5397l0 0c0.36364746 0.14126587 0.7837372 0.2053833 1.2038727 0.18365479m0.55029297 2.1027527c0.18066406 -0.013946533 0.35775757 -0.043518066 0.52671814 -0.087890625m4.5466003 0.9621582c-0.1270752 -0.12576294 -0.23347473 -0.26019287 -0.31736755 -0.40093994m6.0565186 -0.16384888l0 0c0.06556702 -0.14328003 0.108047485 -0.29077148 0.12672424 -0.43997192m4.0783234 -1.0832214c0.0084991455 -0.69866943 -0.5926666 -1.3383484 -1.5452576 -1.6443176m3.6430206 -1.7530212c-0.15426636 0.23788452 -0.38978577 0.4489441 -0.6880646 0.61657715m-0.97532654 -2.8942566l0 0c0.026290894 0.09609985 0.03845215 0.19360352 0.036331177 0.29119873m-4.0688477 -1.0043945l0 0c-0.144104 0.11193848 -0.26283264 0.23703003 -0.3524933 0.3713684m-3.1534424 -0.15222168l0 0c-0.076797485 0.10168457 -0.13415527 0.20925903 -0.17073059 0.32028198m-3.845642 0.08758545l0 0c0.2242279 0.08670044 0.43167114 0.19104004 0.61776733 0.31072998m-5.4201965 1.8019409l0 0c0.02281189 0.110687256 0.05886841 0.2199707 0.1078186 0.3269043" fill-rule="evenodd"/><path stroke="#595959" stroke-width="1.0" stroke-linejoin="round" stroke-linecap="butt" d="m187.34096 300.96387l0 0c-0.16552734 -0.80300903 0.3779602 -1.5979614 1.3998413 -2.0474854c1.0218964 -0.44955444 2.3429718 -0.47485352 3.402649 -0.06515503l0 0c0.37538147 -0.46691895 1.0624084 -0.7892761 1.853302 -0.8695984c0.79089355 -0.080322266 1.5927429 0.09085083 2.1630096 0.46173096l0 0c0.31976318 -0.42333984 0.94763184 -0.7077637 1.6608124 -0.75234985c0.7131653 -0.04458618 1.4107056 0.15698242 1.8450928 0.5331421l0 0c0.577713 -0.44873047 1.4968567 -0.6376648 2.359726 -0.4850464c0.862854 0.15261841 1.5144653 0.61935425 1.6728668 1.1982727l0 0c0.70777893 0.1274414 1.2973633 0.45141602 1.616394 0.8882141c0.31903076 0.4367981 0.33621216 0.943573 0.0471344 1.3893738l0 0c0.69696045 0.5987854 0.8600006 1.3966675 0.42826843 2.0958557c-0.43173218 0.69921875 -1.3933716 1.1947021 -2.526062 1.3015747c-0.007980347 0.65625 -0.55319214 1.2583923 -1.4254913 1.5743408c-0.8722992 0.315979 -1.9354553 0.29644775 -2.7797089 -0.051086426c-0.35958862 0.7859497 -1.3717651 1.3642578 -2.5991821 1.4850464c-1.2274323 0.120788574 -2.4500885 -0.23757935 -3.13974 -0.92025757c-0.84536743 0.33648682 -1.8597412 0.43344116 -2.8143005 0.2689209c-0.95454407 -0.16448975 -1.7688751 -0.5765381 -2.2592773 -1.1432495l0 0c-0.8638611 0.06674194 -1.6990967 -0.22869873 -2.0911865 -0.73968506c-0.39207458 -0.5109863 -0.25753784 -1.1287231 0.33683777 -1.5466614l0 0c-0.7705841 -0.29937744 -1.1637878 -0.89346313 -0.9745636 -1.4724426c0.18922424 -0.57901 0.91799927 -1.0116882 1.8062897 -1.0724487z" fill-rule="evenodd"/><path stroke="#595959" stroke-width="1.0" stroke-linejoin="round" stroke-linecap="butt" d="m186.49216 303.5397l0 0c0.36364746 0.14126587 0.7837372 0.2053833 1.2038727 0.18365479m0.55029297 2.1027527c0.18066406 -0.013946533 0.35775757 -0.043518066 0.52671814 -0.087890625m4.5466003 0.9621582c-0.1270752 -0.12576294 -0.23347473 -0.26019287 -0.31736755 -0.40093994m6.0565186 -0.16384888l0 0c0.06556702 -0.14328003 0.108047485 -0.29077148 0.12672424 -0.43997192m4.0783234 -1.0832214c0.0084991455 -0.69866943 -0.5926666 -1.3383484 -1.5452576 -1.6443176m3.6430206 -1.7530212c-0.15426636 0.23788452 -0.38978577 0.4489441 -0.6880646 0.61657715m-0.97532654 -2.8942566l0 0c0.026290894 0.09609985 0.03845215 0.19360352 0.036331177 0.29119873m-4.0688477 -1.0043945l0 0c-0.144104 0.11193848 -0.26283264 0.23703003 -0.3524933 0.3713684m-3.1534424 -0.15222168l0 0c-0.076797485 0.10168457 -0.13415527 0.20925903 -0.17073059 0.32028198m-3.845642 0.08758545l0 0c0.2242279 0.08670044 0.43167114 0.19104004 0.61776733 0.31072998m-5.4201965 1.8019409l0 0c0.02281189 0.110687256 0.05886841 0.2199707 0.1078186 0.3269043" fill-rule="evenodd"/><path fill="#000000" d="m100.34621 311.84213l-0.96834564 8.076202l28.245918 6.2370605l0.9683533 -8.076202z" fill-rule="evenodd"/><defs><linearGradient id="p.12" gradientUnits="userSpaceOnUse" gradientTransform="matrix(5.3801838977071625 0.0 0.0 5.3801838977071625 0.0 0.0)" spreadMethod="pad" x1="18.225090587061217" y1="46.22981031848209" x2="18.22507153078941" y2="51.609994216155506"><stop offset="0.0" stop-color="#9a9a9a"/><stop offset="0.5" stop-color="#8d8d8d"/><stop offset="1.0" stop-color="#787878"/></linearGradient></defs><path fill="url(#p.12)" d="m98.054344 263.19812l0 0c0 -7.9933167 3.8018417 -14.47316 8.491653 -14.47316l0 0c2.2521286 0 4.41201 1.5248413 6.004509 4.23909c1.5924911 2.7142334 2.4871445 6.3955383 2.4871445 10.23407l0 0c0 7.993286 -3.8018417 14.473145 -8.491653 14.473145l0 0c-4.6898117 0 -8.491653 -6.4798584 -8.491653 -14.473145z" fill-rule="evenodd"/><path stroke="#000000" stroke-width="1.0" stroke-miterlimit="8.0" stroke-linecap="butt" d="m98.054344 263.19812l0 0c0 -7.9933167 3.8018417 -14.47316 8.491653 -14.47316l0 0c2.2521286 0 4.41201 1.5248413 6.004509 4.23909c1.5924911 2.7142334 2.4871445 6.3955383 2.4871445 10.23407l0 0c0 7.993286 -3.8018417 14.473145 -8.491653 14.473145l0 0c-4.6898117 0 -8.491653 -6.4798584 -8.491653 -14.473145z" fill-rule="evenodd"/><path fill="#000000" d="m120.93033 316.3355l8.297989 4.038086l-9.862236 36.062958l-8.297989 -4.038086z" fill-rule="evenodd"/><path fill="#000000" d="m97.329994 281.05847l0 0c0 -1.6976929 1.3762512 -3.073944 3.0739365 -3.073944l12.295395 0l0 0c0.81526184 0 1.5971298 0.32385254 2.1736069 0.9003296c0.57647705 0.57647705 0.9003372 1.3583374 0.9003372 2.1736145l0 34.133057c0 1.6976929 -1.3762512 3.073944 -3.073944 3.073944l-12.295395 0c-1.6976852 0 -3.0739365 -1.3762512 -3.0739365 -3.073944z" fill-rule="evenodd"/><path stroke="#000000" stroke-width="1.0" stroke-miterlimit="8.0" stroke-linecap="butt" d="m97.329994 281.05847l0 0c0 -1.6976929 1.3762512 -3.073944 3.0739365 -3.073944l12.295395 0l0 0c0.81526184 0 1.5971298 0.32385254 2.1736069 0.9003296c0.57647705 0.57647705 0.9003372 1.3583374 0.9003372 2.1736145l0 34.133057c0 1.6976929 -1.3762512 3.073944 -3.073944 3.073944l-12.295395 0c-1.6976852 0 -3.0739365 -1.3762512 -3.0739365 -3.073944z" fill-rule="evenodd"/><path fill="#000000" d="m100.64013 280.32346l2.5921936 -4.6977844l22.912567 23.029114l-2.5921936 4.6977844z" fill-rule="evenodd"/><path fill="#999999" d="m122.97743 303.05017l0.34264374 -4.197998l12.990746 1.999054l-0.34265137 4.197998z" fill-rule="evenodd"/><path fill="#990000" d="m456.5096 187.03854l7.6090393 0l0 38.43506l-7.6090393 0z" fill-rule="evenodd"/><path fill="#990000" d="m443.94574 195.46138l7.6090393 0l0 38.43506l-7.6090393 0z" fill-rule="evenodd"/><path fill="#990000" d="m417.54272 176.74144l7.6090393 0l0 48.911453l-7.6090393 0z" fill-rule="evenodd"/><path fill="#000000" d="m441.2687 188.00183l-6.753113 -61.027702l-26.001465 5.4022903l6.753113 61.027695z" fill-rule="evenodd"/><path fill="#000000" d="m420.73132 193.77324l13.369873 -22.618988l33.05719 11.558777l-13.369873 22.618988z" fill-rule="evenodd"/><path fill="#990000" d="m581.64935 195.27698l-7.1832886 0l0 38.435043l7.1832886 0z" fill-rule="evenodd"/><path fill="#990000" d="m593.5103 203.69981l-7.1833496 0l0 38.43506l7.1833496 0z" fill-rule="evenodd"/><path fill="#990000" d="m618.43604 184.97987l-7.1832886 0l0 48.911438l7.1832886 0z" fill-rule="evenodd"/><path fill="#000000" d="m596.03754 196.24025l6.375305 -61.027695l24.54663 5.4022827l-6.375244 61.027695z" fill-rule="evenodd"/><path fill="#000000" d="m615.42584 202.01167l-12.896057 -22.51741l-30.93341 11.457184l12.896118 22.51741z" fill-rule="evenodd"/><path fill="#990000" d="m511.50537 169.40666l5.83197 0l0 45.092163l-5.83197 0z" fill-rule="evenodd"/><path stroke="#595959" stroke-width="1.0" stroke-linejoin="round" stroke-linecap="butt" d="m511.50537 169.40666l5.83197 0l0 45.092163l-5.83197 0z" fill-rule="evenodd"/><path fill="#990000" d="m529.51263 169.40666l5.83197 0l0 45.092163l-5.83197 0z" fill-rule="evenodd"/><path stroke="#595959" stroke-width="1.0" stroke-linejoin="round" stroke-linecap="butt" d="m529.51263 169.40666l5.83197 0l0 45.092163l-5.83197 0z" fill-rule="evenodd"/><path fill="#990000" d="m500.0184 194.65166l5.8319397 0l0 45.092163l-5.8319397 0z" fill-rule="evenodd"/><path stroke="#595959" stroke-width="1.0" stroke-linejoin="round" stroke-linecap="butt" d="m500.0184 194.65166l5.8319397 0l0 45.092163l-5.8319397 0z" fill-rule="evenodd"/><path fill="#000000" d="m541.17896 167.62471l-1.7996826 -48.109344l-32.599792 1.3367233l1.7997131 48.109352z" fill-rule="evenodd"/><path stroke="#595959" stroke-width="1.0" stroke-linejoin="round" stroke-linecap="butt" d="m541.17896 167.62471l-1.7996826 -48.109344l-32.599792 1.3367233l1.7997131 48.109352z" fill-rule="evenodd"/><path fill="#000000" d="m496.03894 196.08641l16.237183 -28.35318l26.118591 -1.5238953l5.2111816 27.101776z" fill-rule="evenodd"/><path stroke="#595959" stroke-width="1.0" stroke-linejoin="round" stroke-linecap="butt" d="m496.03894 196.08641l16.237183 -28.35318l26.118591 -1.5238953l5.2111816 27.101776z" fill-rule="evenodd"/><path fill="#990000" d="m537.19904 193.56575l5.83197 0l0 45.092163l-5.83197 0z" fill-rule="evenodd"/><path stroke="#595959" stroke-width="1.0" stroke-linejoin="round" stroke-linecap="butt" d="m537.19904 193.56575l5.83197 0l0 45.092163l-5.83197 0z" fill-rule="evenodd"/><path fill="#000000" d="m509.43277 200.93954l19.776215 0l0 0c2.5906982 0 4.690918 12.858917 4.690918 28.721207c0 15.862274 -2.1002197 28.721207 -4.690918 28.721207l-19.776215 0l0 0c-2.5907593 0 -4.6909485 -12.8589325 -4.6909485 -28.721207c0 -15.862289 2.1001892 -28.721207 4.6909485 -28.721207z" fill-rule="evenodd"/><path stroke="#000000" stroke-width="1.0" stroke-linejoin="round" stroke-linecap="butt" d="m509.43277 200.93954l19.776215 0l0 0c2.5906982 0 4.690918 12.858917 4.690918 28.721207c0 15.862274 -2.1002197 28.721207 -4.690918 28.721207l-19.776215 0l0 0c-2.5907593 0 -4.6909485 -12.8589325 -4.6909485 -28.721207c0 -15.862289 2.1001892 -28.721207 4.6909485 -28.721207z" fill-rule="evenodd"/><path fill="#000000" d="m486.99728 271.9717l0 -6.7950745l0 0c0 -3.7528076 14.471771 -6.795044 32.323578 -6.795044c17.851807 0 32.32361 3.0422363 32.32361 6.795044l0 6.7950745z" fill-rule="evenodd"/><path stroke="#000000" stroke-width="1.0" stroke-linejoin="round" stroke-linecap="butt" d="m486.99728 271.9717l0 -6.7950745l0 0c0 -3.7528076 14.471771 -6.795044 32.323578 -6.795044c17.851807 0 32.32361 3.0422363 32.32361 6.795044l0 6.7950745z" fill-rule="evenodd"/><path fill="#990000" d="m440.67175 193.74835l0 0c0 -14.455917 35.76355 -26.174759 79.88013 -26.174759l0 0c44.116577 0 79.88013 11.718842 79.88013 26.174759l0 0c0 14.455917 -35.76355 26.174759 -79.88013 26.174759l0 0c-44.116577 0 -79.88013 -11.718842 -79.88013 -26.174759z" fill-rule="evenodd"/><path stroke="#000000" stroke-width="1.0" stroke-linejoin="round" stroke-linecap="butt" d="m440.67175 193.74835l0 0c0 -14.455917 35.76355 -26.174759 79.88013 -26.174759l0 0c44.116577 0 79.88013 11.718842 79.88013 26.174759l0 0c0 14.455917 -35.76355 26.174759 -79.88013 26.174759l0 0c-44.116577 0 -79.88013 -11.718842 -79.88013 -26.174759z" fill-rule="evenodd"/><path fill="#990000" d="m452.0576 234.72208l7.6090393 0l0 38.43506l-7.6090393 0z" fill-rule="evenodd"/><path fill="#990000" d="m467.22833 234.72139l7.6090393 0l0 38.435043l-7.6090393 0z" fill-rule="evenodd"/><path fill="#000000" d="m477.11124 241.91063l-0.4805298 -61.46599l-26.388916 2.2078857l0.4805603 61.46599z" fill-rule="evenodd"/><path fill="#990000" d="m553.35547 231.85512l7.60907 0l0 38.435043l-7.60907 0z" fill-rule="evenodd"/><path fill="#990000" d="m568.52625 231.85443l7.609009 0l0 38.43506l-7.609009 0z" fill-rule="evenodd"/><path fill="#000000" d="m578.4091 239.04367l-0.4805298 -61.46599l-26.388916 2.2078857l0.48059082 61.46599z" fill-rule="evenodd"/></g></svg>