<svg xmlns="http://www.w3.org/2000/svg" xmlns:xlink="http://www.w3.org/1999/xlink" xmlns:lucid="lucid" width="1820" height="300"><g transform="translate(-180 -79.99999999999999)" lucid:page-tab-id="0_0"><path d="M200 100h1780v220H200z" fill="none"/><use xlink:href="#a" transform="matrix(1,0,0,1,200,100) translate(0 119.19401041666667)"/><use xlink:href="#b" transform="matrix(1,0,0,1,200,100) translate(404.86588541666674 119.19401041666667)"/><use xlink:href="#c" transform="matrix(1,0,0,1,200,100) translate(496.88085937500006 119.19401041666667)"/><use xlink:href="#d" transform="matrix(1,0,0,1,200,100) translate(588.8958333333334 119.19401041666667)"/><use xlink:href="#e" transform="matrix(1,0,0,1,200,100) translate(680.9108072916667 119.19401041666667)"/><g fill="none"><path d="M206 360c-3.3 0-6-2.7-6-6v-68c0-3.3 2.7-6 6-6h448c3.3 0 6 2.7 6 6v68c0 3.3-2.7 6-6 6z"/><path d="M660 280c0 5.52-4.48 10-10 10H440c-5.52 0-10 4.48-10 10 0-5.52-4.48-10-10-10H210c-5.52 0-10-4.48-10-10" stroke="#c92d39" stroke-width="3"/></g><use xlink:href="#f" transform="matrix(1,0,0,1,205.00000000000003,314.99999999999994) translate(177.56172839506172 24.944444444444443)"/><g fill="none"><path d="M754 100c3.3 0 6 2.7 6 6v68c0 3.3-2.7 6-6 6h-68c-3.3 0-6-2.7-6-6v-68c0-3.3 2.7-6 6-6z"/><path d="M680 180c0-5.52 4.48-10 10-10h20c5.52 0 10-4.48 10-10 0 5.52 4.48 10 10 10h20c5.52 0 10 4.48 10 10" stroke="#19177c" stroke-width="3"/></g><use xlink:href="#g" transform="matrix(1,-2.4492935982947064e-16,2.4492935982947064e-16,1,685,104.99999999999994) translate(-23.48765432098765 24.444444444444443)"/><g fill="none"><path d="M786 360c-3.3 0-6-2.7-6-6v-68c0-3.3 2.7-6 6-6h68c3.3 0 6 2.7 6 6v68c0 3.3-2.7 6-6 6z"/><path d="M860 280c0 5.52-4.48 10-10 10h-20c-5.52 0-10 4.48-10 10 0-5.52-4.48-10-10-10h-20c-5.52 0-10-4.48-10-10" stroke="#19967d" stroke-width="3"/></g><g><use xlink:href="#h" transform="matrix(1,0,0,1,785,315) translate(-7.530864197530867 24.444444444444443)"/></g><g fill="none"><path d="M1294 100c3.3 0 6 2.7 6 6v68c0 3.3-2.7 6-6 6H886c-3.3 0-6-2.7-6-6v-68c0-3.3 2.7-6 6-6z"/><path d="M880 180c0-5.52 4.48-10 10-10h190c5.52 0 10-4.48 10-10 0 5.52 4.48 10 10 10h190c5.52 0 10 4.48 10 10" stroke="#834187" stroke-width="3"/></g><g><use xlink:href="#i" transform="matrix(1,-2.4492935982947064e-16,2.4492935982947064e-16,1,885,105.00000000000011) translate(141.57407407407408 24.944444444444443)"/></g><defs><path fill="#c92d39" d="M410 425v-1909h547v139H590V286h367v139H410" id="j"/><path fill="#c92d39" d="M168 279c222 39 310-114 368-290L66-1082h192c120 299 249 590 362 896 115-301 235-597 351-896h190L705 0c-65 164-130 320-275 396-67 36-177 35-262 18V279" id="k"/><path fill="#c92d39" d="M615-1102c343 0 484 203 482 560-1 347-147 562-488 562-336 0-475-219-479-562-4-349 156-560 485-560zm-8 989c240 0 301-180 301-429 0-245-55-427-290-427-236 0-299 181-299 427 0 243 61 429 288 429" id="l"/><path fill="#c92d39" d="M528 20c-247 0-343-132-343-381v-721h180v686c-4 177 45 284 224 277 194-8 279-136 279-336v-627h181c3 360-6 732 6 1082H885c-4-54-7-126-8-185h-3C809-64 714 20 528 20" id="m"/><path fill="#c92d39" d="M839-1102c70 0 148 7 206 17v167c-112-18-268-36-363 15-129 69-208 203-208 395V0H294c-10-367 32-789-52-1082h171c21 75 41 161 48 250h5c67-152 152-270 373-270" id="n"/><path fill="#c92d39" d="M604-135c236 0 291-142 291-376v-838h190v859c5 340-142 510-480 510-326 0-463-164-463-492v-877h191v851c-3 222 46 363 271 363" id="o"/><path fill="#c92d39" d="M873-819c-18-114-119-146-250-146-163 0-245 50-245 151 0 151 170 148 294 185 182 54 388 94 388 320 0 240-189 325-439 329-245 4-410-69-454-268l159-31c24 133 136 168 295 165 144-2 270-31 270-171 0-164-195-160-331-202-167-52-350-87-350-299 0-218 173-315 413-313 220 2 373 77 412 260" id="p"/><path fill="#c92d39" d="M617-1102c355 0 481 238 477 599H322c5 222 84 388 301 388 144 0 244-59 284-166l158 45C1002-72 854 20 623 20c-342 0-490-220-490-568 0-346 151-554 484-554zm291 461c-18-192-90-328-289-328-194 0-287 128-295 328h584" id="q"/><path fill="#c92d39" d="M706-1102c241 0 344 136 343 381V0H868v-695c1-168-57-273-220-268-190 6-283 138-283 336V0H185c-3-360 6-732-6-1082h170c4 54 7 126 8 185h3c63-121 164-204 346-205" id="r"/><path fill="#c92d39" d="M1000-272c3 95 12 159 101 161 21 0 41-3 59-7V-6c-44 10-86 16-139 16-141 2-191-84-197-217h-6C748-76 648 20 446 20c-207 0-318-120-318-322 0-266 194-348 454-354l236-4c12-191-40-305-222-305-140 0-220 47-232 172l-188-17c33-204 181-292 423-292 255 0 401 118 401 364v466zm-683-27c0 109 63 184 175 182 166-3 259-96 306-217 24-65 20-120 20-200-232 7-501-28-501 235" id="s"/><path fill="#c92d39" d="M904-1102c199 0 220 177 220 381V0H956v-686c-3-114 0-215-60-264-70-33-125-4-158 71-26 56-39 140-39 252V0H531v-686c-3-114-1-215-61-264-78-41-136 24-157 84-24 69-39 159-39 259V0H105c-3-360 6-732-6-1082h149c6 50 3 123 8 175 36-100 83-195 216-195 135 0 166 79 196 196 42-105 93-196 236-196" id="t"/><path fill="#c92d39" d="M1044 94c-116 96-242 189-450 189-304 0-446-213-512-468-90-345-18-804 126-1023 99-150 236-276 464-276 292 0 429 206 486 450 73 310 31 729-145 882-38 32-81 48-129 48-111 1-154-78-141-195h-6c-43 98-102 195-235 195-186 0-225-192-225-385 0-224 63-403 173-521 46-50 107-91 194-91 117 0 160 79 184 173h5l32-151h116c-45 245-103 479-136 733-8 62-9 140 46 140 75 0 105-78 129-152 53-166 68-445 22-636-33-142-99-259-202-326-112-74-280-58-384 19-199 148-286 441-286 787 0 288 75 520 251 630 53 33 115 49 183 49 172-2 274-77 369-158zM753-595c28-145 53-404-107-404-137 0-173 153-206 275-34 123-44 312-4 434 14 43 39 80 90 80 118 0 154-122 191-226 17-47 25-101 36-159" id="u"/><path fill="#c92d39" d="M648-963c-190 6-283 138-283 336V0H185v-1484h181c-2 197 6 404-9 587h3c62-120 159-205 339-205 242 0 351 135 350 381V0H868v-695c1-168-57-273-220-268" id="v"/><path fill="#c92d39" d="M745-142h380V0H143v-142h422v-798H246v-142h499v940zM545-1292v-192h200v192H545" id="w"/><path fill="#c92d39" d="M914 0L548-499l-132 98V0H236v-1484h180v927l475-525h211L663-617 1125 0H914" id="x"/><g id="a"><use transform="matrix(0.01497395833333333,0,0,0.01497395833333333,0,0)" xlink:href="#j"/><use transform="matrix(0.01497395833333333,0,0,0.01497395833333333,18.402994791666664,0)" xlink:href="#k"/><use transform="matrix(0.01497395833333333,0,0,0.01497395833333333,36.80598958333333,0)" xlink:href="#l"/><use transform="matrix(0.01497395833333333,0,0,0.01497395833333333,55.20898437499999,0)" xlink:href="#m"/><use transform="matrix(0.01497395833333333,0,0,0.01497395833333333,73.61197916666666,0)" xlink:href="#n"/><use transform="matrix(0.01497395833333333,0,0,0.01497395833333333,92.01497395833331,0)" xlink:href="#o"/><use transform="matrix(0.01497395833333333,0,0,0.01497395833333333,110.41796874999997,0)" xlink:href="#p"/><use transform="matrix(0.01497395833333333,0,0,0.01497395833333333,128.82096354166663,0)" xlink:href="#q"/><use transform="matrix(0.01497395833333333,0,0,0.01497395833333333,147.2239583333333,0)" xlink:href="#n"/><use transform="matrix(0.01497395833333333,0,0,0.01497395833333333,165.62695312499994,0)" xlink:href="#r"/><use transform="matrix(0.01497395833333333,0,0,0.01497395833333333,184.0299479166666,0)" xlink:href="#s"/><use transform="matrix(0.01497395833333333,0,0,0.01497395833333333,202.43294270833326,0)" xlink:href="#t"/><use transform="matrix(0.01497395833333333,0,0,0.01497395833333333,220.83593749999991,0)" xlink:href="#q"/><use transform="matrix(0.01497395833333333,0,0,0.01497395833333333,239.23893229166657,0)" xlink:href="#u"/><use transform="matrix(0.01497395833333333,0,0,0.01497395833333333,257.64192708333326,0)" xlink:href="#t"/><use transform="matrix(0.01497395833333333,0,0,0.01497395833333333,276.04492187499994,0)" xlink:href="#s"/><use transform="matrix(0.01497395833333333,0,0,0.01497395833333333,294.44791666666663,0)" xlink:href="#v"/><use transform="matrix(0.01497395833333333,0,0,0.01497395833333333,312.8509114583333,0)" xlink:href="#m"/><use transform="matrix(0.01497395833333333,0,0,0.01497395833333333,331.25390625,0)" xlink:href="#w"/><use transform="matrix(0.01497395833333333,0,0,0.01497395833333333,349.6569010416667,0)" xlink:href="#x"/><use transform="matrix(0.01497395833333333,0,0,0.01497395833333333,368.05989583333337,0)" xlink:href="#s"/></g><path fill="#c92d39" d="M108-723c64-48 152-85 263-84 203 2 312 117 505 117 104 0 182-43 244-92v149c-68 49-143 81-260 80-172-2-344-117-504-115-112 1-181 41-248 88v-143" id="y"/><path fill="#c92d39" d="M270 425V286h367v-1631H270v-139h547V425H270" id="z"/><path fill="#c92d39" d="M558-647c-214-53-428-110-428-376 0-239 192-311 428-323v-130h128v130c251 5 384 114 433 321l-174 33c-27-133-107-212-259-221v426c233 57 464 118 464 407 0 258-203 345-464 360v161H558V-20C281-27 115-149 66-379l170-37c31 161 136 250 322 258v-489zm0-568c-146 8-256 54-256 197 0 156 132 181 256 216v-413zM686-156c160-12 292-63 292-227 0-177-151-205-292-244v471" id="A"/><g id="b"><use transform="matrix(0.01497395833333333,0,0,0.01497395833333333,0,0)" xlink:href="#y"/><use transform="matrix(0.01497395833333333,0,0,0.01497395833333333,18.402994791666664,0)" xlink:href="#z"/><use transform="matrix(0.01497395833333333,0,0,0.01497395833333333,36.80598958333333,0)" xlink:href="#A"/></g><path fill="#19177c" d="M736-142h380V0H134v-142h422v-1200H267v-142h469v1342" id="B"/><path fill="#19177c" d="M873-819c-18-114-119-146-250-146-163 0-245 50-245 151 0 151 170 148 294 185 182 54 388 94 388 320 0 240-189 325-439 329-245 4-410-69-454-268l159-31c24 133 136 168 295 165 144-2 270-31 270-171 0-164-195-160-331-202-167-52-350-87-350-299 0-218 173-315 413-313 220 2 373 77 412 260" id="C"/><g id="c"><use transform="matrix(0.01497395833333333,0,0,0.01497395833333333,0,0)" xlink:href="#B"/><use transform="matrix(0.01497395833333333,0,0,0.01497395833333333,18.402994791666664,0)" xlink:href="#C"/></g><path fill="#19967d" d="M334-464v-160h560v160H334" id="D"/><path fill="#19967d" d="M736-142h380V0H134v-142h422v-1200H267v-142h469v1342" id="E"/><g id="d"><use transform="matrix(0.01497395833333333,0,0,0.01497395833333333,0,0)" xlink:href="#D"/><use transform="matrix(0.01497395833333333,0,0,0.01497395833333333,18.402994791666664,0)" xlink:href="#E"/></g><path fill="#834187" d="M114 20l821-1504h178L296 20H114" id="F"/><path fill="#834187" d="M706-1102c241 0 344 136 343 381V0H868v-695c1-168-57-273-220-268-190 6-283 138-283 336V0H185c-3-360 6-732-6-1082h170c4 54 7 126 8 185h3c63-121 164-204 346-205" id="G"/><path fill="#834187" d="M617-1102c355 0 481 238 477 599H322c5 222 84 388 301 388 144 0 244-59 284-166l158 45C1002-72 854 20 623 20c-342 0-490-220-490-568 0-346 151-554 484-554zm291 461c-18-192-90-328-289-328-194 0-287 128-295 328h584" id="H"/><path fill="#834187" d="M873-819c-18-114-119-146-250-146-163 0-245 50-245 151 0 151 170 148 294 185 182 54 388 94 388 320 0 240-189 325-439 329-245 4-410-69-454-268l159-31c24 133 136 168 295 165 144-2 270-31 270-171 0-164-195-160-331-202-167-52-350-87-350-299 0-218 173-315 413-313 220 2 373 77 412 260" id="I"/><path fill="#834187" d="M745-142h380V0H143v-142h422v-798H246v-142h499v940zM545-1292v-192h200v192H545" id="J"/><path fill="#834187" d="M698-1104c312 3 392 244 392 558 0 315-82 566-392 566-169 0-277-65-331-184h-5c8 188 2 394 4 589H185V-858c0-76-1-156-6-224h175c6 52 9 120 10 178h4c58-122 150-202 330-200zm-49 991c225 0 255-203 255-433 0-225-32-419-253-419-236 0-285 192-285 441 0 237 53 411 283 411" id="K"/><path fill="#834187" d="M839-1102c70 0 148 7 206 17v167c-112-18-268-36-363 15-129 69-208 203-208 395V0H294c-10-367 32-789-52-1082h171c21 75 41 161 48 250h5c67-152 152-270 373-270" id="L"/><path fill="#834187" d="M615-1102c343 0 484 203 482 560-1 347-147 562-488 562-336 0-475-219-479-562-4-349 156-560 485-560zm-8 989c240 0 301-180 301-429 0-245-55-427-290-427-236 0-299 181-299 427 0 243 61 429 288 429" id="M"/><path fill="#834187" d="M390 276c167 0 266-82 266-251v-965H249v-142h587V28c-4 270-165 397-431 397-107 0-208-16-288-43V242c80 18 173 34 273 34zm246-1568v-192h200v192H636" id="N"/><path fill="#834187" d="M631 20c-350 0-501-215-501-562 0-355 162-560 502-560 250 0 399 118 446 323l-192 14c-23-124-109-196-262-196-242 0-305 171-305 415 1 245 61 427 304 427 151 0 248-77 267-215l190 12C1039-107 883 20 631 20" id="O"/><path fill="#834187" d="M682 16c-209 0-323-80-324-285v-671H190v-142h170l58-282h120v282h432v142H538v652c2 114 60 155 182 155 106 0 209-16 297-34v137C921-4 806 16 682 16" id="P"/><path fill="#834187" d="M141-911c0-296 172-459 469-459 157 0 276 55 356 166s121 278 121 501c-1 324-87 567-297 677-134 70-367 56-475-22-71-52-117-126-145-226l172-27c34 111 103 176 238 176 187 0 261-138 304-298 16-65 24-141 25-227-59 121-177 199-350 199-275 0-418-184-418-460zm461 318c168 0 289-96 289-269 0-158-59-275-163-332-36-20-77-30-124-30-187 0-280 125-280 313s90 318 278 318" id="Q"/><path fill="#834187" d="M148-1120c216-7 379-89 463-229h166v1204h353V0H157v-145h439v-1021c-79 124-254 184-448 194v-148" id="R"/><g id="e"><use transform="matrix(0.01497395833333333,0,0,0.01497395833333333,0,0)" xlink:href="#F"/><use transform="matrix(0.01497395833333333,0,0,0.01497395833333333,18.402994791666664,0)" xlink:href="#G"/><use transform="matrix(0.01497395833333333,0,0,0.01497395833333333,36.80598958333333,0)" xlink:href="#H"/><use transform="matrix(0.01497395833333333,0,0,0.01497395833333333,55.20898437499999,0)" xlink:href="#I"/><use transform="matrix(0.01497395833333333,0,0,0.01497395833333333,73.61197916666666,0)" xlink:href="#J"/><use transform="matrix(0.01497395833333333,0,0,0.01497395833333333,92.01497395833331,0)" xlink:href="#F"/><use transform="matrix(0.01497395833333333,0,0,0.01497395833333333,110.41796874999997,0)" xlink:href="#K"/><use transform="matrix(0.01497395833333333,0,0,0.01497395833333333,128.82096354166663,0)" xlink:href="#L"/><use transform="matrix(0.01497395833333333,0,0,0.01497395833333333,147.2239583333333,0)" xlink:href="#M"/><use transform="matrix(0.01497395833333333,0,0,0.01497395833333333,165.62695312499994,0)" xlink:href="#N"/><use transform="matrix(0.01497395833333333,0,0,0.01497395833333333,184.0299479166666,0)" xlink:href="#H"/><use transform="matrix(0.01497395833333333,0,0,0.01497395833333333,202.43294270833326,0)" xlink:href="#O"/><use transform="matrix(0.01497395833333333,0,0,0.01497395833333333,220.83593749999991,0)" xlink:href="#P"/><use transform="matrix(0.01497395833333333,0,0,0.01497395833333333,239.23893229166657,0)" xlink:href="#F"/><use transform="matrix(0.01497395833333333,0,0,0.01497395833333333,257.64192708333326,0)" xlink:href="#G"/><use transform="matrix(0.01497395833333333,0,0,0.01497395833333333,276.04492187499994,0)" xlink:href="#H"/><use transform="matrix(0.01497395833333333,0,0,0.01497395833333333,294.44791666666663,0)" xlink:href="#I"/><use transform="matrix(0.01497395833333333,0,0,0.01497395833333333,312.8509114583333,0)" xlink:href="#J"/><use transform="matrix(0.01497395833333333,0,0,0.01497395833333333,331.25390625,0)" xlink:href="#Q"/><use transform="matrix(0.01497395833333333,0,0,0.01497395833333333,349.6569010416667,0)" xlink:href="#Q"/><use transform="matrix(0.01497395833333333,0,0,0.01497395833333333,368.05989583333337,0)" xlink:href="#Q"/><use transform="matrix(0.01497395833333333,0,0,0.01497395833333333,386.46289062500006,0)" xlink:href="#Q"/><use transform="matrix(0.01497395833333333,0,0,0.01497395833333333,404.86588541666674,0)" xlink:href="#R"/></g><path fill="#c92d39" d="M30-248c87 1 191-15 191 75 0 78-77 80-158 76V0H30v-248zm33 125c57 0 124 11 124-50 0-59-68-47-124-48v98" id="S"/><path fill="#c92d39" d="M233-177c-1 41-23 64-60 70L243 0h-38l-65-103H63V0H30v-248c88 3 205-21 203 71zM63-129c60-2 137 13 137-47 0-61-80-42-137-45v92" id="T"/><path fill="#c92d39" d="M140-251c81 0 123 46 123 126C263-46 219 4 140 4 59 4 17-45 17-125s42-126 123-126zm0 227c63 0 89-41 89-101s-29-99-89-99c-61 0-89 39-89 99S79-25 140-24" id="U"/><path fill="#c92d39" d="M240 0l2-218c-23 76-54 145-80 218h-23L58-218 59 0H30v-248h44l77 211c21-75 51-140 76-211h43V0h-30" id="V"/><path fill="#c92d39" d="M127-220V0H93v-220H8v-28h204v28h-85" id="W"/><g id="f"><use transform="matrix(0.06172839506172839,0,0,0.06172839506172839,0,0)" xlink:href="#S"/><use transform="matrix(0.06172839506172839,0,0,0.06172839506172839,14.814814814814813,0)" xlink:href="#T"/><use transform="matrix(0.06172839506172839,0,0,0.06172839506172839,30.80246913580247,0)" xlink:href="#U"/><use transform="matrix(0.06172839506172839,0,0,0.06172839506172839,48.08641975308642,0)" xlink:href="#V"/><use transform="matrix(0.06172839506172839,0,0,0.06172839506172839,66.5432098765432,0)" xlink:href="#S"/><use transform="matrix(0.06172839506172839,0,0,0.06172839506172839,81.35802469135801,0)" xlink:href="#W"/></g><path fill="#19177c" d="M212-179c-10-28-35-45-73-45-59 0-87 40-87 99 0 60 29 101 89 101 43 0 62-24 78-52l27 14C228-24 195 4 139 4 59 4 22-46 18-125c-6-104 99-153 187-111 19 9 31 26 39 46" id="X"/><path fill="#19177c" d="M140-251c81 0 123 46 123 126C263-46 219 4 140 4 59 4 17-45 17-125s42-126 123-126zm0 227c63 0 89-41 89-101s-29-99-89-99c-61 0-89 39-89 99S79-25 140-24" id="Y"/><path fill="#19177c" d="M240 0l2-218c-23 76-54 145-80 218h-23L58-218 59 0H30v-248h44l77 211c21-75 51-140 76-211h43V0h-30" id="Z"/><path fill="#19177c" d="M205 0l-28-72H64L36 0H1l101-248h38L239 0h-34zm-38-99l-47-123c-12 45-31 82-46 123h93" id="aa"/><path fill="#19177c" d="M190 0L58-211 59 0H30v-248h39L202-35l-2-213h31V0h-41" id="ab"/><path fill="#19177c" d="M30-248c118-7 216 8 213 122C240-48 200 0 122 0H30v-248zM63-27c89 8 146-16 146-99s-60-101-146-95v194" id="ac"/><g id="g"><use transform="matrix(0.06172839506172839,0,0,0.06172839506172839,0,0)" xlink:href="#X"/><use transform="matrix(0.06172839506172839,0,0,0.06172839506172839,15.987654320987653,0)" xlink:href="#Y"/><use transform="matrix(0.06172839506172839,0,0,0.06172839506172839,33.2716049382716,0)" xlink:href="#Z"/><use transform="matrix(0.06172839506172839,0,0,0.06172839506172839,51.72839506172839,0)" xlink:href="#Z"/><use transform="matrix(0.06172839506172839,0,0,0.06172839506172839,70.18518518518518,0)" xlink:href="#aa"/><use transform="matrix(0.06172839506172839,0,0,0.06172839506172839,84.99999999999999,0)" xlink:href="#ab"/><use transform="matrix(0.06172839506172839,0,0,0.06172839506172839,100.98765432098764,0)" xlink:href="#ac"/></g><path fill="#19967d" d="M140-251c81 0 123 46 123 126C263-46 219 4 140 4 59 4 17-45 17-125s42-126 123-126zm0 227c63 0 89-41 89-101s-29-99-89-99c-61 0-89 39-89 99S79-25 140-24" id="ad"/><path fill="#19967d" d="M30-248c87 1 191-15 191 75 0 78-77 80-158 76V0H30v-248zm33 125c57 0 124 11 124-50 0-59-68-47-124-48v98" id="ae"/><path fill="#19967d" d="M127-220V0H93v-220H8v-28h204v28h-85" id="af"/><path fill="#19967d" d="M33 0v-248h34V0H33" id="ag"/><path fill="#19967d" d="M190 0L58-211 59 0H30v-248h39L202-35l-2-213h31V0h-41" id="ah"/><g id="h"><use transform="matrix(0.06172839506172839,0,0,0.06172839506172839,0,0)" xlink:href="#ad"/><use transform="matrix(0.06172839506172839,0,0,0.06172839506172839,17.28395061728395,0)" xlink:href="#ae"/><use transform="matrix(0.06172839506172839,0,0,0.06172839506172839,32.09876543209876,0)" xlink:href="#af"/><use transform="matrix(0.06172839506172839,0,0,0.06172839506172839,45.61728395061728,0)" xlink:href="#ag"/><use transform="matrix(0.06172839506172839,0,0,0.06172839506172839,51.79012345679012,0)" xlink:href="#ad"/><use transform="matrix(0.06172839506172839,0,0,0.06172839506172839,69.07407407407408,0)" xlink:href="#ah"/></g><path fill="#834187" d="M205 0l-28-72H64L36 0H1l101-248h38L239 0h-34zm-38-99l-47-123c-12 45-31 82-46 123h93" id="ai"/><path fill="#834187" d="M233-177c-1 41-23 64-60 70L243 0h-38l-65-103H63V0H30v-248c88 3 205-21 203 71zM63-129c60-2 137 13 137-47 0-61-80-42-137-45v92" id="aj"/><path fill="#834187" d="M143 4C61 4 22-44 18-125c-5-107 100-154 193-111 17 8 29 25 37 43l-32 9c-13-25-37-40-76-40-61 0-88 39-88 99 0 61 29 100 91 101 35 0 62-11 79-27v-45h-74v-28h105v86C228-13 192 4 143 4" id="ak"/><path fill="#834187" d="M232-93c-1 65-40 97-104 97C67 4 28-28 28-90v-158h33c8 89-33 224 67 224 102 0 64-133 71-224h33v155" id="al"/><path fill="#834187" d="M240 0l2-218c-23 76-54 145-80 218h-23L58-218 59 0H30v-248h44l77 211c21-75 51-140 76-211h43V0h-30" id="am"/><path fill="#834187" d="M30 0v-248h187v28H63v79h144v27H63v87h162V0H30" id="an"/><path fill="#834187" d="M190 0L58-211 59 0H30v-248h39L202-35l-2-213h31V0h-41" id="ao"/><path fill="#834187" d="M127-220V0H93v-220H8v-28h204v28h-85" id="ap"/><g id="i"><use transform="matrix(0.06172839506172839,0,0,0.06172839506172839,0,0)" xlink:href="#ai"/><use transform="matrix(0.06172839506172839,0,0,0.06172839506172839,14.814814814814813,0)" xlink:href="#aj"/><use transform="matrix(0.06172839506172839,0,0,0.06172839506172839,30.80246913580247,0)" xlink:href="#ak"/><use transform="matrix(0.06172839506172839,0,0,0.06172839506172839,48.08641975308642,0)" xlink:href="#al"/><use transform="matrix(0.06172839506172839,0,0,0.06172839506172839,64.07407407407408,0)" xlink:href="#am"/><use transform="matrix(0.06172839506172839,0,0,0.06172839506172839,82.53086419753086,0)" xlink:href="#an"/><use transform="matrix(0.06172839506172839,0,0,0.06172839506172839,97.34567901234567,0)" xlink:href="#ao"/><use transform="matrix(0.06172839506172839,0,0,0.06172839506172839,113.33333333333333,0)" xlink:href="#ap"/></g></defs></g></svg>