<svg xmlns="http://www.w3.org/2000/svg" xmlns:xlink="http://www.w3.org/1999/xlink" xmlns:lucid="lucid" width="1380" height="522"><g transform="translate(-120.00000000000003 -1120)" lucid:page-tab-id="0_0"><path d="M0 0h1870.87v2581.67H0z" fill="#fff"/><path d="M357.9 1449.12h44.48v34.44H357.9v-34.44zM142.96 1140h470.4v309.12h-470.4V1140z" fill="#29aae1"/><path d="M164.2 1158.9h429.4v276.36H164.2V1158.9z" fill="#fff" fill-opacity=".98"/><path d="M161.25 1485.66h428.9l-21.26 73.92H140l21.25-73.92z" fill="#29aae1"/><path d="M158.78 1483.14h438.77l36.57 76.44H195.34l-36.56-76.44z" fill="#29aae1"/><path d="M307.5 1539.84h156.15v15.54H307.5v-15.54zM221.53 1495.32h11.36v9.66h-11.37v-9.66zM241.8 1495.74h11.85v9.66H241.8v-9.66zM267.98 1513.38h11.86v9.66h-11.86v-9.66zM264.02 1494.48h11.37v10.08H264v-10.08zM283.8 1495.32h11.85v9.66H283.8v-9.66zM303.06 1494.48h11.86v10.08h-11.86v-10.08zM424.12 1496.16h11.86v10.08h-11.86v-10.08zM441.9 1496.16h11.86v10.08H441.9v-10.08zM458.7 1496.16h11.86v10.08H458.7v-10.08zM478.96 1496.16h11.37v10.08h-11.37v-10.08zM497.25 1496.16h11.36v10.08h-11.35v-10.08zM475.5 1512.54h11.37v9.66H475.5v-9.66zM518 1496.16h11.86v10.08H518v-10.08zM290.2 1512.96h11.38v9.66H290.2v-9.66zM312.45 1512.96h11.36v9.66h-11.35v-9.66zM457.22 1512.12h9.9v9.66h-9.9v-9.66zM436.96 1512.12h11.86v9.66h-11.86v-9.66zM324.8 1494.9h11.86v10.08H324.8v-10.08zM347.04 1495.32h11.36v10.08h-11.36v-10.08zM367.3 1494.9h11.36v10.08H367.3v-10.08zM389.53 1494.9h11.36v10.08h-11.37v-10.08zM407.8 1495.32h11.38v10.08H407.8v-10.08zM332.2 1512.54h11.87v9.66H332.2v-9.66zM354.45 1512.54h11.36v9.66h-11.35v-9.66zM374.7 1512.96h11.86v9.66H374.7v-9.66zM394.96 1512.96h11.37v9.66h-11.37v-9.66zM415.72 1512.12h11.36v9.66h-11.36v-9.66z" fill="#fff"/><path d="M140.5 1559.58l493.62-1.68-35.08-74.76-437.3.84-21.25 75.6z" fill="none"/><path d="M355.44 1449.12h48.42v4.62h-48.42v-4.62zM357.4 1477.68h45.96v5.46H357.4v-5.46z" fill="#fff"/><use xlink:href="#a" transform="matrix(1,0,0,1,110.00000000000003,1560) translate(166.25000000000006 26.666666666666664)"/><use xlink:href="#b" transform="matrix(1,0,0,1,110.00000000000003,1560) translate(242.73148148148152 26.666666666666664)"/><path d="M267.06 1370h240v60h-240z" fill="none"/><use xlink:href="#c" transform="matrix(1,0,0,1,267.0588235294118,1370) translate(-14.999999999999943 36.666666666666664)"/><path d="M267.06 1191c0-3.3 2.7-6 6-6h228c3.3 0 6 2.7 6 6v173c0 3.3-2.7 6-6 6h-228c-3.3 0-6-2.7-6-6z" stroke="#5e5e5e" stroke-width="3" fill="#fff"/><path d="M267.06 1191c0-3.3 2.7-6 6-6h228c3.3 0 6 2.7 6 6v48c0 3.3-2.7 6-6 6h-228c-3.3 0-6-2.7-6-6z" stroke="#5e5e5e" stroke-width="3" fill="#bfbfbf"/><path d="M459.06 1215c0-3.3 2.7-6 6-6h24c3.3 0 6 2.7 6 6v12c0 3.3-2.7 6-6 6h-24c-3.3 0-6-2.7-6-6z" stroke="#5e5e5e" stroke-width="3" fill="#fff"/><path d="M291.06 1209l-12 12 12 12m-12-12h24M339.06 1209l12 12-12 12m-12-12h24M399.06 1221c-1.4-6.23-2.8-8.15-4.95-9.7-5.35-3.9-12.85-2.72-16.75 2.65-3.9 5.36-2.7 12.86 2.66 16.76 5.37 3.9 12.87 2.72 16.77-2.65" stroke="#5e5e5e" stroke-width="6" fill="none"/><path d="M402.18 1209v12h-12z" stroke="#5e5e5e" stroke-width="1.5" fill="#5e5e5e"/><path d="M423.06 1221l12-12 12 12h-2.4v12h-6v-12h-7.2v12h-6v-12z" stroke="#5e5e5e" fill="#5e5e5e"/><path d="M905.74 1140h179.36v420H905.74v-420zM1096.6 1140h179.72v420H1096.6v-420z" fill="#29aae1"/><path d="M949.84 1169.4c4.8 0 4.8 0 4.8 4.2v25.62c0 4.2 0 4.2-4.8 4.2-4.82 0-4.82 0-4.82-4.2v-25.62c0-4.2 0-4.2 4.82-4.2zM972.44 1169.4c5.2 0 5.2 0 5.2 4.2v25.62c0 4.2 0 4.2-5.2 4.2-4.82 0-4.82 0-4.82-4.2v-25.62c0-4.2 0-4.2 4.82-4.2zM1017.28 1169.4c4.82 0 4.82 0 4.82 4.2v25.62c0 4.2 0 4.2-4.82 4.2s-4.82 0-4.82-4.2v-25.62c0-4.2 0-4.2 4.82-4.2zM1038.4 1169.4c5.2 0 5.2 0 5.2 4.2v25.62c0 4.2 0 4.2-5.2 4.2-4.8 0-4.8 0-4.8-4.2v-25.62c0-4.2 0-4.2 4.8-4.2zM949.46 1217.7h2.23c3.7 0 3.7 0 3.7 3.78v20.16c0 3.36 0 3.36-3.7 3.36h-2.24c-3.7 0-3.7 0-3.7-3.36v-20.16c0-3.78 0-3.78 3.7-3.78zM972.44 1217.7h2.22c3.7 0 3.7 0 3.7 3.78v20.16c0 3.36 0 3.36-3.7 3.36h-2.22c-3.7 0-3.7 0-3.7-3.36v-20.16c0-3.78 0-3.78 3.7-3.78zM1017.65 1217.7h2.23c3.7 0 3.7 0 3.7 3.78v20.16c0 3.36 0 3.36-3.7 3.36h-2.23c-3.7 0-3.7 0-3.7-3.36v-20.16c0-3.78 0-3.78 3.7-3.78zM1039.15 1217.7h2.22c4.08 0 4.08 0 4.08 3.78v20.16c0 3.36 0 3.36-4.08 3.36h-2.22c-3.7 0-3.7 0-3.7-3.36v-20.16c0-3.78 0-3.78 3.7-3.78zM975.04 1506.24h82.64c4.07 0 4.07 0 4.07 3.36 0 3.78 0 3.78-4.07 3.78h-82.64c-4.08 0-4.08 0-4.08-3.78 0-3.36 0-3.36 4.08-3.36zM975.04 1520.52h82.64c4.07 0 4.07 0 4.07 3.78 0 3.36 0 3.36-4.07 3.36h-82.64c-4.08 0-4.08 0-4.08-3.36 0-3.78 0-3.78 4.08-3.78zM975.04 1532.7h82.64c4.07 0 4.07 0 4.07 3.36s0 3.36-4.07 3.36h-82.64c-4.08 0-4.08 0-4.08-3.36s0-3.36 4.08-3.36zM1169.6 1509.18h82.64c4.07 0 4.07 0 4.07 3.36s0 3.36-4.06 3.36h-82.65c-4.08 0-4.08 0-4.08-3.36s0-3.36 4.07-3.36zM1169.6 1523.46h82.64c4.07 0 4.07 0 4.07 3.36s0 3.36-4.06 3.36h-82.65c-4.08 0-4.08 0-4.08-3.36s0-3.36 4.07-3.36zM1169.6 1535.22h82.64c4.07 0 4.07 0 4.07 3.78 0 3.36 0 3.36-4.06 3.36h-82.65c-4.08 0-4.08 0-4.08-3.36 0-3.78 0-3.78 4.07-3.78zM1172.2 1165.62h80.78v78.96h-80.8v-78.96z" fill="#fff"/><path d="M1181.82 1171.92h9.64v14.28h-9.64v-14.28zM1207.76 1171.92h9.64v14.28h-9.64v-14.28zM1234.08 1171.92h9.63v14.28h-9.62v-14.28zM1182.2 1200.48h10v13.86h-10v-13.86zM1208.14 1200.48h10v13.86h-10v-13.86zM1234.08 1200.48h9.63v13.86h-9.62v-13.86zM1182.56 1226.1h9.64v13.86h-9.64v-13.86zM1208.5 1226.1h9.64v13.86h-9.63v-13.86zM1234.45 1226.1h10v13.86h-10v-13.86z" fill="#54bbe7"/><use xlink:href="#d" transform="matrix(1,0,0,1,875.7352941176471,1560) translate(53.64814814814821 26.666666666666664)"/><use xlink:href="#e" transform="matrix(1,0,0,1,875.7352941176471,1560) translate(136.8888888888889 26.666666666666664)"/><use xlink:href="#f" transform="matrix(1,0,0,1,875.7352941176471,1560) translate(281.14814814814815 26.666666666666664)"/><path d="M618.36 1350H870.3" stroke="#c92d39" stroke-width="10" fill="none"/><path d="M618.5 1355h-5.14v-10h5.13z" fill="#c92d39"/><path d="M889.55 1350l-14.26 4.64v-9.28z" stroke="#c92d39" stroke-width="10" fill="#c92d39"/><use xlink:href="#g" transform="matrix(1,0,0,1,655.6574208827941,1354) translate(0 26.666666666666657)"/><path d="M345.6 1260h82.93v82.94H345.6z" fill="url(#h)"/><path d="M618.36 1350H870.3M618.5 1350h-5.14" stroke="#c92d39" stroke-width="10" fill="none"/><path d="M889.55 1350l-14.26 4.64v-9.28z" stroke="#c92d39" stroke-width="10" fill="#c92d39"/><use xlink:href="#g" transform="matrix(1,0,0,1,655.6574208827941,1354) translate(0 26.666666666666657)"/><path d="M1281.32 1280H1474c3.3 0 6 2.7 6 6v154c0 3.3-2.7 6-6 6h-162.23" stroke="#c92d39" stroke-width="10" fill="none"/><path d="M1281.45 1285h-5.13v-10h5.13z" fill="#c92d39"/><path d="M1292.5 1446l14.27-4.64v9.28z" stroke="#c92d39" stroke-width="10" fill="#c92d39"/><g><use xlink:href="#i" transform="matrix(1,0,0,1,1310.9094265813526,1236) translate(0 26.666666666666657)"/></g><path d="M761.54 1560h5.6v62h-5.6z" fill="#fff" fill-opacity="0"/><defs><path fill="#333" d="M137-103V0h-34v-103L8-248h37l75 118 75-118h37" id="j"/><path fill="#333" d="M100-194c62-1 85 37 85 99 1 63-27 99-86 99S16-35 15-95c0-66 28-99 85-99zM99-20c44 1 53-31 53-75 0-43-8-75-51-75s-53 32-53 75 10 74 51 75" id="k"/><path fill="#333" d="M84 4C-5 8 30-112 23-190h32v120c0 31 7 50 39 49 72-2 45-101 50-169h31l1 190h-30c-1-10 1-25-2-33-11 22-28 36-60 37" id="l"/><path fill="#333" d="M114-163C36-179 61-72 57 0H25l-1-190h30c1 12-1 29 2 39 6-27 23-49 58-41v29" id="m"/><g id="a"><use transform="matrix(0.09259259259259256,0,0,0.09259259259259256,0,0)" xlink:href="#j"/><use transform="matrix(0.09259259259259256,0,0,0.09259259259259256,19.16666666666666,0)" xlink:href="#k"/><use transform="matrix(0.09259259259259256,0,0,0.09259259259259256,37.685185185185176,0)" xlink:href="#l"/><use transform="matrix(0.09259259259259256,0,0,0.09259259259259256,56.20370370370368,0)" xlink:href="#m"/></g><path fill="#333" d="M212-179c-10-28-35-45-73-45-59 0-87 40-87 99 0 60 29 101 89 101 43 0 62-24 78-52l27 14C228-24 195 4 139 4 59 4 22-46 18-125c-6-104 99-153 187-111 19 9 31 26 39 46" id="n"/><path fill="#333" d="M210-169c-67 3-38 105-44 169h-31v-121c0-29-5-50-35-48C34-165 62-65 56 0H25l-1-190h30c1 10-1 24 2 32 10-44 99-50 107 0 11-21 27-35 58-36 85-2 47 119 55 194h-31v-121c0-29-5-49-35-48" id="o"/><path fill="#333" d="M115-194c55 1 70 41 70 98S169 2 115 4C84 4 66-9 55-30l1 105H24l-1-265h31l2 30c10-21 28-34 59-34zm-8 174c40 0 45-34 45-75s-6-73-45-74c-42 0-51 32-51 76 0 43 10 73 51 73" id="p"/><path fill="#333" d="M59-47c-2 24 18 29 38 22v24C64 9 27 4 27-40v-127H5v-23h24l9-43h21v43h35v23H59v120" id="q"/><path fill="#333" d="M100-194c63 0 86 42 84 106H49c0 40 14 67 53 68 26 1 43-12 49-29l28 8c-11 28-37 45-77 45C44 4 14-33 15-96c1-61 26-98 85-98zm52 81c6-60-76-77-97-28-3 7-6 17-6 28h103" id="r"/><g id="b"><use transform="matrix(0.09259259259259256,0,0,0.09259259259259256,0,0)" xlink:href="#n"/><use transform="matrix(0.09259259259259256,0,0,0.09259259259259256,23.981481481481474,0)" xlink:href="#k"/><use transform="matrix(0.09259259259259256,0,0,0.09259259259259256,42.499999999999986,0)" xlink:href="#o"/><use transform="matrix(0.09259259259259256,0,0,0.09259259259259256,70.18518518518516,0)" xlink:href="#p"/><use transform="matrix(0.09259259259259256,0,0,0.09259259259259256,88.70370370370367,0)" xlink:href="#l"/><use transform="matrix(0.09259259259259256,0,0,0.09259259259259256,107.22222222222216,0)" xlink:href="#q"/><use transform="matrix(0.09259259259259256,0,0,0.09259259259259256,116.48148148148142,0)" xlink:href="#r"/><use transform="matrix(0.09259259259259256,0,0,0.09259259259259256,134.99999999999994,0)" xlink:href="#m"/></g><path fill="#333" d="M24-231v-30h32v30H24zM-9 49c24 4 33-6 33-30v-209h32V24c2 40-23 58-65 49V49" id="s"/><path fill="#333" d="M179-190L93 31C79 59 56 82 12 73V49c39 6 53-20 64-50L1-190h34L92-34l54-156h33" id="t"/><path fill="#333" d="M33 0v-38h34V0H33" id="u"/><path fill="#333" d="M117-194c89-4 53 116 60 194h-32v-121c0-31-8-49-39-48C34-167 62-67 57 0H25l-1-190h30c1 10-1 24 2 32 11-22 29-35 61-36" id="v"/><path fill="#333" d="M135-143c-3-34-86-38-87 0 15 53 115 12 119 90S17 21 10-45l28-5c4 36 97 45 98 0-10-56-113-15-118-90-4-57 82-63 122-42 12 7 21 19 24 35" id="w"/><path fill="#333" d="M24-231v-30h32v30H24zM24 0v-190h32V0H24" id="x"/><path fill="#333" d="M177-190C167-65 218 103 67 71c-23-6-38-20-44-43l32-5c15 47 100 32 89-28v-30C133-14 115 1 83 1 29 1 15-40 15-95c0-56 16-97 71-98 29-1 48 16 59 35 1-10 0-23 2-32h30zM94-22c36 0 50-32 50-73 0-42-14-75-50-75-39 0-46 34-46 75s6 73 46 73" id="y"/><path fill="#333" d="M9 0v-24l116-142H16v-24h144v24L44-24h123V0H9" id="z"/><g id="c"><use transform="matrix(0.09259259259259256,0,0,0.09259259259259256,0,0)" xlink:href="#s"/><use transform="matrix(0.09259259259259256,0,0,0.09259259259259256,7.314814814814812,0)" xlink:href="#l"/><use transform="matrix(0.09259259259259256,0,0,0.09259259259259256,25.833333333333325,0)" xlink:href="#p"/><use transform="matrix(0.09259259259259256,0,0,0.09259259259259256,44.35185185185183,0)" xlink:href="#t"/><use transform="matrix(0.09259259259259256,0,0,0.09259259259259256,61.01851851851848,0)" xlink:href="#q"/><use transform="matrix(0.09259259259259256,0,0,0.09259259259259256,70.27777777777774,0)" xlink:href="#r"/><use transform="matrix(0.09259259259259256,0,0,0.09259259259259256,88.79629629629625,0)" xlink:href="#m"/><use transform="matrix(0.09259259259259256,0,0,0.09259259259259256,97.96296296296293,0)" xlink:href="#u"/><use transform="matrix(0.09259259259259256,0,0,0.09259259259259256,107.22222222222216,0)" xlink:href="#v"/><use transform="matrix(0.09259259259259256,0,0,0.09259259259259256,125.74074074074068,0)" xlink:href="#r"/><use transform="matrix(0.09259259259259256,0,0,0.09259259259259256,144.25925925925918,0)" xlink:href="#w"/><use transform="matrix(0.09259259259259256,0,0,0.09259259259259256,160.92592592592584,0)" xlink:href="#x"/><use transform="matrix(0.09259259259259256,0,0,0.09259259259259256,168.24074074074065,0)" xlink:href="#u"/><use transform="matrix(0.09259259259259256,0,0,0.09259259259259256,177.49999999999991,0)" xlink:href="#k"/><use transform="matrix(0.09259259259259256,0,0,0.09259259259259256,196.01851851851842,0)" xlink:href="#m"/><use transform="matrix(0.09259259259259256,0,0,0.09259259259259256,207.03703703703692,0)" xlink:href="#y"/><use transform="matrix(0.09259259259259256,0,0,0.09259259259259256,225.55555555555543,0)" xlink:href="#u"/><use transform="matrix(0.09259259259259256,0,0,0.09259259259259256,234.8148148148147,0)" xlink:href="#v"/><use transform="matrix(0.09259259259259256,0,0,0.09259259259259256,253.3333333333332,0)" xlink:href="#z"/></g><path fill="#333" d="M190 0L58-211 59 0H30v-248h39L202-35l-2-213h31V0h-41" id="A"/><path fill="#333" d="M185-189c-5-48-123-54-124 2 14 75 158 14 163 119 3 78-121 87-175 55-17-10-28-26-33-46l33-7c5 56 141 63 141-1 0-78-155-14-162-118-5-82 145-84 179-34 5 7 8 16 11 25" id="B"/><path fill="#333" d="M33 0v-248h34V0H33" id="C"/><g id="d"><use transform="matrix(0.09259259259259256,0,0,0.09259259259259256,0,0)" xlink:href="#A"/><use transform="matrix(0.09259259259259256,0,0,0.09259259259259256,23.981481481481474,0)" xlink:href="#r"/><use transform="matrix(0.09259259259259256,0,0,0.09259259259259256,42.499999999999986,0)" xlink:href="#B"/><use transform="matrix(0.09259259259259256,0,0,0.09259259259259256,64.7222222222222,0)" xlink:href="#C"/></g><g id="e"><use transform="matrix(0.09259259259259256,0,0,0.09259259259259256,0,0)" xlink:href="#n"/><use transform="matrix(0.09259259259259256,0,0,0.09259259259259256,23.981481481481474,0)" xlink:href="#k"/><use transform="matrix(0.09259259259259256,0,0,0.09259259259259256,42.499999999999986,0)" xlink:href="#o"/><use transform="matrix(0.09259259259259256,0,0,0.09259259259259256,70.18518518518516,0)" xlink:href="#p"/><use transform="matrix(0.09259259259259256,0,0,0.09259259259259256,88.70370370370367,0)" xlink:href="#l"/><use transform="matrix(0.09259259259259256,0,0,0.09259259259259256,107.22222222222216,0)" xlink:href="#q"/><use transform="matrix(0.09259259259259256,0,0,0.09259259259259256,116.48148148148142,0)" xlink:href="#r"/></g><path fill="#333" d="M85-194c31 0 48 13 60 33l-1-100h32l1 261h-30c-2-10 0-23-3-31C134-8 116 4 85 4 32 4 16-35 15-94c0-66 23-100 70-100zm9 24c-40 0-46 34-46 75 0 40 6 74 45 74 42 0 51-32 51-76 0-42-9-74-50-73" id="D"/><g id="f"><use transform="matrix(0.09259259259259256,0,0,0.09259259259259256,0,0)" xlink:href="#A"/><use transform="matrix(0.09259259259259256,0,0,0.09259259259259256,23.981481481481474,0)" xlink:href="#k"/><use transform="matrix(0.09259259259259256,0,0,0.09259259259259256,42.499999999999986,0)" xlink:href="#D"/><use transform="matrix(0.09259259259259256,0,0,0.09259259259259256,61.0185185185185,0)" xlink:href="#r"/><use transform="matrix(0.09259259259259256,0,0,0.09259259259259256,79.53703703703701,0)" xlink:href="#w"/></g><path fill="#333" d="M153-248C145-148 188 4 80 4 36 3 13-21 6-62l32-5c4 25 16 42 43 43 27 0 39-20 39-49v-147H72v-28h81" id="E"/><path fill="#333" d="M197 0v-115H63V0H30v-248h33v105h134v-105h34V0h-34" id="F"/><path fill="#333" d="M115-194c53 0 69 39 70 98 0 66-23 100-70 100C84 3 66-7 56-30L54 0H23l1-261h32v101c10-23 28-34 59-34zm-8 174c40 0 45-34 45-75 0-40-5-75-45-74-42 0-51 32-51 76 0 43 10 73 51 73" id="G"/><g id="g"><use transform="matrix(0.09259259259259256,0,0,0.09259259259259256,0,0)" xlink:href="#E"/><use transform="matrix(0.09259259259259256,0,0,0.09259259259259256,16.66666666666666,0)" xlink:href="#l"/><use transform="matrix(0.09259259259259256,0,0,0.09259259259259256,35.185185185185176,0)" xlink:href="#p"/><use transform="matrix(0.09259259259259256,0,0,0.09259259259259256,53.70370370370368,0)" xlink:href="#t"/><use transform="matrix(0.09259259259259256,0,0,0.09259259259259256,70.37037037037035,0)" xlink:href="#q"/><use transform="matrix(0.09259259259259256,0,0,0.09259259259259256,79.6296296296296,0)" xlink:href="#r"/><use transform="matrix(0.09259259259259256,0,0,0.09259259259259256,98.14814814814814,0)" xlink:href="#m"/><use transform="matrix(0.09259259259259256,0,0,0.09259259259259256,109.16666666666664,0)" xlink:href="#F"/><use transform="matrix(0.09259259259259256,0,0,0.09259259259259256,133.14814814814812,0)" xlink:href="#l"/><use transform="matrix(0.09259259259259256,0,0,0.09259259259259256,151.66666666666663,0)" xlink:href="#G"/></g><image width="1" height="1" id="H" xlink:href="https://images.lucid.app/images/5cb2bf69-565b-437f-84c0-c52390ec94a9/content" preserveAspectRatio="none"/><pattern id="h" patternUnits="userSpaceOnUse" x="345.59" y="1260" width="82.94" height="82.94"><use xlink:href="#H" transform="translate(0, 0) scale(82.94117647058812,82.94117647058812)"/></pattern><path fill="#333" d="M160-131c35 5 61 23 61 61C221 17 115-2 30 0v-248c76 3 177-17 177 60 0 33-19 50-47 57zm-97-11c50-1 110 9 110-42 0-47-63-36-110-37v79zm0 115c55-2 124 14 124-45 0-56-70-42-124-44v89" id="I"/><path fill="#333" d="M205 0l-28-72H64L36 0H1l101-248h38L239 0h-34zm-38-99l-47-123c-12 45-31 82-46 123h93" id="J"/><path fill="#333" d="M127-220V0H93v-220H8v-28h204v28h-85" id="K"/><g id="i"><use transform="matrix(0.09259259259259256,0,0,0.09259259259259256,0,0)" xlink:href="#B"/><use transform="matrix(0.09259259259259256,0,0,0.09259259259259256,22.222222222222214,0)" xlink:href="#I"/><use transform="matrix(0.09259259259259256,0,0,0.09259259259259256,44.44444444444443,0)" xlink:href="#J"/><use transform="matrix(0.09259259259259256,0,0,0.09259259259259256,64.16666666666664,0)" xlink:href="#K"/><use transform="matrix(0.09259259259259256,0,0,0.09259259259259256,84.44444444444441,0)" xlink:href="#n"/><use transform="matrix(0.09259259259259256,0,0,0.09259259259259256,108.42592592592588,0)" xlink:href="#F"/></g></defs></g></svg>